<svg viewBox="0 0 22 20" fill="none" xmlns="http://www.w3.org/2000/svg">
    <path d="M6 1C3.239 1 1 3.216 1 5.95C1 8.157 1.875 13.395 10.488 18.69C10.6423 18.7839 10.8194 18.8335 11 18.8335C11.1806 18.8335 11.3577 18.7839 11.512 18.69C20.125 13.395 21 8.157 21 5.95C21 3.216 18.761 1 16 1C13.239 1 11 4 11 4C11 4 8.761 1 6 1Z" stroke="currentColor" stroke-width="2" stroke-linecap="round" stroke-linejoin="round"/>
    <path d="M13 14.5L16 17.5L19.5 14.5L21.5 11L19.5 9L16.5 11.5L13 14.5Z" fill="white"/>
    <path d="M13.5 9C12.1195 9 11 10.1183 11 11.4981C11 12.6119 11.4375 15.2554 15.744 17.9276C15.8211 17.9749 15.9097 18 16 18C16.0903 18 16.1789 17.9749 16.256 17.9276C20.5625 15.2554 21 12.6119 21 11.4981C21 10.1183 19.8805 9 18.5 9C17.1195 9 16 10.514 16 10.514C16 10.514 14.8805 9 13.5 9Z" stroke="currentColor" stroke-width="2" stroke-linecap="round" stroke-linejoin="round"/>
</svg>
