<svg width="10" height="7" viewBox="0 0 10 7" fill="none" xmlns="http://www.w3.org/2000/svg">
    <path d="M0.227402 0.969834C0.368048 0.829231 0.558779 0.750244 0.757652 0.750244C0.956525 0.750244 1.14726 0.829231 1.2879 0.969834L5.0004 4.68233L8.7129 0.969834C8.85435 0.833216 9.04381 0.757619 9.24045 0.759328C9.4371 0.761037 9.62521 0.839914 9.76427 0.97897C9.90332 1.11803 9.9822 1.30614 9.98391 1.50278C9.98562 1.69943 9.91002 1.88888 9.7734 2.03033L5.53065 6.27308C5.39001 6.41369 5.19928 6.49267 5.0004 6.49267C4.80153 6.49267 4.6108 6.41369 4.47015 6.27308L0.227402 2.03033C0.0867991 1.88969 0.0078125 1.69896 0.0078125 1.50008C0.0078125 1.30121 0.0867991 1.11048 0.227402 0.969834V0.969834Z"
          fill="currentColor"/>
</svg>
