<svg width="26" height="26" viewBox="0 0 26 26" fill="none" xmlns="http://www.w3.org/2000/svg">
    <path d="M6 7.75H13V9.5H6V7.75ZM6 4.25H16.5V6H6V4.25ZM6 0.75H16.5V2.5H6V0.75Z" fill="currentColor"/>
    <path d="M3.12212 23.5L8.04925 14.7535L14.554 20.4322C14.7506 20.6072 14.9842 20.7356 15.2373 20.8078C15.4904 20.88 15.7566 20.8942 16.0159 20.8492C16.2753 20.8043 16.5211 20.7015 16.7352 20.5484C16.9493 20.3953 17.1261 20.1959 17.2525 19.965L23.3512 10.8624L21.8979 9.88762L15.7729 19.0296L15.7116 19.1197L9.206 13.441C9.00943 13.267 8.77629 13.1394 8.5238 13.0676C8.27131 12.9958 8.00592 12.9817 7.74722 13.0262C7.48852 13.0707 7.24313 13.1728 7.02916 13.3248C6.81519 13.4769 6.63811 13.6751 6.511 13.9048L2.5 21.0351V0.75H0.75V23.5C0.750463 23.964 0.934987 24.4088 1.26307 24.7369C1.59116 25.065 2.03601 25.2495 2.5 25.25H25.25V23.5H3.12212Z" fill="currentColor"/>
</svg>
