<svg width="24" height="24" viewBox="0 0 24 24" fill="none" xmlns="http://www.w3.org/2000/svg">
    <path d="M13.8013 10.1989C12.8457 9.24364 11.5499 8.70703 10.1987 8.70703C8.8475 8.70703 7.55164 9.24364 6.59601 10.1989L2.99218 13.8015C2.03654 14.7572 1.49966 16.0533 1.49966 17.4048C1.49966 18.7563 2.03654 20.0524 2.99218 21.008C3.94782 21.9637 5.24395 22.5005 6.59543 22.5005C7.94691 22.5005 9.24304 21.9637 10.1987 21.008L12 19.2067"
          stroke="currentColor" stroke-width="2" stroke-linecap="round" stroke-linejoin="round"/>
    <path d="M10.1987 13.8014C11.1543 14.7567 12.4502 15.2933 13.8013 15.2933C15.1525 15.2933 16.4484 14.7567 17.404 13.8014L21.0078 10.1988C21.9635 9.24313 22.5004 7.947 22.5004 6.59552C22.5004 5.24404 21.9635 3.94791 21.0078 2.99227C20.0522 2.03663 18.7561 1.49976 17.4046 1.49976C16.0531 1.49976 14.757 2.03663 13.8013 2.99227L12 4.7936"
          stroke="currentColor" stroke-width="2" stroke-linecap="round" stroke-linejoin="round"/>
</svg>
