<svg width="135" height="40" viewBox="0 0 135 40" fill="none" xmlns="http://www.w3.org/2000/svg">
    <path fill-rule="evenodd" clip-rule="evenodd" d="M99.8578 21.7071C102.693 21.1889 104.81 23.311 105.118 25.8209C105.965 32.7479 96.5818 33.7561 95.9203 27.4496C95.5913 24.3086 97.1873 22.1971 99.8578 21.7106V21.7071ZM68.3543 23.3181C68.6343 23.163 68.8268 22.7681 69.1838 22.4896C71.5848 20.6283 75.3823 21.9397 75.5433 26.2017C75.6623 29.3884 73.8143 31.8913 70.8848 31.5952C69.4393 31.4471 69.1208 30.7632 68.6238 30.4248L68.6168 35.2966L66.5028 35.2402L66.4993 25.204C66.4993 24.224 66.3488 22.7576 66.4433 21.8692L68.2668 21.8939L68.3508 23.3145L68.3543 23.3181ZM46.9378 18.1924L49.5138 18.2136L53.7103 31.4224L51.4738 31.3942L50.2698 27.5447L46.0733 27.5588C45.6673 28.1758 45.0933 30.5165 44.8168 31.4154L42.6468 31.4083L46.9378 18.1889V18.1924ZM120.854 31.017C118.653 31.9406 115.989 31.8596 114.449 30.4601C111.299 27.6012 113.462 20.2935 118.786 21.8622C120.651 22.4121 121.838 24.6964 121.33 27.1429L115.051 27.1394C115.254 31.0523 119.062 29.8326 120.574 29.5858L120.858 31.0206L120.854 31.017ZM108.867 23.66C109.409 22.5319 110.249 21.4532 111.985 21.7388L111.975 23.6847C110.106 23.6671 109.227 24.3157 109.122 26.1946C109.031 27.8726 109.171 29.6775 109.108 31.4189L107.005 31.3731L106.977 21.8727L108.765 21.8974L108.867 23.66ZM92.3678 19.525L92.3818 21.8657L94.6918 21.8904L94.6848 23.4555L92.3958 23.4802C92.3153 24.8409 92.3643 26.4378 92.3748 27.8162C92.3958 29.896 92.7388 29.7762 94.5518 29.8361L94.5623 31.3801C88.9693 32.9171 90.5338 27.2874 90.2818 23.4661L88.9203 23.4414L88.9518 21.8763L90.2993 21.8622L90.3133 20.1278L92.3713 19.5179L92.3678 19.525ZM57.4518 23.3533C57.9873 22.8316 58.3723 22.2217 59.3348 21.8939C64.6513 20.096 66.3873 28.5882 62.5723 31.003C61.8443 31.4648 60.8258 31.715 59.7758 31.5705C58.4353 31.3872 58.3723 30.8161 57.7038 30.4142L57.6968 35.3001L55.5933 35.2966L55.5058 21.8904C55.8173 21.8692 56.1323 21.8622 56.4473 21.8622C56.5593 21.8622 56.8288 21.8622 56.9338 21.8763L57.4553 23.3498L57.4518 23.3533ZM80.0618 29.0923C81.1678 29.4342 81.7663 29.9701 83.3658 29.8678C84.5278 29.7903 85.5113 29.2157 85.5953 28.063C85.7563 25.7927 82.7253 25.5812 81.2553 24.4673C78.4203 22.3204 79.8378 18.2171 83.8558 18.0091C85.4168 17.9281 85.9558 18.2383 87.2473 18.5873L86.6593 20.3005C85.8088 19.9127 84.4263 19.5532 83.3448 19.8458C82.0743 20.1877 81.6403 21.2382 82.0568 22.1653C82.4243 22.9796 83.4148 23.378 84.3878 23.7975C89.3928 25.9584 87.8808 29.6352 86.0958 30.8196C84.4718 31.8948 81.2763 31.8878 79.5998 30.7879L80.0653 29.0958L80.0618 29.0923ZM33.8513 24.9537C33.6203 25.9655 32.9308 27.2698 32.4303 28.1264C28.7588 34.4118 26.6098 30.0512 23.1553 30.728C21.9828 30.9571 20.8453 31.8419 19.5643 31.6234C16.4388 31.0911 11.3813 21.9538 14.2478 16.0315C15.1158 14.2407 16.9988 12.39 19.7778 12.4746C21.3773 12.524 22.1473 13.2819 23.3688 13.5004C24.4363 13.6943 25.8223 12.8518 26.8723 12.5698C29.6268 11.826 32.3463 13.3912 33.2003 14.8788C32.9658 15.1643 32.8888 15.1361 32.6123 15.3723C32.1293 15.7812 31.5553 16.3981 31.2368 16.9727C30.7048 17.9351 30.4108 18.975 30.5263 20.2265C30.6593 21.6859 31.2473 22.8175 32.1258 23.7094C32.4268 24.016 32.3218 23.9526 32.6403 24.1853C33.0078 24.4567 33.4873 24.64 33.8583 24.9537H33.8513ZM23.6523 12.0904C23.2393 9.14331 26.0638 6.4113 28.6678 6.27382C28.7763 9.3231 26.6413 12.2384 23.6523 12.0904ZM0.758789 6.67216V33.2837C0.758789 36.7666 4.10129 39.8758 7.05529 39.8758H127.812C128.656 39.8758 129.723 39.4845 130.325 39.1743C131.155 38.7478 131.547 38.4129 132.166 37.7924C133.139 36.816 134.109 35.1838 134.109 33.2837V6.67216C134.109 3.18929 130.766 0.0800781 127.812 0.0800781H7.05529C6.21179 0.0800781 5.14429 0.471373 4.54229 0.781589C3.71279 1.20814 3.32079 1.54303 2.70129 2.16346C1.72829 3.13993 0.758789 4.77209 0.758789 6.67216Z" fill="#434343"/>
    <path fill-rule="evenodd" clip-rule="evenodd" d="M100.197 23.3075C96.8723 23.9068 97.4568 30.8232 100.992 30.0406C101.657 29.8925 102.29 29.2016 102.539 28.7257C102.913 28.0136 103.039 27.09 102.973 26.2017C102.85 24.6012 101.895 23.0043 100.197 23.311V23.3075Z" fill="#434343"/>
    <path fill-rule="evenodd" clip-rule="evenodd" d="M57.7073 26.1981V27.3191C57.7073 31.1299 62.6038 30.8866 62.5303 26.5718C62.4603 22.4262 57.7073 22.257 57.7073 26.2017V26.1981Z" fill="#434343"/>
    <path fill-rule="evenodd" clip-rule="evenodd" d="M70.3493 23.4696C68.6168 23.9667 68.5468 25.486 68.6203 27.446C68.6833 29.1558 69.9398 30.5447 71.7633 29.8044C74.4653 28.7081 73.7268 22.5002 70.3528 23.4696H70.3493Z" fill="#434343"/>
    <path fill-rule="evenodd" clip-rule="evenodd" d="M46.4653 25.902L49.8428 25.8985L48.1628 20.2018C47.6973 20.8575 47.5013 22.1512 47.2423 23.029C47.0498 23.6847 46.4828 25.338 46.4653 25.9055V25.902Z" fill="#434343"/>
    <path fill-rule="evenodd" clip-rule="evenodd" d="M115.118 25.6517L119.349 25.6447C119.521 24.1923 118.67 23.1101 117.316 23.1207C116.098 23.1277 114.964 24.3509 115.114 25.6517H115.118Z" fill="#434343"/>
    <path fill-rule="evenodd" clip-rule="evenodd" d="M70.3492 23.4695C73.7267 22.5001 74.4652 28.7079 71.7597 29.8042C69.9362 30.541 68.6797 29.1521 68.6167 27.4459C68.5467 25.4859 68.6167 23.9665 70.3457 23.4695H70.3492ZM68.3507 23.3179L68.2667 21.8973L66.4432 21.8726C66.3487 22.7609 66.4992 24.2239 66.4992 25.2074L66.5027 35.2436L68.6167 35.3L68.6237 30.4282C69.1172 30.7666 69.4392 31.4505 70.8847 31.5986C73.8142 31.8947 75.6657 29.3918 75.5432 26.205C75.3822 21.9431 71.5847 20.6317 69.1837 22.493C68.8267 22.7715 68.6342 23.1699 68.3542 23.3214L68.3507 23.3179Z" fill="white"/>
    <path fill-rule="evenodd" clip-rule="evenodd" d="M57.7072 26.198C57.7072 22.2568 62.4602 22.4225 62.5302 26.5681C62.6037 30.8829 57.7072 31.1262 57.7072 27.3154V26.1944V26.198ZM57.4552 23.3531L56.9337 21.8796C56.8322 21.8655 56.5627 21.8655 56.4472 21.8655C56.1357 21.8655 55.8207 21.8726 55.5057 21.8937L55.5932 35.3L57.6967 35.3035L57.7037 30.4176C58.3687 30.8195 58.4352 31.387 59.7757 31.5739C60.8257 31.7184 61.8442 31.4681 62.5722 31.0063C66.3872 28.5916 64.6512 20.0994 59.3347 21.8972C58.3687 22.2251 57.9872 22.8349 57.4517 23.3567L57.4552 23.3531Z" fill="white"/>
    <path fill-rule="evenodd" clip-rule="evenodd" d="M46.4652 25.902C46.4862 25.3344 47.0497 23.6811 47.2422 23.0254C47.5012 22.1477 47.7007 20.8574 48.1627 20.1982L49.8427 25.8949L46.4652 25.8985V25.902ZM42.6467 31.4083L44.8167 31.4154C45.0932 30.5129 45.6672 28.1722 46.0732 27.5588L50.2697 27.5447L51.4737 31.3942L53.7102 31.4224L49.5137 18.2136L46.9377 18.1924L42.6467 31.4118V31.4083Z" fill="white"/>
    <path fill-rule="evenodd" clip-rule="evenodd" d="M80.0652 29.0887L79.5997 30.7807C81.2762 31.8841 84.4717 31.8877 86.0957 30.8125C87.8807 29.6315 89.3927 25.9513 84.3877 23.7903C83.4147 23.3708 82.4242 22.9725 82.0567 22.1582C81.6402 21.231 82.0742 20.1805 83.3447 19.8386C84.4297 19.546 85.8087 19.9091 86.6592 20.2933L87.2472 18.5801C85.9557 18.2311 85.4132 17.9209 83.8557 18.002C79.8377 18.21 78.4202 22.3133 81.2552 24.4601C82.7252 25.5741 85.7562 25.7891 85.5952 28.0558C85.5147 29.2085 84.5277 29.7831 83.3657 29.8607C81.7662 29.9664 81.1677 29.4271 80.0617 29.0851L80.0652 29.0887Z" fill="white"/>
    <path fill-rule="evenodd" clip-rule="evenodd" d="M100.197 23.3076C101.895 23.0009 102.854 24.5978 102.973 26.1982C103.039 27.0901 102.913 28.0101 102.539 28.7222C102.287 29.1981 101.653 29.8891 100.992 30.0371C97.4567 30.8197 96.8722 23.9033 100.197 23.304V23.3076ZM99.8612 21.7071C97.1907 22.1936 95.5947 24.3052 95.9237 27.4461C96.5852 33.7527 105.969 32.748 105.122 25.8175C104.814 23.3111 102.696 21.1889 99.8612 21.7036V21.7071Z" fill="white"/>
    <path fill-rule="evenodd" clip-rule="evenodd" d="M115.118 25.6518C114.967 24.351 116.101 23.1278 117.319 23.1207C118.674 23.1102 119.521 24.1959 119.353 25.6448L115.121 25.6518H115.118ZM120.854 31.0136L120.571 29.5789C119.059 29.8292 115.251 31.0454 115.048 27.1324L121.327 27.1359C121.834 24.6895 120.648 22.4051 118.782 21.8552C113.462 20.2865 111.296 27.5942 114.446 30.4531C115.989 31.8526 118.653 31.9337 120.851 31.0101L120.854 31.0136Z" fill="white"/>
    <path fill-rule="evenodd" clip-rule="evenodd" d="M90.3132 20.1313L90.2992 21.8657L88.9517 21.8798L88.9202 23.4449L90.2817 23.4696C90.5337 27.2909 88.9692 32.9241 94.5622 31.3836L94.5517 29.8396C92.7387 29.7797 92.3922 29.8995 92.3747 27.8197C92.3607 26.4413 92.3152 24.8409 92.3957 23.4837L94.6847 23.459L94.6917 21.8939L92.3817 21.8692L92.3677 19.5285L90.3097 20.1383L90.3132 20.1313Z" fill="white"/>
    <path fill-rule="evenodd" clip-rule="evenodd" d="M108.867 23.6564L108.765 21.8938L106.977 21.8691L107.005 31.3695L109.108 31.4153C109.171 29.6738 109.031 27.869 109.122 26.191C109.227 24.312 110.106 23.6634 111.975 23.681L111.985 21.7351C110.249 21.4461 109.409 22.5248 108.867 23.6564Z" fill="white"/>
    <path fill-rule="evenodd" clip-rule="evenodd" d="M33.8547 24.9538C33.4837 24.64 33.0042 24.4532 32.6367 24.1853C32.3182 23.9526 32.4232 24.0161 32.1222 23.7094C31.2437 22.821 30.6557 21.6859 30.5227 20.2265C30.4072 18.9715 30.7012 17.9351 31.2332 16.9727C31.5517 16.3981 32.1292 15.7812 32.6087 15.3723C32.8852 15.1361 32.9622 15.1643 33.1967 14.8788C32.3427 13.3912 29.6197 11.826 26.8687 12.5698C25.8187 12.8553 24.4327 13.6943 23.3652 13.5004C22.1437 13.2784 21.3772 12.524 19.7742 12.4746C16.9952 12.3865 15.1122 14.2407 14.2442 16.0315C11.3742 21.9538 16.4317 31.0911 19.5607 31.6234C20.8417 31.842 21.9792 30.9571 23.1517 30.728C26.6062 30.0512 28.7552 34.4153 32.4267 28.1264C32.9272 27.2663 33.6167 25.9655 33.8477 24.9538H33.8547Z" fill="white"/>
    <path fill-rule="evenodd" clip-rule="evenodd" d="M23.6522 12.0905C26.6412 12.2385 28.7762 9.32321 28.6677 6.27393C26.0602 6.41141 23.2392 9.1399 23.6522 12.0905Z" fill="white"/>
    <path d="M44.2427 11.6321L45.0442 11.4276C45.1037 11.7378 45.2682 12.0481 45.5307 12.3583C45.7967 12.6685 46.1467 12.8236 46.5842 12.8236C47.0287 12.8236 47.3787 12.7073 47.6377 12.4781C47.8932 12.249 48.0227 11.9705 48.0227 11.6427C48.0227 11.2901 47.8862 11.0081 47.6167 10.8001C47.3472 10.5922 46.9797 10.4864 46.5142 10.4864H46.1117V9.74259C46.4967 9.74259 46.7907 9.72144 46.9972 9.67561C47.2002 9.62979 47.3822 9.51698 47.5397 9.33014C47.6972 9.14684 47.7742 8.93532 47.7742 8.69914C47.7742 8.42065 47.6692 8.17741 47.4522 7.97295C47.2387 7.76849 46.9482 7.66273 46.5842 7.66273C46.2657 7.66273 45.9927 7.74381 45.7652 7.90597C45.5412 8.06813 45.3837 8.28317 45.2962 8.55108C45.2087 8.81899 45.1667 9.01993 45.1667 9.15036L44.3582 8.96353C44.5577 7.60281 45.2997 6.92245 46.5877 6.92245C47.2072 6.92245 47.7007 7.09871 48.0612 7.44417C48.4252 7.79317 48.6072 8.19856 48.6072 8.66389C48.6072 9.25964 48.3272 9.72497 47.7672 10.0528C48.0927 10.1445 48.3622 10.3278 48.5827 10.6063C48.7997 10.8847 48.9117 11.2196 48.9117 11.6074C48.9117 12.1609 48.6982 12.6191 48.2747 12.9928C47.8512 13.363 47.2877 13.5498 46.5912 13.5498C45.3872 13.5498 44.6067 12.9117 44.2427 11.6321ZM52.8737 12.8589C52.5832 13.1091 52.3032 13.2819 52.0337 13.3841C51.7642 13.4863 51.4772 13.5392 51.1692 13.5392C50.6617 13.5392 50.2732 13.4158 50.0002 13.1655C49.7272 12.9188 49.5907 12.6015 49.5907 12.2137C49.5907 11.9881 49.6432 11.7801 49.7447 11.5898C49.8497 11.403 49.9827 11.2514 50.1507 11.1386C50.3187 11.0258 50.5042 10.9376 50.7142 10.8812C50.8682 10.8424 51.0992 10.8037 51.4107 10.7649C52.0407 10.6909 52.5097 10.5992 52.8072 10.4935C52.8107 10.3877 52.8107 10.3172 52.8107 10.289C52.8107 9.9682 52.7372 9.74259 52.5867 9.61216C52.3872 9.4359 52.0897 9.34777 51.6942 9.34777C51.3267 9.34777 51.0537 9.41475 50.8787 9.54166C50.7037 9.67209 50.5742 9.90122 50.4902 10.2326L49.7272 10.1268C49.7972 9.79547 49.9092 9.53108 50.0702 9.32662C50.2312 9.12216 50.4622 8.96705 50.7632 8.85777C51.0642 8.74849 51.4142 8.69209 51.8132 8.69209C52.2087 8.69209 52.5272 8.73791 52.7757 8.83309C53.0207 8.92827 53.2027 9.04461 53.3182 9.18561C53.4337 9.32662 53.5142 9.5064 53.5632 9.72144C53.5877 9.8554 53.6017 10.0986 53.6017 10.4441V11.4876C53.6017 12.2173 53.6192 12.6791 53.6507 12.873C53.6822 13.0668 53.7487 13.2537 53.8432 13.4335H53.0242C52.9472 13.2678 52.8947 13.0739 52.8737 12.8518V12.8589ZM52.8107 11.1139C52.5272 11.2302 52.1002 11.3289 51.5297 11.41C51.2077 11.4558 50.9802 11.5087 50.8437 11.5651C50.7107 11.625 50.6092 11.7096 50.5357 11.8189C50.4622 11.9317 50.4272 12.0551 50.4272 12.1926C50.4272 12.4006 50.5042 12.5733 50.6652 12.7143C50.8227 12.8518 51.0537 12.9223 51.3582 12.9223C51.6592 12.9223 51.9287 12.8553 52.1632 12.7249C52.3977 12.5945 52.5692 12.4147 52.6812 12.1855C52.7652 12.0093 52.8072 11.7484 52.8072 11.403L52.8107 11.1174V11.1139ZM57.4587 8.79432V9.44648H55.5827V13.4405H54.7987V8.79432H57.4587ZM58.0432 15.2242V8.79432H58.7537V9.40417C58.9217 9.16799 59.1107 8.99173 59.3242 8.87187C59.5342 8.75554 59.7897 8.69561 60.0907 8.69561C60.4862 8.69561 60.8327 8.79784 61.1337 9.0023C61.4347 9.20676 61.6622 9.4923 61.8162 9.86245C61.9702 10.2326 62.0472 10.6415 62.0472 11.0822C62.0472 11.5545 61.9632 11.9811 61.7952 12.3618C61.6272 12.7425 61.3787 13.0316 61.0567 13.236C60.7347 13.437 60.3952 13.5392 60.0417 13.5392C59.7792 13.5392 59.5482 13.4828 59.3417 13.3735C59.1352 13.2642 58.9637 13.1232 58.8307 12.954V15.2207H58.0467L58.0432 15.2242ZM58.7537 11.1456C58.7537 11.7414 58.8727 12.182 59.1107 12.4676C59.3522 12.7531 59.6427 12.8976 59.9822 12.8976C60.3287 12.8976 60.6262 12.7496 60.8712 12.4535C61.1197 12.1573 61.2422 11.7026 61.2422 11.0822C61.2422 10.4899 61.1232 10.0493 60.8817 9.75669C60.6402 9.4641 60.3532 9.31604 60.0172 9.31604C59.6847 9.31604 59.3907 9.47115 59.1387 9.78489C58.8832 10.0986 58.7537 10.5534 58.7537 11.1491V11.1456ZM62.8522 15.2278L62.7647 14.4981C62.9362 14.5439 63.0832 14.5686 63.2127 14.5686C63.3877 14.5686 63.5277 14.5404 63.6292 14.4804C63.7342 14.4205 63.8217 14.3394 63.8882 14.2372C63.9372 14.1596 64.0177 13.9622 64.1262 13.6485C64.1402 13.6062 64.1647 13.5427 64.1962 13.4546L62.4462 8.79432H63.2827L64.2452 11.477C64.3712 11.8154 64.4832 12.175 64.5812 12.5486C64.6722 12.1961 64.7772 11.8471 64.9032 11.5017L65.8867 8.79079H66.6672L64.9242 13.5181C64.7352 14.0257 64.5882 14.3747 64.4832 14.5686C64.3432 14.8259 64.1822 15.0163 64.0037 15.1361C63.8217 15.256 63.6082 15.3159 63.3597 15.3159C63.2092 15.3159 63.0412 15.2842 62.8557 15.2207L62.8522 15.2278ZM68.3542 11.336V10.7191C68.6832 10.7155 68.9072 10.7014 69.0262 10.6803C69.1452 10.6556 69.2607 10.5886 69.3657 10.4723C69.4707 10.356 69.5267 10.2114 69.5267 10.0352C69.5267 9.82367 69.4567 9.65446 69.3167 9.52755C69.1767 9.40065 68.9947 9.3372 68.7707 9.3372C68.3297 9.3372 68.0217 9.59806 67.8467 10.1163L67.1012 9.98935C67.3322 9.12216 67.8922 8.69209 68.7777 8.69209C69.2712 8.69209 69.6562 8.82604 69.9362 9.09748C70.2162 9.36892 70.3562 9.68971 70.3562 10.0634C70.3562 10.4406 70.1742 10.7437 69.8102 10.9658C70.0412 11.0927 70.2162 11.2514 70.3317 11.4453C70.4472 11.6391 70.5067 11.8683 70.5067 12.1362C70.5067 12.5522 70.3562 12.8906 70.0552 13.1479C69.7542 13.4088 69.3307 13.5357 68.7882 13.5357C67.7347 13.5357 67.1257 13.0668 66.9577 12.1291L67.6962 11.967C67.7627 12.2631 67.8992 12.4922 68.1022 12.6544C68.3052 12.8165 68.5397 12.8976 68.8022 12.8976C69.0647 12.8976 69.2852 12.8236 69.4602 12.672C69.6352 12.524 69.7227 12.3301 69.7227 12.0974C69.7227 11.9176 69.6667 11.759 69.5582 11.625C69.4497 11.4911 69.3307 11.4065 69.2082 11.3747C69.0822 11.3395 68.8582 11.3254 68.5327 11.3254C68.5047 11.3254 68.4452 11.3254 68.3542 11.3289V11.336ZM71.4062 8.79432H72.1902V12.3371L74.3637 8.79432H75.2037V13.4405H74.4197V9.91885L72.2497 13.4405H71.4062V8.79432ZM79.6977 8.79432V9.44648H78.2207V13.4405H77.4367V9.44648H75.9597V8.79432H79.6977ZM83.4917 11.9388L84.3002 12.0445C84.1742 12.5169 83.9397 12.8871 83.5932 13.1479C83.2502 13.4088 82.8092 13.5392 82.2772 13.5392C81.6052 13.5392 81.0697 13.3312 80.6777 12.9117C80.2822 12.4958 80.0862 11.9106 80.0862 11.1562C80.0862 10.3771 80.2857 9.77079 80.6847 9.34072C81.0837 8.91065 81.6017 8.69561 82.2352 8.69561C82.8512 8.69561 83.3517 8.90712 83.7437 9.32662C84.1322 9.74964 84.3282 10.3419 84.3282 11.1068C84.3282 11.1527 84.3282 11.2232 84.3247 11.3148H80.8877C80.9157 11.8224 81.0592 12.2137 81.3182 12.4852C81.5737 12.7566 81.8957 12.8906 82.2807 12.8906C82.5677 12.8906 82.8127 12.813 83.0122 12.6614C83.2152 12.5099 83.3762 12.2666 83.4952 11.9317L83.4917 11.9388ZM80.9297 10.6768H83.4987C83.4637 10.2855 83.3657 9.99288 83.2047 9.79899C82.9562 9.49583 82.6342 9.34425 82.2387 9.34425C81.8817 9.34425 81.5807 9.4641 81.3357 9.70734C81.0942 9.95058 80.9577 10.2714 80.9297 10.6803V10.6768ZM87.7582 8.79784H89.5572C89.9982 8.79784 90.3272 8.83662 90.5442 8.91065C90.7577 8.98468 90.9432 9.12216 91.0972 9.31957C91.2512 9.5205 91.3282 9.75669 91.3282 10.0352C91.3282 10.2573 91.2827 10.4512 91.1917 10.6168C91.1007 10.7825 90.9642 10.92 90.7787 11.0328C90.9957 11.1068 91.1742 11.2408 91.3177 11.4417C91.4612 11.6391 91.5312 11.8788 91.5312 12.1503C91.5032 12.5909 91.3457 12.9188 91.0622 13.1303C90.7787 13.3453 90.3657 13.4511 89.8267 13.4511H87.7512V8.80489L87.7582 8.79784ZM88.5422 10.7578H89.3717C89.7007 10.7578 89.9317 10.7402 90.0542 10.705C90.1802 10.6697 90.2887 10.5992 90.3867 10.4899C90.4847 10.3842 90.5337 10.2573 90.5337 10.1057C90.5337 9.85892 90.4462 9.68971 90.2782 9.59101C90.1067 9.4923 89.8127 9.44648 89.3997 9.44648H88.5457V10.7543L88.5422 10.7578ZM88.5422 12.7989H89.5677C90.0087 12.7989 90.3132 12.746 90.4777 12.6438C90.6422 12.5381 90.7297 12.3618 90.7367 12.108C90.7367 11.9599 90.6877 11.8224 90.5932 11.6955C90.4952 11.5686 90.3727 11.4876 90.2187 11.4558C90.0647 11.4206 89.8197 11.4065 89.4837 11.4065H88.5387V12.8024L88.5422 12.7989Z" fill="white"/>
</svg>
