<svg width="135" height="41" viewBox="0 0 135 41" fill="none" xmlns="http://www.w3.org/2000/svg">
    <path fill-rule="evenodd" clip-rule="evenodd" d="M0.758789 6.91021V34.0649C0.758789 37.6188 4.10129 40.7915 7.05529 40.7915H127.812C128.656 40.7915 129.723 40.3922 130.325 40.0757C131.155 39.6404 131.547 39.2987 132.166 38.6656C133.139 37.6692 134.109 36.0037 134.109 34.0649V6.91021C134.109 3.35625 130.766 0.183594 127.812 0.183594H7.05529C6.21179 0.183594 5.14429 0.582874 4.54229 0.899421C3.71279 1.33467 3.32079 1.6764 2.70129 2.30949C1.72829 3.3059 0.758789 4.97136 0.758789 6.91021Z" fill="#434343"/>
    <g clip-path="url(#clip0_1131_18157)">
        <path fill-rule="evenodd" clip-rule="evenodd" d="M27.1936 34.7057C21.805 34.7057 19.1107 34.7057 17.4367 33.0517C15.7627 31.3977 15.7627 28.7356 15.7627 23.4115L15.7627 22.4703C15.7627 17.1462 15.7627 14.4842 17.4367 12.8302C19.1107 11.1763 21.805 11.1763 27.1936 11.1763H27.1936L28.1462 11.1763C33.5348 11.1763 36.2291 11.1763 37.9031 12.8302C39.5771 14.4841 39.5771 17.1462 39.5771 22.4703V23.4115C39.5771 28.7356 39.5771 31.3977 37.9031 33.0517C36.2291 34.7057 33.5348 34.7057 28.1462 34.7057H27.1936Z" fill="#2B71F6"/>
        <path d="M29.5339 25.6767C28.8923 25.5183 28.4424 24.9513 28.4424 24.3009V16.6383C28.4424 15.8996 29.1489 15.3578 29.8777 15.5377L34.4928 16.6767C35.1345 16.8351 35.5844 17.4022 35.5844 18.0526V25.7151C35.5844 26.4539 34.8778 26.9957 34.1491 26.8158L29.5339 25.6767Z" fill="white"/>
        <path d="M20.8474 29.205C20.2057 29.0466 19.7559 28.4796 19.7559 27.8292V20.1666C19.7559 19.4279 20.4624 18.8861 21.1912 19.066L25.8063 20.205C26.4479 20.3634 26.8978 20.9305 26.8978 21.5809V29.2434C26.8978 29.9822 26.1913 30.524 25.4625 30.3441L20.8474 29.205Z" fill="white"/>
        <path d="M25.1901 27.4409C24.5485 27.2825 24.0986 26.7154 24.0986 26.065V18.4025C24.0986 17.6637 24.8052 17.1219 25.5339 17.3018L30.1491 18.4409C30.7907 18.5993 31.2406 19.1663 31.2406 19.8168V27.4793C31.2406 28.218 30.5341 28.7598 29.8053 28.58L25.1901 27.4409Z" fill="white"/>
        <path d="M28.2107 28.1885C28.0086 28.1377 27.8648 27.9611 27.8578 27.7552L27.657 21.9033C27.5989 21.1288 27.017 20.5129 26.409 20.3315C26.3748 20.3213 26.3384 20.335 26.3181 20.364C26.2976 20.3935 26.3055 20.4343 26.3342 20.4563C26.4844 20.5711 26.8976 20.9459 26.8976 21.5923L26.8964 27.8595L28.2107 28.1885Z" fill="#2B71F6"/>
        <path d="M32.5555 26.4226C32.3536 26.3727 32.2096 26.1966 32.2025 25.9911L32.0017 20.1397C31.9436 19.3652 31.3618 18.7492 30.7537 18.5678C30.7196 18.5576 30.6831 18.5713 30.6629 18.6004C30.6423 18.6298 30.6503 18.6707 30.6789 18.6926C30.8291 18.8074 31.2424 19.1822 31.2424 19.8286L31.2411 26.0979L32.5555 26.4226Z" fill="#2B71F6"/>
        <path d="M53.2866 24.6937C55.09 24.2395 56.275 22.8767 56.275 21.0932C56.275 18.8892 54.4889 17.3413 51.9811 17.3413H47.5156V29.2028H49.5767V24.8452H51.0366L54.2313 29.2028H56.6528L53.2866 24.6937ZM51.9811 19.192C53.2692 19.192 54.1626 19.966 54.1626 21.0932C54.1626 22.2205 53.2692 22.9944 51.9811 22.9944H49.5767V19.192H51.9811Z" fill="white"/>
        <path d="M61.2916 29.3712C62.3735 29.3712 63.3696 28.816 63.9366 27.8907L64.3314 29.203H65.8087V20.4541H63.8335V25.5184C63.8335 26.7634 62.9919 27.6383 61.8412 27.6383C60.7076 27.6383 59.9174 26.7634 59.9174 25.5184V20.4541H57.9424V25.7371C57.9424 27.8402 59.3851 29.3712 61.2916 29.3712Z" fill="white"/>
        <path d="M72.1111 29.3713C74.3954 29.3713 76.2849 28.0926 76.2849 25.9727C76.2849 23.6004 74.3096 22.9106 72.6094 22.3386C71.2868 21.9011 70.1362 21.4973 70.1362 20.4374C70.1362 19.512 71.0119 19.0241 72.0424 19.0241C73.1246 19.0241 73.8975 19.5793 74.327 20.5215L76.2849 20.2018C75.6665 18.3511 74.1034 17.1733 71.9739 17.1733C69.7754 17.1733 68.0234 18.4184 68.0234 20.5383C68.0234 22.9274 69.9987 23.5836 71.699 24.1388C73.0045 24.5594 74.1722 24.9632 74.1722 26.04C74.1722 26.9822 73.2964 27.5206 72.1285 27.5206C70.7886 27.5206 70.0674 26.8981 69.432 25.7708L67.4395 26.1073C68.0234 28.1095 69.8785 29.3713 72.1111 29.3713Z" fill="white"/>
        <path d="M81.6577 27.5203C80.9879 27.5203 80.6615 27.2006 80.6615 26.5445V22.1364H83.3236V20.4539H80.6615V17.9302H79.1845L78.6863 20.4539H77.2266V22.1364H78.6863V26.5445C78.6863 28.2606 79.6997 29.2028 81.6577 29.2028H83.3236L83.4954 27.5203H81.6577Z" fill="white"/>
        <path d="M89.141 29.371C91.9406 29.371 93.9155 27.4867 93.9155 24.8283C93.9155 22.17 91.9406 20.2856 89.141 20.2856C86.3415 20.2856 84.3662 22.17 84.3662 24.8283C84.3662 27.4867 86.3415 29.371 89.141 29.371ZM89.141 27.6044C87.5265 27.6044 86.4272 26.4772 86.4272 24.8283C86.4272 23.1795 87.5265 22.0522 89.141 22.0522C90.7555 22.0522 91.8545 23.1795 91.8545 24.8283C91.8545 26.4772 90.7555 27.6044 89.141 27.6044Z" fill="white"/>
        <path d="M97.6078 29.203V24.0378C97.6078 22.9274 98.1574 22.3048 99.3598 22.3048H100.493L100.322 20.4541H99.9438C98.8959 20.4541 98.0887 20.7401 97.4876 21.716L97.1099 20.4541H95.6328V29.203H97.6078Z" fill="white"/>
        <path d="M110.211 24.7274C110.211 22.2037 108.288 20.2856 105.574 20.2856C102.86 20.2856 100.937 22.1868 100.937 24.8283C100.937 27.4698 102.86 29.371 105.574 29.371C107.429 29.371 109.181 28.513 109.851 26.8473L107.996 26.5445C107.566 27.167 106.742 27.6044 105.694 27.6044C104.183 27.6044 103.187 26.6959 102.998 25.3499H110.177C110.194 25.1648 110.211 24.9629 110.211 24.7274ZM105.574 21.9681C106.811 21.9681 107.738 22.7421 108.064 23.8357H103.118C103.444 22.7084 104.372 21.9681 105.574 21.9681Z" fill="white"/>
    </g>
    <path d="M47.5156 11.5704L48.3171 11.3618C48.3766 11.6783 48.5411 11.9949 48.8036 12.3114C49.0696 12.628 49.4196 12.7862 49.8571 12.7862C50.3016 12.7862 50.6516 12.6675 50.9106 12.4337C51.1661 12.1999 51.2956 11.9157 51.2956 11.5812C51.2956 11.2215 51.1591 10.9337 50.8896 10.7215C50.6201 10.5093 50.2526 10.4013 49.7871 10.4013H49.3846V9.64235C49.7696 9.64235 50.0636 9.62076 50.2701 9.574C50.4731 9.52724 50.6551 9.41213 50.8126 9.22148C50.9701 9.03443 51.0471 8.81861 51.0471 8.5776C51.0471 8.29343 50.9421 8.04522 50.7251 7.83659C50.5116 7.62796 50.2211 7.52004 49.8571 7.52004C49.5386 7.52004 49.2656 7.60278 49.0381 7.76825C48.8141 7.93371 48.6566 8.15314 48.5691 8.42652C48.4816 8.6999 48.4396 8.90494 48.4396 9.03803L47.6311 8.84738C47.8306 7.45889 48.5726 6.76465 49.8606 6.76465C50.4801 6.76465 50.9736 6.9445 51.3341 7.29702C51.6981 7.65314 51.8801 8.06681 51.8801 8.54163C51.8801 9.14954 51.6001 9.62436 51.0401 9.95889C51.3656 10.0524 51.6351 10.2395 51.8556 10.5236C52.0726 10.8078 52.1846 11.1495 52.1846 11.5452C52.1846 12.11 51.9711 12.5776 51.5476 12.9589C51.1241 13.3366 50.5606 13.5272 49.8641 13.5272C48.6601 13.5272 47.8796 12.8762 47.5156 11.5704ZM56.1466 12.8222C55.8561 13.0776 55.5761 13.2539 55.3066 13.3582C55.0371 13.4625 54.7501 13.5164 54.4421 13.5164C53.9346 13.5164 53.5461 13.3905 53.2731 13.1352C53.0001 12.8834 52.8636 12.5596 52.8636 12.1639C52.8636 11.9337 52.9161 11.7215 53.0176 11.5272C53.1226 11.3366 53.2556 11.1819 53.4236 11.0668C53.5916 10.9517 53.7771 10.8618 53.9871 10.8042C54.1411 10.7646 54.3721 10.7251 54.6836 10.6855C55.3136 10.61 55.7826 10.5164 56.0801 10.4085C56.0836 10.3006 56.0836 10.2287 56.0836 10.1999C56.0836 9.87256 56.0101 9.64235 55.8596 9.50925C55.6601 9.3294 55.3626 9.23947 54.9671 9.23947C54.5996 9.23947 54.3266 9.30781 54.1516 9.43731C53.9766 9.5704 53.8471 9.80422 53.7631 10.1423L53.0001 10.0344C53.0701 9.6963 53.1821 9.42652 53.3431 9.21789C53.5041 9.00925 53.7351 8.85098 54.0361 8.73947C54.3371 8.62796 54.6871 8.5704 55.0861 8.5704C55.4816 8.5704 55.8001 8.61717 56.0486 8.71429C56.2936 8.81141 56.4756 8.93012 56.5911 9.074C56.7066 9.21789 56.7871 9.40134 56.8361 9.62076C56.8606 9.75745 56.8746 10.0057 56.8746 10.3582V11.4229C56.8746 12.1675 56.8921 12.6387 56.9236 12.8366C56.9551 13.0344 57.0216 13.2251 57.1161 13.4085H56.2971C56.2201 13.2395 56.1676 13.0416 56.1466 12.815V12.8222ZM56.0836 11.0416C55.8001 11.1603 55.3731 11.2611 54.8026 11.3438C54.4806 11.3905 54.2531 11.4445 54.1166 11.5021C53.9836 11.5632 53.8821 11.6495 53.8086 11.7611C53.7351 11.8762 53.7001 12.0021 53.7001 12.1423C53.7001 12.3546 53.7771 12.5308 53.9381 12.6747C54.0956 12.815 54.3266 12.887 54.6311 12.887C54.9321 12.887 55.2016 12.8186 55.4361 12.6855C55.6706 12.5524 55.8421 12.369 55.9541 12.1352C56.0381 11.9553 56.0801 11.6891 56.0801 11.3366L56.0836 11.0452V11.0416ZM60.7316 8.67472V9.34019H58.8556V13.4157H58.0716V8.67472H60.7316ZM61.3161 15.2359V8.67472H62.0266V9.29702C62.1946 9.05602 62.3836 8.87616 62.5971 8.75386C62.8071 8.63515 63.0626 8.574 63.3636 8.574C63.7591 8.574 64.1056 8.67832 64.4066 8.88695C64.7076 9.09558 64.9351 9.38695 65.0891 9.76465C65.2431 10.1423 65.3201 10.5596 65.3201 11.0093C65.3201 11.4913 65.2361 11.9265 65.0681 12.315C64.9001 12.7035 64.6516 12.9985 64.3296 13.2071C64.0076 13.4121 63.6681 13.5164 63.3146 13.5164C63.0521 13.5164 62.8211 13.4589 62.6146 13.3474C62.4081 13.2359 62.2366 13.092 62.1036 12.9193V15.2323H61.3196L61.3161 15.2359ZM62.0266 11.074C62.0266 11.6819 62.1456 12.1316 62.3836 12.4229C62.6251 12.7143 62.9156 12.8618 63.2551 12.8618C63.6016 12.8618 63.8991 12.7107 64.1441 12.4085C64.3926 12.1064 64.5151 11.6423 64.5151 11.0093C64.5151 10.4049 64.3961 9.9553 64.1546 9.65673C63.9131 9.35817 63.6261 9.20709 63.2901 9.20709C62.9576 9.20709 62.6636 9.36537 62.4116 9.68551C62.1561 10.0057 62.0266 10.4697 62.0266 11.0776V11.074ZM66.1251 15.2395L66.0376 14.4949C66.2091 14.5416 66.3561 14.5668 66.4856 14.5668C66.6606 14.5668 66.8006 14.538 66.9021 14.4769C67.0071 14.4157 67.0946 14.333 67.1611 14.2287C67.2101 14.1495 67.2906 13.9481 67.3991 13.628C67.4131 13.5848 67.4376 13.52 67.4691 13.4301L65.7191 8.67472H66.5556L67.5181 11.4121C67.6441 11.7575 67.7561 12.1244 67.8541 12.5057C67.9451 12.1459 68.0501 11.7898 68.1761 11.4373L69.1596 8.67112H69.9401L68.1971 13.4949C68.0081 14.0128 67.8611 14.369 67.7561 14.5668C67.6161 14.8294 67.4551 15.0236 67.2766 15.1459C67.0946 15.2682 66.8811 15.3294 66.6326 15.3294C66.4821 15.3294 66.3141 15.297 66.1286 15.2323L66.1251 15.2395ZM71.6271 11.2682V10.6387C71.9561 10.6352 72.1801 10.6208 72.2991 10.5992C72.4181 10.574 72.5336 10.5057 72.6386 10.387C72.7436 10.2682 72.7996 10.1208 72.7996 9.94091C72.7996 9.72508 72.7296 9.55242 72.5896 9.42292C72.4496 9.29343 72.2676 9.22868 72.0436 9.22868C71.6026 9.22868 71.2946 9.49486 71.1196 10.0236L70.3741 9.89414C70.6051 9.00925 71.1651 8.5704 72.0506 8.5704C72.5441 8.5704 72.9291 8.70709 73.2091 8.98407C73.4891 9.26105 73.6291 9.58839 73.6291 9.96968C73.6291 10.3546 73.4471 10.6639 73.0831 10.8905C73.3141 11.02 73.4891 11.1819 73.6046 11.3798C73.7201 11.5776 73.7796 11.8114 73.7796 12.0848C73.7796 12.5093 73.6291 12.8546 73.3281 13.1172C73.0271 13.3834 72.6036 13.5128 72.0611 13.5128C71.0076 13.5128 70.3986 13.0344 70.2306 12.0776L70.9691 11.9121C71.0356 12.2143 71.1721 12.4481 71.3751 12.6136C71.5781 12.779 71.8126 12.8618 72.0751 12.8618C72.3376 12.8618 72.5581 12.7862 72.7331 12.6316C72.9081 12.4805 72.9956 12.2826 72.9956 12.0452C72.9956 11.8618 72.9396 11.6999 72.8311 11.5632C72.7226 11.4265 72.6036 11.3402 72.4811 11.3078C72.3551 11.2718 72.1311 11.2575 71.8056 11.2575C71.7776 11.2575 71.7181 11.2575 71.6271 11.2611V11.2682ZM74.6791 8.67472H75.4631V12.2898L77.6366 8.67472H78.4766V13.4157H77.6926V9.8222L75.5226 13.4157H74.6791V8.67472ZM82.9706 8.67472V9.34019H81.4936V13.4157H80.7096V9.34019H79.2326V8.67472H82.9706ZM86.7646 11.8834L87.5731 11.9913C87.4471 12.4733 87.2126 12.851 86.8661 13.1172C86.5231 13.3834 86.0821 13.5164 85.5501 13.5164C84.8781 13.5164 84.3426 13.3042 83.9506 12.8762C83.5551 12.4517 83.3591 11.8546 83.3591 11.0848C83.3591 10.2898 83.5586 9.67112 83.9576 9.23227C84.3566 8.79343 84.8746 8.574 85.5081 8.574C86.1241 8.574 86.6246 8.78983 87.0166 9.21789C87.4051 9.64954 87.6011 10.2539 87.6011 11.0344C87.6011 11.0812 87.6011 11.1531 87.5976 11.2467H84.1606C84.1886 11.7646 84.3321 12.1639 84.5911 12.4409C84.8466 12.7179 85.1686 12.8546 85.5536 12.8546C85.8406 12.8546 86.0856 12.7754 86.2851 12.6208C86.4881 12.4661 86.6491 12.2179 86.7681 11.8762L86.7646 11.8834ZM84.2026 10.5956H86.7716C86.7366 10.1963 86.6386 9.89774 86.4776 9.6999C86.2291 9.39055 85.9071 9.23587 85.5116 9.23587C85.1546 9.23587 84.8536 9.35817 84.6086 9.60637C84.3671 9.85458 84.2306 10.1819 84.2026 10.5992V10.5956ZM91.0311 8.67832H92.8301C93.2711 8.67832 93.6001 8.71789 93.8171 8.79343C94.0306 8.86896 94.2161 9.00925 94.3701 9.21069C94.5241 9.41573 94.6011 9.65673 94.6011 9.94091C94.6011 10.1675 94.5556 10.3654 94.4646 10.5344C94.3736 10.7035 94.2371 10.8438 94.0516 10.9589C94.2686 11.0344 94.4471 11.1711 94.5906 11.3762C94.7341 11.5776 94.8041 11.8222 94.8041 12.0992C94.7761 12.5488 94.6186 12.8834 94.3351 13.0992C94.0516 13.3186 93.6386 13.4265 93.0996 13.4265H91.0241V8.68551L91.0311 8.67832ZM91.8151 10.6783H92.6446C92.9736 10.6783 93.2046 10.6603 93.3271 10.6244C93.4531 10.5884 93.5616 10.5164 93.6596 10.4049C93.7576 10.297 93.8066 10.1675 93.8066 10.0128C93.8066 9.76105 93.7191 9.58839 93.5511 9.48767C93.3796 9.38695 93.0856 9.34019 92.6726 9.34019H91.8186V10.6747L91.8151 10.6783ZM91.8151 12.7611H92.8406C93.2816 12.7611 93.5861 12.7071 93.7506 12.6028C93.9151 12.4949 94.0026 12.315 94.0096 12.056C94.0096 11.9049 93.9606 11.7646 93.8661 11.6352C93.7681 11.5057 93.6456 11.4229 93.4916 11.3905C93.3376 11.3546 93.0926 11.3402 92.7566 11.3402H91.8116V12.7646L91.8151 12.7611Z" fill="white"/>
    <defs>
        <clipPath id="clip0_1131_18157">
            <rect width="95.2577" height="23.5294" fill="white" transform="translate(15.7627 11.1763)"/>
        </clipPath>
    </defs>
</svg>
