<svg width="20" height="20" viewBox="0 0 20 20" fill="none" xmlns="http://www.w3.org/2000/svg">
    <path fill-rule="evenodd" clip-rule="evenodd"
          d="M4.11933 1.17995C4.11933 0.638712 3.68057 0.199951 3.13933 0.199951C2.59809 0.199951 2.15933 0.638712 2.15933 1.17995V2.32715C1.01738 2.73071 0.199219 3.81976 0.199219 5.0999C0.199219 6.38003 1.01738 7.46908 2.15933 7.87264V18.82C2.15933 19.3612 2.59809 19.8 3.13933 19.8C3.68057 19.8 4.11933 19.3612 4.11933 18.82V7.87256C5.26116 7.46893 6.07922 6.37995 6.07922 5.0999C6.07922 3.81984 5.26116 2.73086 4.11933 2.32723V1.17995ZM3.13177 4.11992C3.13429 4.11994 3.13681 4.11995 3.13933 4.11995C3.14182 4.11995 3.1443 4.11994 3.14678 4.11992C3.68454 4.12399 4.11922 4.56118 4.11922 5.0999C4.11922 5.64113 3.68046 6.0799 3.13922 6.0799C2.59798 6.0799 2.15922 5.64113 2.15922 5.0999C2.15922 4.56114 2.59396 4.12393 3.13177 4.11992ZM10.9793 1.17995C10.9793 0.638712 10.5406 0.199951 9.99933 0.199951C9.45809 0.199951 9.01933 0.638712 9.01933 1.17995V12.127C7.87721 12.5305 7.05888 13.6196 7.05888 14.8999C7.05888 16.1802 7.87721 17.2693 9.01933 17.6728V18.82C9.01933 19.3612 9.45809 19.8 9.99933 19.8C10.5406 19.8 10.9793 19.3612 10.9793 18.82V17.6724C12.121 17.2687 12.9389 16.1798 12.9389 14.8999C12.9389 13.62 12.121 12.5311 10.9793 12.1273V1.17995ZM9.01888 14.8999C9.01888 14.3611 9.45372 13.9238 9.99161 13.9199L9.99933 13.92L10.0066 13.9199C10.5443 13.9241 10.9789 14.3612 10.9789 14.8999C10.9789 15.4411 10.5401 15.8799 9.99888 15.8799C9.45764 15.8799 9.01888 15.4411 9.01888 14.8999ZM17.8393 1.17995C17.8393 0.638712 17.4006 0.199951 16.8593 0.199951C16.3181 0.199951 15.8793 0.638712 15.8793 1.17995V4.28705C14.7373 4.69059 13.9191 5.77966 13.9191 7.05984C13.9191 8.34002 14.7373 9.42909 15.8793 9.83263V18.82C15.8793 19.3612 16.3181 19.8 16.8593 19.8C17.4006 19.8 17.8393 19.3612 17.8393 18.82V9.83247C18.9811 9.4288 19.7991 8.33985 19.7991 7.05984C19.7991 5.77983 18.9811 4.69087 17.8393 4.28721V1.17995ZM16.8488 6.0799L16.8593 6.07995L16.8696 6.0799C17.406 6.08553 17.8391 6.5221 17.8391 7.05984C17.8391 7.60108 17.4003 8.03984 16.8591 8.03984C16.3179 8.03984 15.8791 7.60108 15.8791 7.05984C15.8791 6.52203 16.3123 6.08541 16.8488 6.0799Z"
          fill="currentColor"/>
</svg>
