<svg width="165" height="42" viewBox="0 0 165 42" fill="none" xmlns="http://www.w3.org/2000/svg">
    <path fill-rule="evenodd" clip-rule="evenodd" d="M17.6606 41.8892C17.7117 39.2111 18.504 31.8655 18.9129 28.6773C19.0663 27.4276 19.0407 26.2543 18.3507 25.1831C18.1717 24.928 18.2229 24.9535 17.9673 24.8515C17.5072 25.4892 17.3028 26.2033 15.7949 25.6422C15.846 25.2851 16.076 25.0046 16.3316 24.775C16.7149 24.4179 17.0216 24.5199 17.4817 24.4689C17.3283 24.0608 16.5616 23.8058 16.1527 23.6528C14.5425 23.0661 14.5681 23.0916 13.9802 23.4997C14.2103 24.1374 14.9514 24.1374 14.0825 25.2596C13.4435 24.8005 13.4691 24.622 13.4946 23.9333C13.3924 23.9588 12.0634 24.5199 11.8845 24.622C11.5778 25.2341 11.5267 25.6167 10.7599 25.8462C10.1721 25.9993 9.27756 25.9993 8.81752 25.7187C9.12421 24.775 9.78872 23.7293 10.9644 23.9333C11.7822 24.0864 11.5267 24.4179 12.4979 23.8823C12.9324 23.6528 13.3668 23.3467 13.5202 22.8621C13.2902 22.6836 13.0601 22.658 12.7279 22.5815L12.5234 22.9896C12.2934 23.4742 11.5778 23.5507 11.1689 23.2702C11.45 22.7601 11.5778 22.8111 11.8334 22.454C11.4244 22.25 10.6066 22.2245 10.121 22.25C9.68649 23.0151 9.76316 23.0151 8.7664 23.0151C8.81752 22.5815 9.02198 22.4285 9.12421 22.0714C8.53638 22.0204 7.76964 21.7143 7.23292 21.7654C6.90066 23.4742 4.95825 23.5252 4.16596 23.0151C4.75379 21.6888 4.57488 22.1224 5.49497 21.2552C5.31607 21.0767 5.03493 21.0002 4.77935 20.8727C4.47265 20.6941 4.3193 20.5411 4.06372 20.3881C3.47589 20.3881 3.06696 20.4901 2.63248 19.98C2.40245 19.6739 2.09576 19.1638 2.0702 18.7812C4.72823 18.4241 3.70591 19.7759 4.65156 20.235C4.95825 20.3625 5.44386 20.5666 5.75055 20.6176C5.725 20.184 5.46942 18.7302 5.29051 18.4241C4.88158 17.7865 5.52053 17.1234 5.98058 16.7663C6.64508 17.5314 6.67064 18.2711 5.69944 18.7557L5.82723 19.7249C6.28727 19.5464 6.26171 19.2913 6.82399 19.0873C7.41182 19.9545 6.54285 20.082 6.36395 20.5156C6.74732 20.7961 7.64185 20.9492 8.12745 20.9492L7.84631 20.031C8.89419 19.9035 8.94531 20.3625 9.0731 21.1277L10.4021 21.1532C10.351 20.8727 9.45647 20.3625 9.17533 19.4954C7.56517 19.0363 7.41182 17.7865 7.69296 16.2307C8.61305 16.3327 9.86539 16.9448 10.0954 17.914C10.2743 18.7557 9.7376 18.9853 10.121 19.5719C10.3766 19.9545 10.8366 20.4901 11.3222 20.5156C11.3733 19.929 11.3222 19.9545 11.6289 19.4444C12.5745 19.8524 12.0123 20.5411 12.0889 20.8982L14.4658 21.1787L14.2358 20.286C15.2581 20.2605 15.3604 20.6176 15.437 21.4338L17.9673 22.3775C18.044 21.5103 18.1973 21.8164 18.4273 21.3063C19.1941 22.3265 18.734 21.9694 18.4529 22.6836C18.6829 22.9386 19.0152 23.1682 19.3474 23.2192C19.5263 22.505 19.6797 22.2755 19.5519 21.4593C19.4496 20.9492 19.2707 20.286 18.8874 19.98C18.4784 20.286 18.274 20.6686 17.635 20.5921C17.2517 20.5666 16.6638 20.2605 16.4082 20.0055C17.3028 19.2403 17.1494 19.2913 18.2995 19.2658C18.1717 18.8067 17.6606 18.4241 17.2005 18.3221C16.6383 18.2201 16.0504 17.9905 15.5137 17.9395C15.3604 18.1436 15.437 18.016 15.3348 18.3221C15.2837 18.4751 15.2581 18.5517 15.1559 18.7302C14.5681 19.5974 13.3924 19.5464 12.4468 19.4444C12.3956 18.2456 13.418 17.812 13.7758 17.3019C13.5202 17.0978 12.4468 16.5622 12.1145 16.5112C11.7311 17.1234 11.6289 17.1744 10.811 17.1744C10.8622 16.5112 11.0666 16.4602 11.5011 16.1286C11.2711 15.7971 10.2999 15.1339 10.0187 15.0829C9.17533 15.8736 8.58749 15.644 7.69296 15.0319C7.9741 14.4963 8.63861 14.1902 9.252 14.1647C9.22644 13.8331 8.97086 13.6801 8.74084 13.4506C7.89743 13.4761 7.64185 13.5016 7.05401 12.8639C6.74732 12.5324 6.3895 11.7417 6.36395 11.2826C9.68649 11.002 8.38303 12.4048 9.68649 13.4506C9.96763 13.1445 10.121 12.7109 10.6833 12.6344C11.1177 13.5016 10.5555 13.6036 10.0954 14.0117C10.351 14.5983 11.9356 15.644 12.6257 15.7205C12.6001 15.44 12.4723 15.2359 12.3956 14.9809C12.319 14.7003 12.2934 14.3688 12.1912 14.1392C11.1944 13.6801 11.0922 13.017 11.45 11.9712C12.0123 12.2008 12.779 12.4814 12.8046 13.272C12.8301 14.1137 12.0889 14.1647 12.9835 15.4655C13.4435 16.1541 14.0058 16.3072 14.8236 16.5112C15.437 16.6643 16.6383 16.9448 17.2517 16.8938C17.0472 16.4602 16.4082 16.1031 15.9738 15.2615C15.4626 15.338 15.3093 15.8481 14.6447 15.7205C14.2869 15.644 13.6991 15.389 13.4435 15.1084C14.3636 14.3433 14.1591 14.3177 15.3859 14.3943C15.2581 13.9352 14.5681 12.8384 14.2869 12.3028C14.0314 11.7672 12.2423 10.4154 11.5522 10.3644C11.0922 10.3389 9.60981 11.002 8.99642 8.24744C10.8622 8.17092 11.3733 8.09441 11.8334 9.98181L13.5457 10.5429C13.418 9.77777 13.1879 9.59923 13.1879 8.68103C12.6001 8.73204 12.319 8.96159 11.7822 8.50249C11.5011 8.24744 11.0922 7.83935 11.0922 7.43126C12.7534 6.94666 12.3956 7.5843 13.1368 7.71182L13.2135 6.36003C12.8301 6.30902 12.7534 6.28351 12.4468 6.207C11.8845 6.07947 12.1401 6.15599 11.7567 6.28351C11.2966 6.41104 10.9899 5.97745 10.6833 5.82442C11.9356 4.95723 11.6545 5.67138 12.319 5.95194C12.6768 5.97745 12.9579 6.02846 13.2646 5.84992C13.1113 5.49284 13.1368 5.7479 12.7534 5.49284C12.6001 5.36532 12.4468 5.18678 12.3701 4.98273C12.1912 4.60015 12.2423 3.886 12.3956 3.55443C13.1368 3.73297 13.9547 4.21757 13.8013 5.08476C13.7247 5.62037 13.6735 5.33981 13.8269 5.92644L14.6703 5.46734C15.1048 6.18149 14.6703 6.74261 13.878 6.81913L13.9036 8.22193C14.6959 8.17092 15.3348 7.38025 15.6415 6.74261C15.8715 6.25801 15.846 6.30902 15.6926 5.87543C15.2326 4.65116 16.5872 3.86049 17.5328 3.52892C17.8651 3.98802 17.9417 4.90622 17.6606 5.46734C17.3028 6.10498 16.8427 6.2325 16.1782 6.38554L15.6159 7.63531C16.306 7.63531 16.7149 7.55879 17.2772 7.86486C17.0983 8.29845 16.7661 8.75755 16.3571 8.96159C15.7182 9.24215 15.3093 8.85957 14.8492 8.57901C14.5681 8.73204 14.3636 8.96159 14.1336 9.21665C14.108 9.59923 14.2103 10.0073 14.4147 10.2624C14.747 10.0838 14.747 9.82878 15.1815 9.67575C15.437 10.0583 15.3604 10.2369 15.3093 10.696C15.5904 10.5939 15.846 10.3644 16.1015 10.1859C16.3571 10.5174 16.5872 11.1551 16.4338 11.5887C16.2805 12.1498 15.9226 12.2518 15.4115 12.4558C15.5137 12.8639 16.0249 13.6546 16.3571 13.8842C16.3827 13.8842 16.4082 13.8076 16.4082 13.8331C16.4082 13.8331 16.4338 13.7821 16.4338 13.7566C16.4849 13.6801 16.4849 13.6546 16.536 13.5781C16.5872 13.4761 16.6127 13.3995 16.6894 13.323C16.7916 13.221 17.0472 13.0425 17.175 12.966C17.6606 14.0882 17.1494 13.8331 16.7149 14.3688C16.8427 14.7003 17.2261 15.1594 17.5584 15.2615C17.7884 13.9862 17.9417 13.7566 18.8107 12.8129C20.9831 14.7768 19.6797 15.695 18.9385 16.5367C19.1685 17.0468 19.8841 17.914 20.4975 18.016C20.472 17.2509 20.6253 16.8428 21.3921 16.4857C22.031 18.0415 21.3409 17.5059 21.0342 18.3476C21.9799 18.5006 22.261 18.7302 22.8489 17.863C23.36 17.0978 23.3089 16.5877 23.3089 15.6695C22.6955 15.7971 22.5933 16.2562 21.801 15.8991C21.3665 15.695 21.0087 15.1594 20.8042 15.0829C22.1332 14.2412 22.0566 14.5728 23.0789 14.9809C23.0278 14.4198 22.5166 13.17 22.1077 12.8129C21.5965 13.2975 21.5965 13.5016 20.702 13.4761C20.8042 12.7874 21.1109 12.4048 21.8265 12.5069C21.8265 12.1243 21.4176 11.5887 21.0854 11.3591C20.5742 11.5887 20.3442 11.9967 19.6541 11.7417C19.1941 11.5376 18.9385 11.1806 18.5807 10.9C19.0152 10.3899 19.6541 10.3899 20.2675 10.4154C20.2419 10.0583 19.9353 9.4462 19.7819 9.16564C19.2196 8.96159 18.7851 8.9871 18.4273 8.34946C18.044 7.68632 18.1206 7.1507 18.1717 6.38554C18.6829 6.41104 19.4752 6.71711 19.8841 7.07419C20.6764 7.76283 20.1908 8.37497 20.2164 9.06361L20.6509 9.49721C21.0598 9.03811 20.8553 8.83406 21.6732 8.50249C22.0821 9.34417 21.5965 9.4462 21.2132 9.87979C21.4176 10.1348 21.4176 10.1348 21.7754 10.1604L22.8744 8.9871C22.8744 8.57901 22.7211 7.78834 22.5422 7.43126C21.9032 7.5843 22.031 8.22193 20.8809 7.5843C21.3154 6.97216 21.4432 6.99767 22.1077 6.97216C22.0821 6.58958 21.8521 6.25801 21.7243 5.92644C21.3665 5.03375 19.833 5.33981 21.2643 3.22286C21.5198 3.4524 21.8777 3.73297 22.031 4.06454C22.3633 4.67667 22.0566 4.88071 21.8265 5.36532C21.9799 5.77341 22.2099 6.25801 22.6188 6.38554C22.7466 6.18149 22.7722 5.92644 22.8489 5.67138C23.1556 4.88071 22.4399 4.70217 23.8456 4.03903C24.1779 4.77869 24.0245 5.2633 23.2067 5.51835L23.1556 5.92644L23.1044 6.84464C23.4878 6.58958 23.5389 6.2325 24.1268 6.00295C24.3312 6.33453 24.5868 6.87014 24.3568 7.20171C24.229 7.71182 23.8456 7.73733 23.4878 7.96688L23.5389 8.29845C23.9223 8.29845 24.229 7.99238 24.6379 7.89036C24.7402 6.2325 25.8647 5.90093 27.3726 5.90093C27.1426 8.83406 25.3791 7.94137 24.8679 8.11991C24.3568 8.5535 23.9223 8.65553 23.4367 9.19114C22.9767 9.70125 22.5933 10.3644 22.5677 11.053C22.8489 11.2571 22.8744 11.4356 23.2067 11.5121C23.2067 10.8745 23.5645 10.2624 24.2034 10.0838C24.689 11.1296 24.6124 11.5632 23.5389 11.9712C23.59 12.3793 24.0757 12.966 24.2801 13.374C24.4846 13.7566 24.689 14.6238 24.9957 14.8534C25.3791 14.3177 25.3791 13.9862 26.0181 13.4761C25.6347 12.7364 23.6667 12.3538 26.1458 9.52271C26.4781 9.87979 26.8615 10.2624 27.0915 10.7215C27.526 11.5632 27.2704 11.7417 27.1171 12.5324C27.6538 12.4048 28.1649 11.9712 28.6505 11.7162C28.4972 11.1296 27.9605 11.0275 28.5227 10.1859C29.1361 10.5684 29.0083 10.747 29.3662 11.0275C29.7751 10.645 29.4684 10.1348 29.3662 9.4717C28.8294 9.49721 28.7017 9.9053 28.0883 9.54822C27.756 9.34417 27.4749 8.88508 27.296 8.75755C28.625 7.96688 28.625 8.75755 29.2639 8.93609L29.315 7.68632C28.3438 6.94666 28.8294 6.33453 29.2895 5.46734C30.9763 6.51306 29.8262 7.45677 29.724 7.78834C29.6984 8.47699 29.724 9.39519 30.2862 9.85428C30.6696 9.67575 31.0785 9.03811 31.2319 8.63002C30.9763 8.27294 30.6441 8.09441 30.7207 7.55879C30.7974 7.1252 31.1297 6.89565 31.3341 6.56408C31.6408 6.97216 31.7175 7.1252 31.9475 7.45677C32.5865 7.1252 31.9475 6.56408 32.4331 5.97745C32.7398 5.62037 33.4043 5.2888 33.8644 5.31431C34.0177 7.48227 33.0721 6.79362 32.612 7.27823C32.382 7.68632 32.1264 8.5535 31.8453 9.11463C31.5897 9.59923 31.0019 10.3644 30.9252 10.849C31.3597 10.849 31.8453 10.798 32.2031 11.002C32.3053 11.2571 31.7431 11.9202 31.4875 12.0988C30.7719 12.5834 30.4907 12.0478 29.8518 12.0733C29.5962 12.3793 28.8806 13.0425 28.8039 13.3485L29.3917 13.6801C28.7017 14.4198 28.8039 14.2922 27.9094 14.0627L27.2193 14.5728L27.3471 14.6748C27.7304 14.9044 28.1905 14.9044 28.5739 15.2104C28.4205 15.491 27.9605 15.8991 27.6282 16.0011C27.0404 16.1796 26.7592 15.7461 26.2736 15.593C25.8392 16.2562 24.9702 17.4039 24.8424 18.1691C24.9702 18.1691 26.0947 17.8885 26.1714 17.8375C26.9126 17.4549 26.8615 16.1796 29.4939 17.5825C28.4205 18.7302 27.8582 19.5464 26.2481 18.2966C25.6858 18.2966 24.8935 18.6792 24.5613 19.1383C24.7657 19.3678 25.2258 19.4444 25.5069 19.5974C24.8168 20.235 25.1235 20.235 24.1268 20.0565C23.7434 20.5921 23.5134 22.0459 23.4623 22.6325C24.0245 22.454 24.5613 21.9949 25.2513 21.8164C25.1746 21.2807 25.0469 21.0257 25.5325 20.6431C25.8392 20.3881 26.2225 20.235 26.6315 20.184V21.2042C27.1937 21.1277 28.4461 20.6431 29.1106 20.4391C29.6984 20.2605 31.0274 19.9545 31.1808 19.2913C29.8773 19.3933 30.2607 19.3423 29.3917 18.4751C29.8773 18.0415 30.3885 18.1946 30.9763 18.2711C30.5674 16.7153 30.4907 16.6898 30.2862 15.0319C29.3917 14.4453 29.8006 13.6291 30.1073 12.8639C30.5418 13.0425 31.1297 13.5271 31.2063 14.0372C31.3086 14.6493 30.8741 14.8024 30.9508 15.44C30.9763 15.695 31.1041 15.8736 31.1297 15.9246C31.2575 15.8226 31.8453 15.287 31.9731 15.1594C32.9443 16.1796 31.5641 16.7918 31.4364 16.8938C31.5641 17.3274 31.9475 17.8885 32.3564 18.016C32.8676 16.9448 33.2765 15.5675 33.251 14.3688C32.7143 13.9607 32.4076 14.2922 32.3564 13.1445L33.251 13.3995L33.1743 11.3336C32.5865 10.8745 32.2542 10.9 32.2798 9.85428C32.8676 9.82878 32.9698 10.0838 33.4043 10.1859C33.5321 9.9308 33.6088 9.62474 33.7621 9.31867C34.12 8.57901 33.7621 8.80856 33.8899 8.22193C34.0177 7.66081 34.8356 7.20171 35.3467 7.04868C35.7557 8.40047 35.4234 8.83406 34.1711 9.16564C34.0177 9.62474 33.9922 10.2624 33.9922 10.798C34.3755 10.747 34.58 10.5684 34.9378 10.4154C35.6023 10.1604 35.3212 10.4154 35.7557 9.87979C36.1901 9.29316 37.1102 9.34417 37.7492 9.57372C36.8035 11.8437 35.909 10.4919 35.3212 10.5429C34.9122 10.5939 34.1711 11.2316 34.1966 11.9202C34.1966 12.0223 34.1966 12.2008 34.1966 12.3028L34.3244 12.6599C34.7845 12.3538 34.6567 12.1243 35.4745 12.1243C35.5001 13.0425 35.04 13.068 34.35 13.0935L34.5033 14.6748C35.3979 14.2412 35.3979 13.6036 37.3658 14.0372C37.238 14.6748 36.9313 15.2615 36.4713 15.644C35.7557 16.2562 35.2445 15.9246 34.5033 15.7461C34.4778 15.7716 34.4778 15.7716 34.4522 15.8226C34.4522 15.8481 34.4266 15.8736 34.4266 15.8736L34.1711 16.8938C34.0688 17.3019 33.8644 17.608 33.7877 18.016C34.2733 17.914 34.4266 17.8375 34.8356 18.0671C34.4522 19.0363 34.0177 18.7047 33.3532 18.5517C33.0465 19.1383 32.3309 19.6229 32.1264 20.0055C32.5354 20.3115 33.0976 20.4391 33.3532 20.9237C33.0465 21.1787 32.5865 21.4338 32.152 21.3828C31.5897 21.3573 31.4619 20.9492 31.1297 20.6686C30.5418 20.7961 29.9284 21.2042 29.315 21.3828C28.8294 21.5103 28.8039 21.3573 28.7272 21.8164C29.315 22.0459 31.4619 21.7654 32.3053 21.7909L34.6567 22.1734C35.1934 22.25 35.2701 22.3265 35.4745 21.9439C34.9378 21.5358 34.4522 21.7654 34.3755 20.6431C34.7589 20.5921 34.9889 20.5921 35.3212 20.7961C35.4234 20.8727 35.5256 20.9747 35.5768 21.1022L35.679 21.4083C35.7045 21.4338 35.7301 21.4593 35.7301 21.4593C35.7301 21.4848 35.7557 21.5103 35.7557 21.5358L36.2924 21.0257C36.3435 20.2095 36.1135 19.8524 36.8802 19.2658C37.3914 18.9087 38.0814 18.7047 38.6948 18.6792C38.7971 19.3168 38.6948 20.031 38.337 20.5411C37.4936 21.6378 36.3946 20.5156 36.2413 22.1479C36.5991 22.1224 37.8514 21.9184 38.0814 21.7143C38.3626 21.5103 38.1326 21.3063 38.567 21.1022C38.9249 20.9492 39.2316 21.0512 39.4616 21.1787C39.0526 22.2755 38.5415 21.5358 37.9281 21.8929C37.6725 22.0459 37.3658 22.1989 37.1869 22.352C37.3403 22.7601 37.5703 22.7601 37.6725 23.3212C37.3658 23.3467 37.0847 23.3722 36.8547 23.2192C36.6502 23.0661 36.548 22.7091 36.4457 22.556C35.7557 22.607 35.2189 22.7601 34.5033 22.7346C34.0433 22.7091 32.9443 22.4795 32.6376 22.607C32.7398 22.8621 32.9954 22.9641 33.3021 23.0661C34.0944 23.3722 34.8867 22.3775 35.3979 23.8568C35.2189 24.1629 34.7845 24.3414 34.4266 24.1884C33.5577 23.8823 33.4043 22.7091 31.0785 22.658C31.2319 23.2447 31.4875 23.5762 30.8741 24.1629C29.9284 23.3722 30.3374 23.4487 30.4907 22.5815C29.6729 22.5815 27.2704 22.9131 26.7592 23.4487C26.8104 23.7038 26.8615 23.7548 27.0148 23.9333C27.1937 24.1884 27.1682 24.2139 27.4238 24.3159C27.8582 23.7548 28.1649 23.3467 29.0595 23.8313C28.6505 24.6475 28.4205 24.3669 28.0371 24.8515C28.395 25.0046 28.4461 25.0811 28.855 25.0811C29.5706 24.673 29.9796 24.4689 30.7463 24.928C31.513 25.3871 31.5897 25.8972 31.9986 26.2543C31.3341 26.4839 30.9252 26.8154 30.1329 26.6879C29.4684 26.5859 29.1873 26.1268 28.8806 25.6167L28.0883 25.3871C28.0883 25.8207 28.1138 26.0758 27.8327 26.3563C27.0148 25.6932 27.296 25.8462 27.4493 25.0046C26.1203 24.3669 25.7625 23.1426 24.7657 24.3669C24.8935 24.4689 24.7913 24.4179 24.9702 24.4944C25.4558 24.673 26.0436 24.8515 26.2736 25.3871C24.5613 26.3308 24.8679 25.6167 24.0501 25.1831C23.2322 25.8972 23.36 28.0397 23.3345 29.0854C23.2834 30.5903 23.2834 32.1461 23.3345 33.6254C23.36 35.0537 23.5134 36.431 23.59 37.8593C23.6667 39.2366 23.999 40.6394 24.1012 41.9657C27.0659 41.3791 28.9317 40.92 31.5897 39.3897C33.6088 38.2164 35.6279 36.6351 37.1358 34.8242C40.075 31.3299 41.864 27.0195 42.1707 22.4795V19.7504C42.1707 19.7249 42.1707 19.6994 42.1707 19.6739C41.404 8.73204 32.382 0.111184 21.3409 0.034668H21.0854C15.846 0.085679 10.5555 1.89657 6.77287 5.62037C6.54285 5.84992 6.28727 6.00295 6.08281 6.207L4.3193 8.24744C1.7635 11.6397 0.562276 14.9044 0.051116 19.1128C0.025558 19.2913 0 19.4699 0 19.6484V22.3775C0.12779 24.3669 0.536718 26.4329 1.12455 28.0397C2.73471 32.5542 6.00613 36.7626 10.2232 39.1856C12.4468 40.4609 15.1048 41.6086 17.6606 41.8892Z" fill="#8CCEEF"/>
    <path fill-rule="evenodd" clip-rule="evenodd" d="M17.5008 41.7123C18.8935 41.8642 19.4094 41.9401 20.1573 41.9654H22.5042C22.9943 41.9401 23.5616 41.7883 24.0001 41.7883C23.8969 40.4722 23.5616 39.0803 23.4843 37.7136C23.4069 36.2963 23.2522 34.9297 23.2264 33.5124C23.1748 32.0445 23.1748 30.5007 23.2264 29.0075C23.2522 27.9698 23.1232 25.8439 23.9485 25.1353C24.7738 25.5655 24.4643 26.2742 26.1923 25.3378C25.9602 24.8063 25.367 24.6291 24.877 24.452C24.6964 24.376 24.7996 24.4267 24.6706 24.3254C25.6765 23.1106 26.0375 24.3254 27.3787 24.9581C27.2239 25.7933 26.9402 25.6415 27.7655 26.2995C28.0492 26.0211 28.0234 25.768 28.0234 25.3378L28.8229 25.5655C29.1324 26.0717 29.4161 26.5273 30.0867 26.6285C30.8862 26.755 31.2988 26.426 31.9694 26.1983C31.5567 25.8439 31.4794 25.3378 30.7057 24.8822C29.9319 24.4267 29.5193 24.6291 28.7971 25.0341C28.3845 25.0341 28.3329 24.9581 27.9718 24.8063C28.3587 24.3254 28.5908 24.6038 29.0035 23.794C28.1008 23.3131 27.7913 23.718 27.3529 24.2748C27.095 24.1736 27.1208 24.1483 26.9402 23.8952C26.7855 23.718 26.7339 23.6674 26.6823 23.4143C27.1981 22.8828 29.6224 22.5538 30.4477 22.5538C30.293 23.4143 29.8804 23.3384 30.8346 24.123C31.4536 23.5409 31.1957 23.2119 31.0409 22.6298C33.3879 22.6804 33.5426 23.8446 34.4195 24.1483C34.7806 24.3001 35.219 24.123 35.3996 23.8193C34.8837 22.3514 34.0842 23.3384 33.2847 23.0347C32.9752 22.9335 32.7173 22.8322 32.6142 22.5791C32.9236 22.4526 34.0326 22.6804 34.4969 22.7057C35.219 22.731 35.7606 22.5791 36.457 22.5285C36.5601 22.6804 36.6633 23.0347 36.8696 23.1865C37.1017 23.3384 37.3854 23.3131 37.6949 23.2878C37.5918 22.731 37.3596 22.731 37.2049 22.3261C37.3854 22.1742 37.6949 22.0224 37.9528 21.8705C38.5718 21.5162 39.0876 22.2501 39.5003 21.1619C39.2681 21.0353 38.9587 20.9341 38.5976 21.0859C38.1591 21.2884 38.3913 21.4909 38.1076 21.6934C37.8755 21.8958 36.6117 22.0983 36.2506 22.1236C36.4054 20.5039 37.5144 21.6174 38.3655 20.5292C38.7265 20.023 38.8297 19.3144 38.7265 18.6816C38.1076 18.707 37.4112 18.9094 36.8954 19.2637C36.1217 19.8458 36.3538 20.2002 36.3022 21.01L35.7606 21.5162C35.7606 21.4909 35.7348 21.4656 35.7348 21.4403C35.7348 21.4403 35.709 21.415 35.6832 21.3896L35.5801 21.0859C35.5285 20.9594 35.4253 20.8582 35.3222 20.7822C34.9869 20.5798 34.7548 20.5798 34.3679 20.6304C34.4453 21.744 34.9353 21.5162 35.4769 21.9211C35.2706 22.3008 35.1932 22.2248 34.6516 22.1489L32.2789 21.7693C31.4278 21.744 29.2614 22.0224 28.6682 21.7946C28.7456 21.339 28.7714 21.4909 29.2614 21.3643C29.8804 21.1872 30.4993 20.7822 31.0925 20.6557C31.4278 20.9341 31.5567 21.339 32.1241 21.3643C32.5626 21.415 33.0268 21.1619 33.3363 20.9088C33.0784 20.4279 32.511 20.3014 32.0983 19.9977C32.3047 19.6181 33.0268 19.1372 33.3363 18.5551C34.0069 18.707 34.4453 19.036 34.8322 18.0742C34.4195 17.8465 34.2648 17.9224 33.7747 18.0236C33.8521 17.6187 34.0584 17.315 34.1616 16.9101L34.4195 15.8977C34.4195 15.8977 34.4453 15.8724 34.4453 15.8471C34.4711 15.7965 34.4711 15.7965 34.4969 15.7712C35.2448 15.9483 35.7606 16.2773 36.4828 15.6699C36.947 15.2903 37.2565 14.7082 37.3854 14.0755C35.3995 13.6453 35.3995 14.278 34.4969 14.7082L34.3421 13.1391C35.0385 13.1138 35.5027 13.0885 35.4769 12.1774C34.6516 12.1774 34.7806 12.4052 34.3163 12.7089L34.1874 12.3545C34.1874 12.2533 34.1874 12.0761 34.1874 11.9749C34.1616 11.2916 34.9095 10.6589 35.3222 10.6083C35.9154 10.5576 36.818 11.899 37.7723 9.64653C37.1275 9.41875 36.1991 9.36814 35.7606 9.95023C35.3222 10.4817 35.6059 10.2286 34.9353 10.4817C34.5742 10.6336 34.3679 10.8107 33.9811 10.8613C33.9811 10.3299 34.0069 9.69715 34.1616 9.24159C35.4253 8.91258 35.7606 8.48234 35.348 7.14099C34.8322 7.29284 34.0069 7.7484 33.8779 8.30518C33.7489 8.88728 34.11 8.6595 33.7489 9.39345C33.5942 9.69715 33.5168 10.0008 33.3879 10.2539C32.9494 10.1527 32.8463 9.89961 32.2531 9.92492C32.2273 10.9626 32.5626 10.9373 33.1558 11.3928L33.2331 13.4428L32.3305 13.1897C32.382 14.3286 32.6915 13.9996 33.2331 14.4045C33.2589 15.594 32.8463 16.9607 32.3305 18.0236C31.9178 17.8971 31.531 17.3403 31.402 16.9101C31.531 16.8088 32.9236 16.2014 31.9436 15.1891C31.8147 15.3156 31.2215 15.8471 31.0925 15.9483C31.0667 15.8977 30.9378 15.7206 30.912 15.4675C30.8346 14.8348 31.273 14.6829 31.1699 14.0755C31.0925 13.5693 30.4993 13.0885 30.0609 12.9113C29.7514 13.6706 29.3388 14.4804 30.2414 15.0625C30.4477 16.7076 30.5251 16.7329 30.9378 18.2767C30.3446 18.2008 29.8288 18.0489 29.3387 18.4792C30.2156 19.3397 29.8288 19.3903 31.1441 19.289C30.9893 19.9471 29.6482 20.2508 29.0551 20.4279C28.3845 20.6304 27.1208 21.1113 26.5534 21.1872V20.1748C26.1407 20.2255 25.7538 20.3773 25.4444 20.6304C24.9543 21.01 25.0833 21.2631 25.1607 21.7946C24.4643 21.9717 23.9227 22.4273 23.3553 22.6045C23.4069 22.0224 23.639 20.5798 24.0259 20.0483C25.0317 20.2255 24.7222 20.2255 25.4186 19.5927C25.1349 19.4409 24.6706 19.365 24.4643 19.1372C24.7996 18.6816 25.5991 18.302 26.1665 18.302C27.7913 19.5421 28.3587 18.7323 29.4419 17.5934C26.7855 16.2014 26.8371 17.4668 26.0891 17.8465C26.0118 17.8971 24.877 18.1755 24.748 18.1755C24.877 17.4162 25.7538 16.2773 26.1923 15.6193C26.6823 15.7712 26.966 16.2014 27.5592 16.0243C27.8945 15.923 28.3587 15.5181 28.5134 15.2397C28.1266 14.936 27.6624 14.936 27.2755 14.7082L27.1465 14.607L27.8429 14.1008C28.7456 14.3286 28.6424 14.4551 29.3387 13.7212L28.7456 13.3922C28.8229 13.0885 29.5451 12.4305 29.803 12.1268C30.4477 12.1014 30.7314 12.6329 31.4536 12.1521C31.7115 11.9749 32.2789 11.3169 32.1757 11.0638C31.8147 10.8613 31.3246 10.912 30.8862 10.912C30.9636 10.4311 31.5567 9.67184 31.8147 9.19098C32.0983 8.63419 32.3563 7.7737 32.5884 7.36877C33.0526 6.88791 34.0069 7.57124 33.8521 5.42002C33.3879 5.39471 32.7173 5.72372 32.4078 6.07804C31.9178 6.66013 32.5626 7.21692 31.9178 7.54593C31.6857 7.21692 31.6083 7.06507 31.2988 6.66013C31.0925 6.98914 30.7572 7.21692 30.6799 7.64716C30.6025 8.17864 30.9378 8.3558 31.1957 8.71012C31.0409 9.11505 30.6283 9.74776 30.2414 9.92492C29.674 9.46937 29.6482 8.55827 29.674 7.87494C29.7772 7.54593 30.9378 6.60952 29.2356 5.57187C28.7714 6.43236 28.2813 7.03976 29.2614 7.7737L29.2098 9.01382C28.565 8.83666 28.565 8.0521 27.2239 8.83666C27.4045 8.9632 27.6881 9.41875 28.0234 9.62122C28.6424 9.97554 28.7714 9.5706 29.313 9.5453C29.4161 10.2033 29.7256 10.7095 29.313 11.0891C28.9519 10.8107 29.0808 10.6336 28.4619 10.2539C27.8945 11.0891 28.4361 11.1903 28.5908 11.7724C28.1008 12.0255 27.585 12.4558 27.0434 12.5823C27.1981 11.7977 27.456 11.6206 27.0176 10.7854C26.7855 10.3299 26.3986 9.95023 26.0633 9.59591C23.5616 12.4052 25.5475 12.7848 25.9344 13.5187C25.2896 14.0249 25.2896 14.3539 24.9028 14.8854C24.5933 14.6576 24.3869 13.7971 24.1806 13.4175C23.9743 13.0126 23.4843 12.4305 23.4327 12.0255C24.5159 11.6206 24.5933 11.1903 24.1032 10.1527C23.4585 10.3299 23.0974 10.9373 23.0974 11.57C22.7621 11.494 22.7363 11.3169 22.4526 11.1144C22.4784 10.4311 22.8653 9.77307 23.3295 9.2669C23.8196 8.73543 24.258 8.63419 24.7738 8.20395C25.2896 8.02679 27.0692 8.91258 27.3013 6.00211C25.7796 6.00211 24.6449 6.33112 24.5417 7.97617C24.129 8.07741 23.8196 8.38111 23.4327 8.38111L23.3811 8.0521C23.7422 7.82432 24.129 7.79901 24.258 7.29284C24.2838 6.78668 24.258 6.53359 23.9227 6.17927C23.7422 6.35643 23.1232 6.98914 22.9427 7.01445C22.8911 6.66013 22.8395 6.28051 23.0458 6.02742L23.0974 5.62249C23.9227 5.3694 24.0775 4.88854 23.7422 4.1546C22.3237 4.81262 23.0458 4.98978 22.7363 5.77434C22.659 6.02742 22.6332 6.28051 22.5042 6.48297C22.0916 6.35643 21.8595 5.87557 21.7047 5.47064C21.9368 4.98978 22.2463 4.78731 21.911 4.17991C21.7563 3.8509 21.3952 3.5725 21.1373 3.34473C19.693 5.44533 21.2405 5.14163 21.6016 6.02742C21.7305 6.35643 21.9626 6.68544 21.9884 7.06507C21.3179 7.09038 21.1889 7.06507 20.7505 7.67247C21.911 8.30518 21.7821 7.67247 22.4269 7.52062C22.6074 7.87494 22.7621 8.6595 22.7621 9.06444L21.6531 10.2286C21.2921 10.2033 21.2921 10.2033 21.0857 9.95023C21.4726 9.51999 21.9626 9.41875 21.55 8.58357C20.7247 8.91258 20.931 9.11505 20.5184 9.5706L20.0799 9.14036C20.0541 8.45703 20.5441 7.84963 19.7446 7.1663C19.332 6.81198 18.5325 6.50828 18.0167 6.48297C17.9651 7.24223 17.8877 7.7737 18.2746 8.43172C18.6356 9.06444 19.0741 9.03913 19.6415 9.24159C19.7962 9.51999 20.1057 10.1274 20.1315 10.4817C19.5125 10.4564 18.8677 10.4564 18.4293 10.9626C18.7904 11.241 19.0483 11.5953 19.5125 11.7977C20.2089 12.0508 20.441 11.6459 20.9568 11.4181C21.2921 11.6459 21.7047 12.1774 21.7047 12.557C20.9826 12.4558 20.6731 12.8354 20.5699 13.5187C21.4726 13.544 21.4726 13.3416 21.9884 12.8607C22.4011 13.215 22.9169 14.4551 22.9685 15.0119C21.9368 14.607 22.0142 14.278 20.6731 15.1132C20.8794 15.1891 21.2405 15.7206 21.6789 15.923C22.4784 16.2773 22.5816 15.8218 23.2006 15.6952C23.2006 16.6064 23.2522 17.1125 22.7363 17.8718C22.1432 18.7323 21.8595 18.5045 20.9052 18.3526C21.2147 17.5175 21.911 18.0489 21.2663 16.5051C20.4926 16.8594 20.3378 17.2644 20.3636 18.0236C19.7446 17.9224 19.0225 17.0619 18.7904 16.5557C19.5383 15.7206 20.8536 14.8095 18.6614 12.8607C17.7845 13.7971 17.6298 14.0249 17.3977 15.2903C17.0624 15.1891 16.6755 14.7335 16.5466 14.4045C16.985 13.873 17.5008 14.1261 17.0108 13.0126C16.8819 13.0885 16.624 13.2656 16.5208 13.3669C16.4434 13.4428 16.4176 13.5187 16.3661 13.62C16.3145 13.6959 16.3145 13.7212 16.2629 13.7971C16.2629 13.8224 16.2371 13.873 16.2371 13.873C16.2371 13.8477 16.2113 13.9237 16.1855 13.9237C15.8502 13.6959 15.3344 12.9113 15.2313 12.5064C15.7471 12.3039 16.1082 12.2027 16.2629 11.6459C16.4176 11.2157 16.1855 10.5829 15.9276 10.2539C15.6697 10.4311 15.4118 10.6589 15.1281 10.7601C15.1797 10.3045 15.2571 10.1274 14.9992 9.74776C14.5607 9.89961 14.5607 10.1527 14.2254 10.3299C14.0191 10.0768 13.9159 9.67184 13.9417 9.29221C14.1739 9.03913 14.3802 8.81135 14.6639 8.6595C15.1281 8.93789 15.5408 9.31752 16.1855 9.03913C16.5982 8.83666 16.9335 8.38111 17.114 7.95086C16.5466 7.64716 16.1339 7.72309 15.4376 7.72309L16.005 6.48297C16.6755 6.33112 17.1398 6.20458 17.5008 5.57187C17.7845 5.01508 17.7072 4.10398 17.3719 3.64843C16.4176 3.97744 15.0507 4.762 15.515 5.9768C15.6697 6.40705 15.6955 6.35643 15.4634 6.83729C15.1539 7.47 14.5091 8.25457 13.7096 8.30518L13.6838 6.91322C14.4833 6.83729 14.9218 6.28051 14.4833 5.57187L13.6322 6.02742C13.4775 5.44533 13.5291 5.72372 13.6065 5.19224C13.7612 4.33176 12.9359 3.8509 12.188 3.67374C12.0332 4.00275 11.9816 4.71138 12.1622 5.09101C12.2396 5.29348 12.3943 5.47064 12.549 5.59718C12.9359 5.85026 12.9101 5.59718 13.0649 5.9515C12.7554 6.12866 12.4717 6.07804 12.1106 6.05273C11.44 5.77434 11.7237 5.0657 10.46 5.92619C10.7695 6.07804 11.079 6.50828 11.5432 6.38174C11.9301 6.2552 11.6722 6.17927 12.2396 6.30581C12.549 6.38174 12.6264 6.40705 13.0133 6.45767L12.9359 7.79901C12.188 7.67247 12.549 7.03976 10.8727 7.52062C10.8727 7.92556 11.2853 8.33049 11.569 8.58357C12.1106 9.03913 12.3943 8.81135 12.9875 8.76073C12.9875 9.67184 13.2196 9.849 13.3486 10.6083L11.6206 10.0515C11.1563 8.17864 10.6405 8.25457 8.75782 8.33049C9.37679 11.0638 10.8727 10.4058 11.3369 10.4311C12.0332 10.4817 13.8386 11.8231 14.0965 12.3545C14.3802 12.886 15.0765 13.9743 15.2055 14.4298C13.9675 14.3539 14.1739 14.3792 13.2454 15.1385C13.5033 15.4169 14.0965 15.6699 14.4576 15.7459C15.1281 15.8724 15.2829 15.3662 15.7987 15.2903C16.2371 16.1255 16.8819 16.4798 17.0882 16.9101C16.4692 16.9607 15.2571 16.6823 14.6381 16.5304C13.8128 16.328 13.2454 16.1761 12.7812 15.4928C11.8785 14.202 12.6264 14.1514 12.6006 13.3163C12.5748 12.5317 11.8011 12.2533 11.2337 12.0255C10.8727 13.0632 10.9758 13.7212 11.9816 14.1767C12.0848 14.4045 12.1106 14.7335 12.188 15.0119C12.2653 15.265 12.3943 15.4675 12.4201 15.7459C11.7237 15.6699 10.1247 14.6323 9.86682 14.0502C10.331 13.6453 10.8984 13.544 10.46 12.6835C9.89261 12.7595 9.73786 13.1897 9.45417 13.4934C8.13884 12.4558 9.45417 11.0638 6.10138 11.3422C6.12717 11.7977 6.48824 12.5823 6.79773 12.9113C7.39091 13.544 7.64882 13.5187 8.49991 13.4934C8.73203 13.7212 8.98993 13.873 9.01572 14.2021C8.39675 14.2274 7.72619 14.5311 7.4425 15.0625C8.34517 15.6699 8.93835 15.8977 9.78944 15.1132C10.0731 15.1638 11.0532 15.8218 11.2853 16.1508C10.8469 16.4798 10.6405 16.5304 10.589 17.1884C11.4143 17.1884 11.5174 17.1378 11.9043 16.5304C12.2396 16.581 13.3228 17.1125 13.5807 17.315C13.2196 17.8212 12.188 18.2514 12.2396 19.4409C13.1938 19.5421 14.3802 19.5927 14.9734 18.7323C15.0765 18.5551 15.1023 18.4792 15.1539 18.3273C15.2571 18.0236 15.1797 18.1502 15.3344 17.9477C15.876 17.9983 16.4692 18.2261 17.0366 18.3273C17.5008 18.4286 18.0167 18.8082 18.1456 19.2637C16.985 19.289 17.1398 19.2384 16.2371 19.9977C16.495 20.2508 17.0882 20.5545 17.4751 20.5798C18.1198 20.6557 18.3261 20.2761 18.7388 19.9724C19.1257 20.2761 19.3062 20.9341 19.4094 21.4403C19.5383 22.2501 19.3836 22.4779 19.203 23.1865C18.8677 23.1359 18.5325 22.9082 18.3004 22.6551C18.5841 21.9464 19.0483 22.3008 18.2746 21.2884C18.0424 21.7946 17.8877 21.4909 17.8103 22.3514L15.2571 21.415C15.1797 20.6051 15.0765 20.2508 14.0449 20.2761L14.277 21.1619L11.8785 20.8835C11.8011 20.5292 12.3685 19.8458 11.4143 19.4409C11.1048 19.9471 11.1563 19.9218 11.1048 20.5039C10.6147 20.4785 10.1505 19.9471 9.89261 19.5674C9.50575 18.9853 10.0474 18.7576 9.86682 17.9224C9.6347 16.9607 8.37096 16.3533 7.4425 16.252C7.1588 17.7958 7.31354 19.036 8.93835 19.4915C9.22205 20.352 10.1247 20.8582 10.1763 21.1366L8.83519 21.1113C8.70624 20.352 8.65466 19.8965 7.59724 20.023L7.88094 20.9341C7.39091 20.9341 6.48824 20.7822 6.10138 20.5039C6.28192 20.0736 7.1588 19.9471 6.56561 19.0866C5.99822 19.289 6.02401 19.5421 5.55978 19.7193L5.43083 18.7576C6.41087 18.2767 6.38508 17.5428 5.71452 16.7835C5.25029 17.1378 4.60553 17.7958 5.01818 18.4286C5.19871 18.7323 5.45662 20.1748 5.48241 20.6051C5.17292 20.5545 4.6829 20.352 4.37341 20.2255C3.41916 19.7699 4.45078 18.4286 1.76855 18.7829C1.79435 19.1625 2.10383 19.6687 2.33595 19.9724C2.77439 20.4785 3.18704 20.3773 3.78022 20.3773C4.03813 20.5292 4.19287 20.681 4.50236 20.8582C4.76027 20.9847 5.04397 21.0606 5.2245 21.2378C4.29604 22.0983 4.47657 21.668 3.88339 22.9841C4.6829 23.4902 6.64299 23.4396 6.97826 21.744C7.51987 21.6934 8.29359 21.9971 8.88677 22.0477C8.78361 22.402 8.57728 22.5538 8.5257 22.9841C9.53154 22.9841 9.45417 22.9841 9.89261 22.2248C10.3826 22.1995 11.2079 22.2248 11.6206 22.4273C11.3627 22.7816 11.2337 22.731 10.95 23.2372C11.3627 23.5156 12.0848 23.4396 12.3169 22.9588L12.5233 22.5538C12.8585 22.6298 13.0906 22.6551 13.3228 22.8322C13.168 23.3131 12.7296 23.6168 12.2911 23.8446C11.3111 24.376 11.569 24.047 10.7437 23.8952C9.55733 23.6927 8.88677 24.7304 8.57728 25.6668C9.04152 25.9452 9.94419 25.9452 10.5374 25.7933C11.3111 25.5655 11.3627 25.1859 11.6722 24.5785C11.8527 24.4773 13.1938 23.9205 13.297 23.8952C13.2712 24.5785 13.2454 24.7557 13.8902 25.2112C14.767 24.0977 14.0191 24.0977 13.787 23.4649C14.3802 23.06 14.3544 23.0347 15.9792 23.6168C16.3918 23.7686 17.1656 24.0217 17.3203 24.4267C16.8561 24.4773 16.5466 24.376 16.1597 24.7304C15.9018 24.9581 15.6697 25.2365 15.6181 25.5909C17.1398 26.1476 17.3461 25.439 17.8103 24.8063C18.0682 24.9075 18.0167 24.8822 18.1972 25.1353C18.8935 26.1983 18.9193 27.3624 18.7646 28.6026C18.3519 31.7661 17.5524 39.0549 17.5008 41.7123Z" fill="white"/>
    <path fill-rule="evenodd" clip-rule="evenodd" d="M24.258 7.29284C24.4901 6.96383 24.2322 6.43236 24.0259 6.10335C23.4327 6.33113 23.3811 6.68545 22.9943 6.93853L23.0458 6.02742C22.8395 6.28051 22.8911 6.66013 22.9427 7.01445C23.1232 6.98914 23.7422 6.35643 23.9227 6.17927C24.258 6.53359 24.2838 6.78668 24.258 7.29284Z" fill="white"/>
    <path d="M64.3656 29.3086C64.3656 29.358 64.3656 29.4075 64.3398 29.4569C64.2883 29.5063 64.2367 29.5558 64.1594 29.5805C64.0821 29.6052 63.9532 29.6299 63.8244 29.6546C63.6955 29.6794 63.5409 29.6794 63.3347 29.6794C63.1285 29.6794 62.9481 29.6794 62.8193 29.6546C62.6904 29.6299 62.5873 29.6052 62.51 29.5805C62.4327 29.5558 62.3554 29.5063 62.3296 29.4569C62.3038 29.4075 62.278 29.358 62.278 29.3086V22.5855H55.0876V29.3086C55.0876 29.358 55.0618 29.4075 55.036 29.4569C55.0102 29.5063 54.9587 29.5558 54.8814 29.5805C54.7783 29.6052 54.6752 29.6299 54.5463 29.6546C54.4175 29.6794 54.2371 29.6794 54.0309 29.6794C53.8505 29.6794 53.6701 29.6794 53.5412 29.6546C53.4124 29.6299 53.2835 29.6052 53.2062 29.5805C53.1289 29.5558 53.0773 29.5063 53.0515 29.4569C53 29.4075 53 29.358 53 29.3086V14.7502C53 14.676 53 14.6266 53.0515 14.5771C53.0773 14.5277 53.1289 14.503 53.2062 14.4783C53.2835 14.4535 53.4124 14.4288 53.5412 14.4041C53.6701 14.3794 53.8505 14.3794 54.0309 14.3794C54.2371 14.3794 54.4175 14.3794 54.5463 14.4041C54.6752 14.4288 54.7783 14.4535 54.8814 14.4783C54.9587 14.503 55.0102 14.5277 55.036 14.5771C55.0618 14.6266 55.0876 14.676 55.0876 14.7502V20.8306H62.278V14.7502C62.278 14.676 62.3038 14.6266 62.3296 14.5771C62.3554 14.5277 62.4327 14.503 62.51 14.4783C62.5873 14.4535 62.6904 14.4288 62.8193 14.4041C62.9481 14.3794 63.1285 14.3794 63.3347 14.3794C63.5409 14.3794 63.6955 14.3794 63.8244 14.4041C63.9532 14.4288 64.0821 14.4535 64.1594 14.4783C64.2367 14.503 64.2883 14.5277 64.3398 14.5771C64.3656 14.6266 64.3656 14.676 64.3656 14.7502V29.3086ZM77.3806 28.7648C77.3806 28.9131 77.3548 29.0367 77.3548 29.1356C77.3291 29.2592 77.3033 29.3333 77.2775 29.4075C77.226 29.4816 77.1744 29.5311 77.1229 29.5558C77.0713 29.5805 77.0198 29.6052 76.9425 29.6052H69.3654C69.1592 29.6052 69.0046 29.5558 68.8242 29.4322C68.6696 29.3086 68.5665 29.0862 68.5665 28.7895V15.2692C68.5665 14.9479 68.6696 14.7502 68.8242 14.6266C69.0046 14.503 69.1592 14.4535 69.3654 14.4535H76.8652C76.9167 14.4535 76.994 14.4535 77.0456 14.503C77.0971 14.5277 77.1487 14.5771 77.1744 14.6513C77.2002 14.7007 77.226 14.7996 77.2518 14.8985C77.2775 15.022 77.2775 15.1456 77.2775 15.2939C77.2775 15.4422 77.2775 15.5658 77.2518 15.6647C77.226 15.7883 77.2002 15.8624 77.1744 15.9366C77.1487 15.986 77.0971 16.0354 77.0456 16.0602C76.994 16.1096 76.9167 16.1096 76.8652 16.1096H70.6798V20.88H75.9889C76.0405 20.88 76.1178 20.9047 76.1693 20.9295C76.2209 20.9542 76.2466 21.0036 76.2982 21.0778C76.3239 21.1519 76.3497 21.2261 76.3755 21.3249C76.4013 21.4485 76.4013 21.5721 76.4013 21.7204C76.4013 21.8687 76.4013 21.9923 76.3755 22.0912C76.3497 22.19 76.3239 22.2642 76.2982 22.3383C76.2466 22.3878 76.2209 22.4372 76.1693 22.4619C76.1178 22.4866 76.0405 22.5114 75.9889 22.5114H70.6798V27.9244H76.9425C77.0198 27.9244 77.0713 27.9492 77.1229 27.9739C77.1744 28.0233 77.226 28.048 77.2775 28.1222C77.3033 28.1963 77.3291 28.2705 77.3548 28.3941C77.3548 28.4929 77.3806 28.6165 77.3806 28.7648ZM87.1741 29.2592C87.1483 29.3333 87.1226 29.4075 87.0452 29.4569C86.9937 29.5311 86.9164 29.5558 86.8133 29.6052C86.7102 29.6299 86.5813 29.6546 86.4267 29.6546C86.2721 29.6794 86.0659 29.6794 85.8339 29.6794C85.6535 29.6794 85.4989 29.6794 85.37 29.6794C85.2154 29.6794 85.1123 29.6546 85.0092 29.6546C84.9061 29.6299 84.8288 29.6052 84.7515 29.5805C84.7 29.5805 84.6226 29.5311 84.5969 29.5063C84.5453 29.4816 84.4938 29.4322 84.468 29.4075C84.4422 29.358 84.4165 29.3086 84.3907 29.2345L79.2104 15.1703C79.1589 14.9973 79.1331 14.849 79.1074 14.7502C79.1074 14.6266 79.1589 14.5524 79.2104 14.503C79.2878 14.4535 79.4166 14.4041 79.5713 14.4041C79.7259 14.3794 79.9578 14.3794 80.2413 14.3794C80.4733 14.3794 80.6537 14.3794 80.7826 14.4041C80.9114 14.4041 81.0145 14.4288 81.0918 14.4535C81.1691 14.4783 81.2207 14.5277 81.2465 14.5771C81.298 14.6266 81.3238 14.7007 81.3496 14.7749L85.8855 27.529H85.9113L90.3183 14.7996C90.3441 14.7007 90.3699 14.6513 90.3956 14.5771C90.4214 14.5277 90.4987 14.4783 90.576 14.4535C90.6534 14.4288 90.7822 14.4041 90.9111 14.4041C91.0657 14.3794 91.2461 14.3794 91.5038 14.3794C91.7616 14.3794 91.942 14.3794 92.0966 14.4041C92.2512 14.4288 92.3543 14.4535 92.4059 14.5277C92.4574 14.5771 92.4832 14.6513 92.4574 14.7502C92.4574 14.849 92.4059 14.9973 92.3543 15.1703L87.1741 29.2592ZM103.797 28.7648C103.797 28.9131 103.771 29.0367 103.771 29.1356C103.746 29.2592 103.72 29.3333 103.668 29.4075C103.643 29.4816 103.591 29.5311 103.54 29.5558C103.488 29.5805 103.436 29.6052 103.359 29.6052H95.7821C95.5759 29.6052 95.4212 29.5558 95.2408 29.4322C95.0862 29.3086 94.9831 29.0862 94.9831 28.7895V15.2692C94.9831 14.9479 95.0862 14.7502 95.2408 14.6266C95.4212 14.503 95.5759 14.4535 95.7821 14.4535H103.282C103.333 14.4535 103.411 14.4535 103.462 14.503C103.514 14.5277 103.54 14.5771 103.591 14.6513C103.617 14.7007 103.643 14.7996 103.668 14.8985C103.668 15.022 103.694 15.1456 103.694 15.2939C103.694 15.4422 103.668 15.5658 103.668 15.6647C103.643 15.7883 103.617 15.8624 103.591 15.9366C103.54 15.986 103.514 16.0354 103.462 16.0602C103.411 16.1096 103.333 16.1096 103.282 16.1096H97.0964V20.88H102.406C102.457 20.88 102.534 20.9047 102.586 20.9295C102.637 20.9542 102.663 21.0036 102.715 21.0778C102.741 21.1519 102.766 21.2261 102.792 21.3249C102.818 21.4485 102.818 21.5721 102.818 21.7204C102.818 21.8687 102.818 21.9923 102.792 22.0912C102.766 22.19 102.741 22.2642 102.715 22.3383C102.663 22.3878 102.637 22.4372 102.586 22.4619C102.534 22.4866 102.457 22.5114 102.406 22.5114H97.0964V27.9244H103.359C103.436 27.9244 103.488 27.9492 103.54 27.9739C103.591 28.0233 103.643 28.048 103.668 28.1222C103.72 28.1963 103.746 28.2705 103.771 28.3941C103.771 28.4929 103.797 28.6165 103.797 28.7648ZM112.251 23.7225V29.3086C112.251 29.358 112.251 29.4075 112.199 29.4569C112.173 29.5063 112.122 29.5558 112.044 29.5805C111.967 29.6052 111.838 29.6299 111.709 29.6546C111.58 29.6794 111.4 29.6794 111.22 29.6794C111.013 29.6794 110.833 29.6794 110.704 29.6546C110.575 29.6299 110.447 29.6052 110.369 29.5805C110.292 29.5558 110.24 29.5063 110.189 29.4569C110.163 29.4075 110.137 29.358 110.137 29.3086V23.7225L105.679 15.1703C105.576 14.9726 105.524 14.849 105.498 14.7254C105.498 14.6266 105.498 14.5524 105.576 14.503C105.627 14.4535 105.73 14.4041 105.911 14.4041C106.065 14.3794 106.271 14.3794 106.555 14.3794C106.787 14.3794 106.993 14.3794 107.122 14.4041C107.277 14.4041 107.405 14.4288 107.483 14.4535C107.586 14.4783 107.663 14.5277 107.689 14.5771C107.74 14.6266 107.792 14.7007 107.818 14.7749L110.008 19.1251C110.215 19.5453 110.421 19.9902 110.627 20.4351C110.833 20.88 111.039 21.3497 111.245 21.7946H111.271C111.452 21.3497 111.658 20.9047 111.864 20.4598C112.044 20.0396 112.251 19.5947 112.457 19.1745L114.647 14.7749C114.673 14.7007 114.725 14.6513 114.75 14.5771C114.802 14.5277 114.854 14.4783 114.931 14.4535C115.008 14.4288 115.137 14.4041 115.266 14.4041C115.395 14.3794 115.575 14.3794 115.781 14.3794C116.091 14.3794 116.323 14.3794 116.477 14.4041C116.658 14.4288 116.761 14.4535 116.838 14.5277C116.89 14.5771 116.915 14.6513 116.89 14.7502C116.89 14.849 116.812 14.9973 116.735 15.1703L112.251 23.7225ZM129.389 28.8884C129.466 29.0614 129.492 29.2097 129.492 29.3086C129.492 29.4075 129.466 29.5063 129.415 29.5558C129.338 29.6052 129.235 29.6299 129.08 29.6546C128.925 29.6794 128.719 29.6794 128.487 29.6794C128.229 29.6794 128.023 29.6794 127.869 29.6546C127.714 29.6546 127.611 29.6299 127.534 29.6052C127.456 29.5805 127.405 29.5311 127.353 29.4816C127.327 29.4322 127.276 29.3828 127.25 29.3086L125.91 25.6257H119.312L118.024 29.2592C117.998 29.3333 117.972 29.4075 117.92 29.4569C117.895 29.5063 117.843 29.5311 117.74 29.5805C117.689 29.6052 117.56 29.6299 117.431 29.6546C117.276 29.6794 117.096 29.6794 116.864 29.6794C116.632 29.6794 116.451 29.6794 116.297 29.6546C116.142 29.6299 116.039 29.5805 115.962 29.5311C115.91 29.4816 115.884 29.4075 115.884 29.2839C115.884 29.185 115.91 29.0614 115.988 28.8884L121.297 14.7996C121.322 14.7007 121.374 14.6513 121.426 14.5771C121.477 14.5277 121.554 14.4783 121.657 14.4535C121.761 14.4288 121.889 14.4041 122.044 14.4041C122.199 14.3794 122.405 14.3794 122.637 14.3794C122.895 14.3794 123.126 14.3794 123.307 14.4041C123.462 14.4041 123.616 14.4288 123.719 14.4535C123.822 14.4783 123.9 14.5277 123.951 14.6018C124.003 14.6513 124.054 14.7254 124.08 14.7996L129.389 28.8884ZM122.585 16.4556L119.853 24.0191H125.343L122.585 16.4556ZM134.544 28.3199C134.544 28.8884 134.441 29.2592 134.26 29.4322C134.08 29.6299 133.719 29.7041 133.229 29.7041C132.74 29.7041 132.379 29.6299 132.198 29.4322C132.018 29.2592 131.915 28.9131 131.915 28.3694C131.915 27.8009 132.018 27.4301 132.198 27.2571C132.405 27.0841 132.74 26.9852 133.255 26.9852C133.745 26.9852 134.08 27.0593 134.26 27.2571C134.466 27.4301 134.544 27.8009 134.544 28.3199ZM149.028 29.3086C149.028 29.358 149.028 29.4075 149.002 29.4569C148.976 29.5063 148.925 29.5558 148.847 29.5805C148.77 29.6052 148.641 29.6299 148.512 29.6546C148.358 29.6794 148.151 29.6794 147.919 29.6794C147.713 29.6794 147.533 29.6794 147.404 29.6546C147.275 29.6299 147.146 29.6052 147.069 29.5805C146.992 29.5311 146.94 29.5063 146.889 29.4322C146.837 29.358 146.811 29.2839 146.76 29.185L145.316 25.6257C145.136 25.2055 144.956 24.8348 144.775 24.5135C144.595 24.1674 144.389 23.8708 144.131 23.6236C143.873 23.3765 143.59 23.1787 143.229 23.0551C142.894 22.9068 142.481 22.8574 141.992 22.8574H140.6V29.3086C140.6 29.358 140.574 29.4075 140.549 29.4569C140.497 29.5063 140.445 29.5558 140.368 29.5805C140.291 29.6052 140.188 29.6299 140.059 29.6546C139.93 29.6794 139.75 29.6794 139.543 29.6794C139.337 29.6794 139.183 29.6794 139.028 29.6546C138.899 29.6299 138.796 29.6052 138.719 29.5805C138.641 29.5558 138.564 29.5063 138.538 29.4569C138.513 29.4075 138.487 29.358 138.487 29.3086V15.2692C138.487 14.9479 138.59 14.7502 138.745 14.6266C138.925 14.503 139.08 14.4535 139.286 14.4535H142.636C143.048 14.4535 143.358 14.4535 143.641 14.4783C143.899 14.503 144.131 14.5277 144.337 14.5277C144.956 14.6513 145.497 14.7996 145.961 15.022C146.425 15.2445 146.837 15.5164 147.146 15.8624C147.456 16.1838 147.713 16.5792 147.868 16.9994C148.023 17.4443 148.1 17.914 148.1 18.433C148.1 18.9521 148.023 19.397 147.894 19.7925C147.739 20.2127 147.533 20.5587 147.275 20.88C146.992 21.1766 146.682 21.4485 146.296 21.671C145.935 21.8934 145.523 22.0912 145.033 22.2395C145.316 22.3631 145.548 22.4866 145.755 22.6597C145.961 22.8327 146.167 23.0304 146.347 23.2776C146.528 23.5001 146.708 23.7719 146.863 24.0686C147.017 24.3899 147.198 24.7112 147.352 25.1067L148.77 28.4435C148.873 28.7154 148.95 28.9378 149.002 29.0367C149.028 29.1603 149.028 29.2345 149.028 29.3086ZM145.883 18.6555C145.883 18.0623 145.729 17.5679 145.471 17.1477C145.188 16.7275 144.724 16.4309 144.079 16.2579C143.873 16.2085 143.641 16.159 143.384 16.1343C143.126 16.1096 142.791 16.1096 142.378 16.1096H140.6V21.2261H142.662C143.203 21.2261 143.693 21.1519 144.079 21.0283C144.492 20.9047 144.827 20.707 145.084 20.4846C145.368 20.2621 145.548 19.9902 145.677 19.6689C145.806 19.3476 145.883 19.0262 145.883 18.6555ZM163.976 24.0191C163.976 24.9337 163.821 25.7493 163.537 26.4661C163.28 27.2076 162.867 27.8009 162.352 28.2952C161.837 28.8143 161.192 29.185 160.445 29.4322C159.697 29.7041 158.847 29.8277 157.893 29.8277C157.017 29.8277 156.218 29.7041 155.497 29.4569C154.775 29.2345 154.182 28.8637 153.667 28.3941C153.151 27.9244 152.739 27.3312 152.481 26.6144C152.198 25.8976 152.069 25.082 152.069 24.1674V14.7502C152.069 14.676 152.069 14.6266 152.12 14.5771C152.146 14.5277 152.198 14.503 152.275 14.4783C152.352 14.4535 152.455 14.4288 152.584 14.4041C152.739 14.3794 152.894 14.3794 153.1 14.3794C153.306 14.3794 153.461 14.3794 153.615 14.4041C153.744 14.4288 153.847 14.4535 153.924 14.4783C154.002 14.503 154.079 14.5277 154.105 14.5771C154.131 14.6266 154.156 14.676 154.156 14.7502V23.9202C154.156 24.6123 154.234 25.2303 154.414 25.7493C154.594 26.2684 154.852 26.7133 155.187 27.0593C155.522 27.4054 155.935 27.6773 156.424 27.8503C156.888 28.0233 157.429 28.0975 158.022 28.0975C158.641 28.0975 159.182 28.0233 159.646 27.8503C160.136 27.6773 160.522 27.4301 160.857 27.0841C161.192 26.738 161.45 26.3178 161.63 25.7988C161.785 25.2797 161.888 24.6865 161.888 24.0191V14.7502C161.888 14.676 161.888 14.6266 161.94 14.5771C161.965 14.5277 162.017 14.503 162.094 14.4783C162.197 14.4535 162.3 14.4288 162.429 14.4041C162.558 14.3794 162.739 14.3794 162.919 14.3794C163.125 14.3794 163.306 14.3794 163.434 14.4041C163.563 14.4288 163.666 14.4535 163.744 14.4783C163.821 14.503 163.873 14.5277 163.924 14.5771C163.95 14.6266 163.976 14.676 163.976 14.7502V24.0191Z" fill="#353535" stroke="#353535" stroke-width="0.0762"/>
</svg>
