<svg width="42" height="42" viewBox="0 0 42 42" fill="none" xmlns="http://www.w3.org/2000/svg">
    <circle cx="21" cy="21" r="21" fill="#8CCEEF"/>
    <path d="M30.2111 17.876V25.3753C30.2111 26.1399 29.9186 26.8755 29.3935 27.4313C28.8684 27.987 28.1505 28.3208 27.3871 28.3641L27.2177 28.3687H14.7835C14.0189 28.3687 13.2832 28.0762 12.7275 27.5511C12.1717 27.026 11.8379 26.3081 11.7946 25.5447L11.79 25.3753V17.876L20.68 22.5329C20.7789 22.5847 20.8889 22.6118 21.0006 22.6118C21.1122 22.6118 21.2222 22.5847 21.3211 22.5329L30.2111 17.876ZM14.7835 13.6318H27.2177C27.9597 13.6317 28.6752 13.9072 29.2256 14.4048C29.776 14.9025 30.1219 15.5868 30.1964 16.325L21.0006 21.1421L11.8048 16.325C11.8762 15.6161 12.1981 14.9559 12.7127 14.4631C13.2273 13.9702 13.9008 13.6771 14.6121 13.6364L14.7835 13.6318H27.2177H14.7835Z" fill="white"/>
</svg>
