<svg width="24" height="24" viewBox="0 0 24 24" fill="none" xmlns="http://www.w3.org/2000/svg">
    <path d="M12 0.333252C5.56701 0.333252 0.333344 5.56692 0.333344 11.9999V16.8334C0.333344 18.0281 1.37984 18.9999 2.66668 18.9999H3.83334C4.14276 18.9999 4.43951 18.877 4.6583 18.6582C4.87709 18.4394 5.00001 18.1427 5.00001 17.8333V11.8331C5.00001 11.5237 4.87709 11.2269 4.6583 11.0081C4.43951 10.7893 4.14276 10.6664 3.83334 10.6664H2.77401C3.42268 6.15142 7.30768 2.66659 12 2.66659C16.6923 2.66659 20.5773 6.15142 21.226 10.6664H20.1667C19.8573 10.6664 19.5605 10.7893 19.3417 11.0081C19.1229 11.2269 19 11.5237 19 11.8331V18.9999C19 20.2868 17.9535 21.3333 16.6667 21.3333H14.3333V20.1666H9.66668V23.6666H16.6667C19.2403 23.6666 21.3333 21.5736 21.3333 18.9999C22.6202 18.9999 23.6667 18.0281 23.6667 16.8334V11.9999C23.6667 5.56692 18.433 0.333252 12 0.333252Z"
          fill="currentColor"/>
</svg>
