<svg viewBox="0 0 20 21" fill="none" xmlns="http://www.w3.org/2000/svg">
<path d="M15.5002 21C14.9664 21.0062 14.4385 20.8888 13.9576 20.657C13.4768 20.4251 13.0561 20.0852 12.7285 19.6638C12.4008 19.2423 12.1752 18.7508 12.0692 18.2276C11.9631 17.7044 11.9796 17.1638 12.1172 16.648L5.85722 13.07C5.32914 13.5538 4.66515 13.8637 3.95514 13.9576C3.24513 14.0515 2.52341 13.925 1.8877 13.5951C1.25199 13.2653 0.733006 12.748 0.401012 12.1134C0.0690168 11.4788 -0.0599461 10.7576 0.0315849 10.0472C0.123116 9.33691 0.430719 8.67188 0.912744 8.14218C1.39477 7.61247 2.02793 7.2437 2.72649 7.08577C3.42506 6.92785 4.15528 6.98841 4.81828 7.25926C5.48129 7.53011 6.04504 7.99816 6.43322 8.60003L12.1162 5.35103C12.0427 5.07321 12.0037 4.78739 12.0002 4.50003C11.9933 3.68826 12.2662 2.89889 12.7732 2.26483C13.2801 1.63077 13.99 1.19074 14.7834 1.01885C15.5768 0.846958 16.4052 0.953694 17.1291 1.32109C17.853 1.68848 18.4282 2.29409 18.7579 3.03594C19.0875 3.7778 19.1515 4.61058 18.939 5.39407C18.7265 6.17757 18.2505 6.86391 17.5912 7.33753C16.9319 7.81116 16.1295 8.04314 15.3192 7.99442C14.5088 7.9457 13.74 7.61924 13.1422 7.07003L6.99222 10.585C6.98522 10.845 6.94922 11.102 6.88322 11.353L13.1432 14.93C13.5622 14.5455 14.0687 14.2691 14.6187 14.1246C15.1687 13.9802 15.7457 13.9722 16.2995 14.1012C16.8534 14.2303 17.3674 14.4926 17.7969 14.8653C18.2264 15.238 18.5585 15.7098 18.7643 16.2399C18.9702 16.7701 19.0436 17.3424 18.9781 17.9073C18.9127 18.4722 18.7104 19.0126 18.3888 19.4816C18.0671 19.9506 17.636 20.334 17.1326 20.5986C16.6292 20.8632 16.0689 21.001 15.5002 21ZM15.5002 16C15.1024 16 14.7209 16.1581 14.4396 16.4394C14.1583 16.7207 14.0002 17.1022 14.0002 17.5C14.0002 17.8979 14.1583 18.2794 14.4396 18.5607C14.7209 18.842 15.1024 19 15.5002 19C15.898 19 16.2796 18.842 16.5609 18.5607C16.8422 18.2794 17.0002 17.8979 17.0002 17.5C17.0002 17.1022 16.8422 16.7207 16.5609 16.4394C16.2796 16.1581 15.898 16 15.5002 16ZM3.50022 9.00003C3.10239 9.00003 2.72086 9.15806 2.43956 9.43937C2.15825 9.72067 2.00022 10.1022 2.00022 10.5C2.00022 10.8979 2.15825 11.2794 2.43956 11.5607C2.72086 11.842 3.10239 12 3.50022 12C3.89804 12 4.27957 11.842 4.56088 11.5607C4.84218 11.2794 5.00022 10.8979 5.00022 10.5C5.00022 10.1022 4.84218 9.72067 4.56088 9.43937C4.27957 9.15806 3.89804 9.00003 3.50022 9.00003ZM15.5002 3.00003C15.3032 3.00003 15.1082 3.03883 14.9262 3.11421C14.7442 3.18959 14.5788 3.30008 14.4396 3.43937C14.3003 3.57866 14.1898 3.74401 14.1144 3.926C14.039 4.10799 14.0002 4.30305 14.0002 4.50003C14.0002 4.69701 14.039 4.89206 14.1144 5.07405C14.1898 5.25604 14.3003 5.4214 14.4396 5.56069C14.5788 5.69998 14.7442 5.81047 14.9262 5.88585C15.1082 5.96123 15.3032 6.00003 15.5002 6.00003C15.898 6.00003 16.2796 5.84199 16.5609 5.56069C16.8422 5.27938 17.0002 4.89785 17.0002 4.50003C17.0002 4.1022 16.8422 3.72067 16.5609 3.43937C16.2796 3.15806 15.898 3.00003 15.5002 3.00003Z" fill="currentColor"/>
</svg>
