<svg viewBox="0 0 12 12" xmlns="http://www.w3.org/2000/svg">
    <path d="M11.8375 10.7316L5.40854 4.87861L5.70779 4.57861C5.94377 4.34165 6.08512 4.02667 6.10529 3.69286C6.11715 3.68786 6.12867 3.6821 6.13979 3.67561L7.34654 2.92111C7.42535 2.82504 7.46614 2.70338 7.46116 2.57922C7.45619 2.45506 7.40579 2.33706 7.31954 2.24761L5.22029 0.143107C5.13117 0.0568153 5.01339 0.00636398 4.88944 0.0013838C4.76549 -0.00359639 4.64404 0.0372433 4.54829 0.116107L3.79529 1.32661L3.77879 1.36111C3.45629 1.38136 3.13979 1.51411 2.89529 1.75936L1.75379 2.90461C1.50854 3.14986 1.37654 3.46711 1.35629 3.79036C1.34442 3.79535 1.3329 3.80111 1.32179 3.80761L0.115035 4.56211C0.0362211 4.65817 -0.00457017 4.77984 0.000407228 4.90399C0.00538463 5.02815 0.0557841 5.14616 0.142035 5.23561L2.24129 7.34011C2.33041 7.4264 2.44818 7.47685 2.57213 7.48183C2.69608 7.48681 2.81753 7.44597 2.91329 7.36711L3.66629 6.15661L3.68354 6.12211C4.00604 6.10186 4.32254 5.96911 4.56704 5.72386L4.89854 5.39161L10.7358 11.8386C10.9053 12.0254 11.1655 12.0554 11.3155 11.9054L11.9058 11.3136C12.055 11.1636 12.025 10.9019 11.839 10.7324L11.8375 10.7316Z"
    fill="currentColor"
    />
</svg>
