<svg width="20" height="21" viewBox="0 0 20 21" fill="none" xmlns="http://www.w3.org/2000/svg">
    <path d="M14.6 9.5199C15.5273 9.5199 16.28 10.2725 16.28 11.1999V15.0399C16.28 15.4855 16.103 15.9128 15.7879 16.2278C15.4729 16.5429 15.0456 16.7199 14.6 16.7199H10.016L9.96799 16.6719C10.3213 15.9644 10.52 15.1647 10.52 14.3199C10.52 13.19 10.1648 12.1426 9.55999 11.2834V10.9599H9.31327C8.86944 10.4225 8.32399 9.97784 7.70815 9.65142C7.90879 9.56694 8.12863 9.5199 8.35999 9.5199H14.6ZM11 13.8399V15.2799H14.6C14.6636 15.2799 14.7247 15.2546 14.7697 15.2096C14.8147 15.1646 14.84 15.1036 14.84 15.0399V13.8399H11ZM14.84 12.3999V11.1999C14.84 11.1363 14.8147 11.0752 14.7697 11.0302C14.7247 10.9852 14.6636 10.9599 14.6 10.9599H11V12.3999H14.84ZM17.24 18.1599H11.456L11.9475 18.6524C12.2144 18.9183 12.3728 19.2533 12.4227 19.5999H17.24C17.7492 19.5999 18.2376 19.3976 18.5976 19.0375C18.9577 18.6775 19.16 18.1891 19.16 17.6799V7.91478C19.1599 7.40561 18.9575 6.91733 18.5974 6.55734L13.0016 0.962462C12.9868 0.948665 12.971 0.935838 12.9545 0.924062C12.9427 0.914894 12.9311 0.905288 12.92 0.895262C12.8539 0.83293 12.7837 0.775195 12.7097 0.722462C12.6852 0.706605 12.6595 0.69249 12.6329 0.680222L12.5869 0.657182L12.5389 0.629342C12.487 0.599582 12.4342 0.568862 12.3795 0.545822C12.1883 0.469467 11.986 0.424723 11.7805 0.413342C11.7615 0.412106 11.7426 0.409863 11.7238 0.406622C11.6978 0.402598 11.6715 0.400353 11.6451 0.399902H5.71999C5.21077 0.399902 4.72241 0.602187 4.36234 0.962257C4.00227 1.32233 3.79999 1.81069 3.79999 2.3199V9.23862C4.26853 9.10631 4.75312 9.03944 5.23999 9.0399V2.3199C5.23999 2.1926 5.29056 2.07051 5.38058 1.98049C5.4706 1.89047 5.59269 1.8399 5.71999 1.8399H11.48V6.1599C11.48 6.66912 11.6823 7.15748 12.0423 7.51755C12.4024 7.87762 12.8908 8.0799 13.4 8.0799H17.72V17.6799C17.72 17.8072 17.6694 17.9293 17.5794 18.0193C17.4894 18.1093 17.3673 18.1599 17.24 18.1599ZM16.6429 6.6399H13.4C13.2727 6.6399 13.1506 6.58933 13.0606 6.49931C12.9706 6.4093 12.92 6.28721 12.92 6.1599V2.91606L16.6429 6.6399ZM5.23999 18.6399C6.13712 18.6412 7.01219 18.3619 7.74271 17.8412L10.2512 20.3487C10.3171 20.4194 10.3966 20.4762 10.4849 20.5155C10.5732 20.5549 10.6686 20.576 10.7652 20.5778C10.8619 20.5795 10.958 20.5617 11.0476 20.5255C11.1373 20.4892 11.2187 20.4354 11.2871 20.367C11.3554 20.2986 11.4093 20.2172 11.4455 20.1275C11.4818 20.0379 11.4995 19.9418 11.4978 19.8452C11.4961 19.7485 11.475 19.6531 11.4356 19.5648C11.3963 19.4765 11.3395 19.397 11.2688 19.3311L8.76127 16.8226C9.32231 16.0333 9.60185 15.0783 9.55502 14.111C9.50819 13.1437 9.13771 12.2202 8.50305 11.4887C7.86838 10.7573 7.00634 10.2603 6.05532 10.0775C5.1043 9.89477 4.11945 10.0369 3.25887 10.481C2.3983 10.9251 1.71191 11.6455 1.30989 12.5266C0.907877 13.4076 0.813553 14.3982 1.04206 15.3392C1.27057 16.2803 1.80866 17.1173 2.56995 17.7159C3.33124 18.3145 4.27157 18.6399 5.23999 18.6399ZM5.23999 17.1999C4.47617 17.1999 3.74363 16.8965 3.20352 16.3564C2.66342 15.8163 2.35999 15.0837 2.35999 14.3199C2.35999 13.5561 2.66342 12.8235 3.20352 12.2834C3.74363 11.7433 4.47617 11.4399 5.23999 11.4399C6.00381 11.4399 6.73635 11.7433 7.27646 12.2834C7.81656 12.8235 8.11999 13.5561 8.11999 14.3199C8.11999 15.0837 7.81656 15.8163 7.27646 16.3564C6.73635 16.8965 6.00381 17.1999 5.23999 17.1999Z"
          fill="currentColor"/>
</svg>
