<svg width="76" height="76" viewBox="0 0 76 76" fill="none" xmlns="http://www.w3.org/2000/svg">
    <path fill-rule="evenodd" clip-rule="evenodd" d="M10.6915 60.916C13.5055 60.916 14.4895 63.284 15.2755 64.458C17.3655 64.278 18.6915 63.79 19.7875 65.154C20.4935 66.034 20.4835 66.672 20.4835 67.79C17.1495 67.79 17.1715 67.638 17.3575 69.874C19.4355 70.358 28.9035 70.082 31.7335 70.082V72.582H2.9835V70.082H13.3995C14.0395 70.082 14.2335 69.472 14.2335 68.832C14.2335 67.302 10.9835 67.79 9.4415 67.79C7.4975 67.79 5.5535 67.79 3.6095 67.79C3.7015 66.672 4.0855 66.236 5.0075 65.856C7.3755 64.882 5.1675 63.978 8.0315 61.798C8.6235 61.346 9.7475 60.916 10.6915 60.916ZM21.3155 63.208C22.5675 62.37 22.7195 61.958 24.6495 61.958C26.7895 61.958 29.0235 63.932 29.0235 66.124V67.79H22.7755C22.7755 65.274 22.7495 65.346 21.3155 63.208ZM27.5655 51.542C27.1095 50.86 27.0215 51.252 26.9415 50.292C27.5255 50.136 27.9915 49.678 28.4475 49.298C28.9475 48.88 29.3695 48.572 29.8575 48.208L31.9795 46.58C32.0875 46.502 32.2495 46.384 32.3395 46.314L41.1355 39.488C42.5255 38.446 49.3055 33 49.8575 33C50.7335 33 69.8095 48.514 72.7735 50.5C72.5275 50.964 72.4255 51.126 72.1475 51.542C71.0675 50.97 56.6375 39.634 54.2295 37.794C48.6275 33.514 51.1055 33.6 44.1715 38.774L35.9575 45.142C34.5635 46.184 28.5775 51.006 27.5655 51.542ZM10.6915 13.834V6.95997H15.6915V10.084C15.1535 10.228 13.6815 11.466 13.1435 11.91C12.7095 12.27 12.4115 12.492 11.9695 12.822C11.4675 13.196 11.1455 13.53 10.6915 13.834ZM3.8175 23.626L3.1575 22.824C3.7735 21.922 10.1795 17.158 11.5275 16.128C12.0695 15.714 12.3155 15.468 12.9435 15.044L22.6775 7.48797C27.0015 3.96597 25.2655 4.37397 31.8815 9.30997L40.4515 15.948C41.4715 16.712 48.4855 21.988 49.0235 22.792L48.3995 23.626C45.8295 22.266 27.4075 6.87797 26.1015 6.83597C25.4075 6.81397 23.8575 8.19997 23.2555 8.68997L6.7035 21.512C5.7275 22.242 4.8775 23.064 3.8175 23.626ZM9.2335 3.41797H17.1495V4.66797H9.2335V3.41797ZM6.7335 3.83397C6.7335 5.30797 6.9355 6.61797 8.3995 6.95997V15.71C6.9035 16.502 5.6955 17.698 4.3535 18.746C1.3375 21.104 -0.966503 21.486 1.6855 24.716C4.1795 27.754 4.2795 26.036 7.5675 23.834V59.458C6.0715 59.806 4.9275 61.39 4.3855 62.736C3.6275 64.62 3.2575 63.66 2.2655 64.99C1.1735 66.454 1.5595 67.434 0.993497 68.704C0.455497 69.908 0.691496 71.596 0.691496 72.998C0.691496 74.628 1.9675 75.082 3.6095 75.082H70.6895C73.2055 75.082 73.1255 72.582 71.1055 72.582H68.3975V51.75C71.1815 53.614 71.8975 55.822 74.1735 52.734C75.3495 51.14 76.2715 50.202 74.4455 48.828L66.5835 42.732C64.3655 41.088 51.4995 30.708 50.6915 30.708C47.1115 30.708 48.0355 31.566 44.6495 33.834C44.6495 32.128 45.1035 29.668 43.3995 29.668C42.8975 29.668 42.7875 30.004 42.3575 30.292V35.708C40.5455 36.666 38.3915 38.676 36.6415 39.992L25.1495 48.916C23.6055 50.086 24.3275 51.294 25.4335 52.632C27.7335 55.42 27.6535 54.624 33.3115 50.204C35.2035 48.726 36.9455 47.314 38.8155 45.916C42.2075 43.382 46.5595 39.584 49.8575 37.374C50.5695 37.852 51.1135 38.372 51.8495 38.924C56.3635 42.32 60.6695 45.986 65.2515 49.272C65.6415 49.552 66.1075 49.696 66.1075 50.292V72.582H57.3575L57.1495 69.874C54.9815 68.834 54.8575 70.83 54.8575 72.582H44.8575V55.916H54.8575V64.666C54.8575 66.546 55.7775 66.99 57.1495 66.332C57.6935 63.988 57.3575 58.406 57.3575 55.708C57.3575 54.538 56.4435 53.624 55.2735 53.624C53.4515 53.624 44.2015 53.238 43.1535 54.004C42.9095 54.18 42.3575 54.938 42.3575 55.292V72.582H34.2335C34.2335 69.928 34.7055 67.79 31.3155 67.79C31.3655 65.562 31.3675 64.26 29.9195 62.312C27.5655 59.144 22.6235 58.78 19.7715 61.454C18.8015 62.364 19.0555 61.878 17.9375 61.816C17.3295 61.784 17.2295 61.942 16.5255 61.958C15.1135 59.85 13.0775 58.624 9.8575 58.624V22.376C9.8575 21.646 13.2015 19.46 13.7675 18.994L26.1075 9.45997C29.3275 11.616 36.7855 18.034 40.1895 20.378C41.0395 20.964 41.5515 21.418 42.3575 21.958C42.3575 23.242 41.6675 26.586 43.2835 26.838C44.8775 27.084 44.6495 24.832 44.6495 23.834C46.9995 25.408 48.2215 27.818 50.3355 24.936C52.8255 21.538 51.8715 21.852 48.8435 19.43L42.5035 14.52C41.9595 14.06 41.5215 13.848 40.9455 13.37L29.7995 4.72597C27.4635 2.98397 26.2535 1.68397 23.8415 3.65197C22.9315 4.39397 18.7515 7.79597 17.9835 8.00197C17.9835 5.93997 19.6495 7.28997 19.6495 4.04197C19.6495 3.29397 19.4755 2.29797 19.1595 1.82397C18.8595 1.37197 18.0395 0.917969 17.3575 0.917969H9.2335C7.3715 0.917969 6.7335 1.97197 6.7335 3.83397Z" fill="#8BCEEF"/>
    <path fill-rule="evenodd" clip-rule="evenodd" d="M27.3574 32.584H31.1074V36.958H27.3574V32.584ZM20.8994 33.208C20.8994 32.728 21.0454 32.584 21.5254 32.584H24.8574V36.958H20.8994V33.208ZM27.3574 26.542H31.1074V30.292H27.3574V26.542ZM20.8994 26.542H24.8574V30.292H20.8994V26.542ZM27.3574 19.668H31.1074V24.042H27.3574V19.668ZM20.8994 20.292C20.8994 19.812 21.0454 19.668 21.5254 19.668H24.8574V24.042H20.8994V20.292ZM18.6074 19.458V36.958C18.6074 38.57 19.4974 39.458 21.1074 39.458H31.1074C32.4534 39.458 33.6074 38.678 33.6074 37.374V19.458C33.6074 18.962 33.3634 18.396 33.1074 18.084C32.9074 17.838 32.2874 17.376 31.9414 17.376H20.2754C19.6394 17.376 18.6074 18.334 18.6074 19.458Z" fill="#8BCEEF"/>
    <path fill-rule="evenodd" clip-rule="evenodd" d="M45.4811 61.54C45.2251 62.646 44.6711 66.124 46.3151 66.124C46.8771 66.124 46.8891 66.024 47.3571 65.916C47.7271 64.33 48.2771 60.456 45.4811 61.54Z" fill="#8CCEEF"/>
</svg>
