<svg width="60" height="30" viewBox="0 0 60 30" fill="none" xmlns="http://www.w3.org/2000/svg">
<path fill-rule="evenodd" clip-rule="evenodd" d="M44.6267 23.8573C44.6267 17.676 52.516 18.7146 52.516 23.036V23.8573C52.516 25.8093 50.748 27.4733 48.408 27.4733C46.5347 27.4733 44.6267 25.7293 44.6267 23.8573ZM59.584 16.2V23.0706C59.5573 23.4813 59.5227 23.7826 59.4773 23.9146C59.168 24.82 58.44 25.5613 57.4787 25.8613C56.6533 26.1186 54.9493 25.9946 53.8307 25.9946C53.18 27.2253 52.968 27.5106 51.8613 28.2973C49.0773 30.272 45.1293 29.4266 43.312 25.9946H29.0133C25.8373 25.9946 25.7267 26.3346 25.7267 24.6786C26.3893 24.236 26.3867 24.172 27.528 24.1786L42.82 24.1866V22.0493H19.8107C19.996 22.8453 19.9747 23.1933 19.9747 24.1866C21.204 24.1866 22.256 24.116 23.2613 24.3506C23.7333 26.3746 23.3587 25.9946 19.4813 25.9946C18.5947 27.3173 17.9733 28.2013 16.4453 28.876C15.572 29.2613 14.524 29.3613 13.4053 29.2773C12.2187 29.188 10.8453 28.4106 10.1493 27.7653C8.34935 26.096 9.55868 25.7333 7.84402 25.4693C6.54802 25.2693 5.19868 24.904 3.86802 24.6786C1.36668 24.2586 0.613349 24.1506 0.416016 23.1066V19.168V17.6506C0.460016 16.612 0.757349 16.2973 2.38935 16.2973C2.38935 14.812 2.13868 10.6853 2.54002 9.71064C3.33335 7.78798 5.23068 8.24398 7.81202 8.24398C8.04668 7.36664 10.3747 5.24797 11.052 4.74531C13.1747 3.17064 14.1747 2.53197 16.5187 1.66531C17.6253 1.25731 19.3 0.830641 20.4893 0.705308C21.432 0.606641 22.768 0.685307 23.7547 0.683974C28.6813 0.671974 33.0747 1.48531 37.0014 4.19997C37.6894 4.67597 38.3533 5.16398 38.9187 5.73598C39.5453 6.37198 40.036 6.68264 40.6427 7.29731C42.5253 9.20131 42.36 9.22664 43.4893 9.10131C44.5253 8.98664 49.4827 8.80798 48.2707 10.7173C47.7933 11.4693 45.7173 10.784 43.784 11.012C41.8853 11.236 38.9027 10.864 37.232 10.872L30.8173 10.7133C29.6307 10.7173 29.0027 10.54 27.7 10.544C25.3733 10.5533 23.456 10.456 21.12 10.3853C20.308 10.3613 20.2973 10.2346 19.4867 10.2106C18.1627 10.1706 15.6347 10.3253 14.5867 10.1813C13.6333 10.048 12.888 9.63864 12.636 8.66131C12.2427 7.13731 15.0747 5.00397 16.2147 4.15597C16.436 3.99197 16.4867 3.95731 16.696 3.81464C16.8173 3.73197 16.856 3.71064 16.9907 3.61731L17.18 3.47731C15.6373 3.60664 12.8107 5.66531 11.6413 6.64931C10.8413 7.32131 10.12 8.09464 9.50135 8.94664C8.53735 10.2773 9.01868 10.052 6.33335 10.052C6.75868 10.8573 7.27602 11.452 7.78268 12.2173C8.72002 13.632 8.81068 16.5413 6.17468 16.632C3.26135 16.7306 4.81735 16.3053 4.03202 17.9413C3.52935 18.1826 2.98002 18.2693 2.22402 18.2693V20.0773H9.45601C9.75601 19.628 9.88668 19.4453 10.2853 19.1C13.1213 16.6493 17.448 17.4786 18.824 20.0773H43.9693C44.396 18.4826 47.6573 17.04 50.532 17.9533C51.0467 18.1173 51.7253 18.4653 52.1427 18.8066C54.3013 20.572 52.0653 20.0773 57.776 20.0773V19.42C55.6653 19.42 53.164 19.0973 52.1894 17.1146C50.8547 14.3973 54.2933 14.1493 56.132 13.996L55.4253 13.5533C55.152 13.4133 55.0307 13.352 54.764 13.228C53.5187 12.6506 51.288 12.0293 50.544 11.5306V10.5453C51.0733 10.1906 51.192 9.99997 51.876 10.1786C52.412 10.3173 52.948 10.528 53.3653 10.6826C56.004 11.6626 59.3387 12.844 59.5787 16.1373L59.584 16.2ZM10.1133 23.5293C10.1133 18.2706 18.1667 18.0826 18.1667 23.5293C18.1667 26.936 13.884 28.8733 11.296 26.2893C10.7227 25.716 10.1133 24.6133 10.1133 23.5293ZM54.324 22.0493H57.776C57.776 24.352 57.4053 24.1866 54.488 24.1866C54.488 22.8813 54.3413 22.68 54.324 22.0493ZM8.30535 23.6933C7.21068 23.4386 3.08802 22.5426 2.22402 22.5426V22.0493H8.46935C8.31335 22.7226 8.30535 22.8213 8.30535 23.6933ZM53.8307 16.1333C54.5747 16.116 54.484 15.968 55.3107 15.968H57.776V17.612C56.3493 17.612 54.5493 17.4893 53.8307 16.1333ZM6.00402 14.8186H4.19602V10.5453C4.72935 10.9013 6.49735 13.52 6.49735 13.832C6.49735 14.4973 6.58935 14.8186 6.00402 14.8186ZM26.8773 8.73731L20.8013 8.40264C19.788 8.37198 18.692 8.40531 17.6707 8.41064C16.424 8.41731 15.8427 8.24398 14.5507 8.24398C16.1533 5.85064 21.3253 2.65597 25.3973 2.65597H26.8773C26.8773 3.63997 27.2053 4.63064 27.2053 5.61464C27.2053 6.73064 26.8773 7.68664 26.8773 8.73731ZM28.8147 2.82264C30.044 3.09864 31.0987 3.31597 32.224 3.71864C35.592 4.92664 36.736 6.51864 38.6413 7.98531C39.092 8.33197 39.408 8.63464 39.6973 9.06531C36.26 9.06531 32.0133 8.73731 28.6853 8.73731C29.2133 6.47197 28.968 5.10664 28.8147 2.82264Z" fill="#8BCDEF"/>
<path fill-rule="evenodd" clip-rule="evenodd" d="M47.5856 23.6933L47.751 22.7067C48.0883 22.5453 48.4083 22.38 48.8176 22.4653C50.0243 22.7187 49.7163 24.5147 48.5723 24.5147C48.1536 24.5147 47.5856 24.16 47.5856 23.6933ZM48.4083 26.3227C52.6056 26.3227 52.335 20.5707 48.5723 20.5707C44.759 20.5707 44.8363 26.3227 48.4083 26.3227Z" fill="#8BCDEE"/>
<path fill-rule="evenodd" clip-rule="evenodd" d="M15.2096 23.364C15.2096 24.924 13.8403 24.452 13.4016 24.3507C12.2816 22.016 15.2096 22.032 15.2096 23.364ZM11.2656 23.364C11.2656 24.936 12.4803 26.3227 13.731 26.3227C14.6843 26.3227 15.3696 26.3867 16.203 25.508C18.0816 23.524 16.503 20.5707 14.2243 20.5707C12.6776 20.5707 11.2656 21.8173 11.2656 23.364Z" fill="#8BCDEE"/>
<path fill-rule="evenodd" clip-rule="evenodd" d="M29.0117 12.6813C29.0984 12.86 29.1571 13.668 30.3264 13.668C32.5317 13.668 31.2571 10.6866 29.4757 11.9946C29.1771 12.2146 29.1731 12.3786 29.0117 12.6813Z" fill="#8BCDEE"/>
<path fill-rule="evenodd" clip-rule="evenodd" d="M17.3447 13.6679C18.0473 13.6679 18.5807 13.2159 18.574 12.7053C18.554 11.3746 16.134 11.3746 16.1153 12.7053C16.1073 13.2159 16.6407 13.6679 17.3447 13.6679Z" fill="#8CCEEE"/>
</svg>
