<svg width="40" height="40" viewBox="0 0 40 40" fill="none" xmlns="http://www.w3.org/2000/svg">
<path fill-rule="evenodd" clip-rule="evenodd" d="M17.6411 34.5858C17.6411 34.2569 17.7398 33.9422 18.0695 33.9422C19.1904 33.9422 21.2642 33.8195 22.2526 34.0498C22.3984 34.6747 22.354 35.1236 22.354 35.8791C22.3531 36.6578 22.4535 36.9227 23.2118 36.952C24.4704 37.0009 25.9966 36.8009 27.0793 37.0533L27.186 38.0187H12.8144L12.922 37.0533C13.9691 36.8089 17.9815 36.9413 19.5718 36.9458C20.7833 36.9493 20.8429 37.1413 21.2873 36.3022C20.7851 35.3529 20.7504 35.6587 17.6411 35.6587V34.5858ZM32.4393 0.694214H32.874C33.7078 0.783992 34.4793 1.38399 34.4793 2.41066C34.4793 3.41155 34.2598 3.38666 33.8358 4.01955C34.0144 4.35644 34.0446 4.54399 34.202 4.93955C34.8882 6.66044 39.306 17.1458 39.306 17.5333C39.306 19.7413 38.5958 21.1138 37.2438 22.4427C33.266 26.3493 26.0064 23.5822 26.0064 17.64C26.0064 17.2089 26.5024 16.2409 26.666 15.8338C26.8864 15.2871 27.098 14.7511 27.3389 14.1467L31.4758 3.91199C31.2482 3.74488 31.3371 3.90399 31.2615 3.59021L24.6571 5.45866C24.0206 5.64177 23.1069 6.00444 22.4669 6.05688C22.4669 7.20977 21.8233 7.53244 21.8233 7.88088V32.656C23.8375 32.7004 23.6464 34.5164 23.6464 35.6587C25.6793 35.6587 28.4731 35.1698 28.4731 37.4818C28.4731 38.1707 28.6544 39.3049 27.9371 39.3049H13.2482C12.4242 39.2809 11.8429 39.2462 11.6349 39.1982C11.4571 38.4364 11.5273 38.3929 11.5273 37.4818C11.5273 35.1698 14.322 35.6587 16.354 35.6587C16.354 34.5582 16.1691 32.656 18.1771 32.656V7.88088C18.1771 7.32888 17.6295 7.45777 17.2349 7.5751L9.1682 9.81066C9.09887 10.6444 8.86598 10.6951 8.52465 11.2053C8.63131 11.6649 8.99753 12.5298 9.20465 12.992C9.4642 13.5724 9.64998 14.0711 9.88731 14.6684C10.4606 16.1075 13.994 24.2791 13.994 25.0409C13.994 30.232 7.3842 33.8835 2.6722 29.6053C1.77265 28.7893 0.695312 26.9333 0.695312 25.2551C0.695312 24.056 1.54776 22.5342 1.99753 21.4098C2.22153 20.8471 2.44198 20.248 2.70242 19.648C2.95398 19.0702 3.13531 18.5164 3.37887 17.9653C3.8642 16.8675 4.32998 15.6862 4.78598 14.5458L6.16465 11.0978C5.46953 10.6329 5.52109 10.1635 5.52109 9.48888C5.52109 8.66488 6.44376 7.88088 7.3442 7.88088C8.25176 7.88088 8.33798 8.29155 8.84642 8.6311C9.54776 8.46755 10.322 8.19999 11.0038 7.99999L17.5335 6.16444C17.5335 3.17332 21.5753 3.14577 22.0384 4.87733L24.29 4.23377C25.0064 4.03466 25.7753 3.79821 26.4571 3.61244C27.9558 3.20532 29.3318 2.75999 30.8331 2.41066C30.9229 1.32799 31.6553 0.778658 32.4393 0.694214ZM19.4642 8.52444H20.5362V32.656H19.4642V8.52444ZM7.3442 11.7413C7.44109 12.1555 7.76287 12.8604 7.95131 13.28C8.19131 13.8142 8.34865 14.2507 8.56998 14.8062L11.7415 22.5742C11.9326 23.056 12.2704 23.6907 12.3851 24.1831C11.3051 24.2071 10.946 25.4693 12.7069 25.4693C12.5575 25.7822 12.4144 28.3227 9.70687 29.6551C7.68287 30.6507 5.07754 30.2347 3.56553 28.7129C2.8242 27.9671 2.00553 26.5342 1.98153 25.4693H9.81087C10.2366 25.4693 10.3478 25.0524 10.3478 24.7191C10.3478 24.4613 10.1735 24.4035 10.026 24.1831H2.30331C2.53887 23.1733 4.8802 17.8524 5.39753 16.4444C5.61442 15.8542 5.82865 15.3715 6.04198 14.8364L7.3442 11.7413ZM32.5486 4.55555H32.7629C32.8073 5.08799 33.138 5.63288 33.3318 6.13244L37.0998 15.3413C37.2669 15.7609 37.6633 16.5955 37.6971 16.9964C36.3389 16.9964 36.8473 18.1769 37.3753 18.1769H38.0189C37.9513 21.2107 33.5433 24.9502 29.3451 21.8089C28.5149 21.1875 27.7913 20.2124 27.4811 19.0578C27.1602 17.8658 27.0606 18.1769 30.8331 18.1769C32.37 18.1769 33.9069 18.1769 35.4446 18.1769C35.8633 17.5511 35.8633 17.6222 35.4446 16.9964H27.6153C27.6455 16.6347 28.0349 15.8391 28.1975 15.4338C28.4215 14.8747 28.594 14.4515 28.8251 13.9164L30.0953 10.7902C30.3326 10.1351 32.5104 5.01244 32.5486 4.55555ZM6.8082 9.81066C6.8082 8.82133 7.88109 9.06755 7.88109 9.81066C7.88109 10.16 7.5762 10.2249 7.3442 10.3475C7.11309 10.2249 6.8082 10.16 6.8082 9.81066ZM18.8206 6.16444C18.8206 4.51199 21.1798 4.70666 21.1798 6.05688C21.1798 6.6791 20.6926 7.25955 20.0811 7.29777C19.522 7.33333 18.8206 6.82932 18.8206 6.16444ZM32.1193 2.41066C32.1193 1.92533 33.1922 1.61421 33.1922 2.62488C33.1922 3.30133 32.2535 2.95288 32.2269 2.94666C32.1709 2.70666 32.1193 2.70044 32.1193 2.41066Z" fill="#8BCCED"/>
</svg>
