<svg width="36" height="28" viewBox="0 0 36 28" fill="none" xmlns="http://www.w3.org/2000/svg">
<path fill-rule="evenodd" clip-rule="evenodd" d="M12.7889 22.9529H25.8849C26.0173 24.5547 26.6556 25.0098 26.82 25.6258H11.8538C12.3933 24.8205 12.7889 24.3182 12.7889 22.9529ZM35.6395 17.1209V21.216C35.6395 21.7751 35.1187 22.6294 34.3027 22.8196C34.3027 24.2525 33.8475 24.7191 33.3675 25.6258C34.2449 25.6258 35.6395 25.4489 35.6395 26.2942V26.3227V26.384V26.4C35.6369 26.7031 35.5995 27.0951 35.1044 27.0951H0.896439C0.583551 27.0951 0.361328 26.8738 0.361328 26.5609C0.361328 25.488 1.00399 25.6214 2.49911 25.6258C3.43511 25.6276 4.37022 25.6258 5.30622 25.6258C5.08222 24.7894 4.50444 24.8116 4.50444 22.9529C3.20222 22.9529 0.361328 23.2934 0.361328 21.216V2.90935C0.361328 1.76802 1.22533 0.904907 2.36577 0.904907H22.4102C22.9764 0.904907 23.4929 1.33157 23.7871 1.6658C24.5844 2.57068 24.2813 6.00002 24.2813 7.71913H29.6262C31.0191 7.71913 31.5115 8.25957 31.9889 9.23202C32.4218 10.1129 32.8138 10.8889 33.2342 11.7289C35.0404 15.3414 35.5275 15.808 35.6395 17.1209ZM8.77999 25.6258C5.86266 25.6258 5.28933 22.5742 6.66977 21.1102C8.21466 19.4711 11.3195 20.2471 11.3195 23.0871C11.3195 24.4525 10.1462 25.6258 8.77999 25.6258ZM29.8929 20.2809C33.8342 20.2809 33.8342 25.6258 29.8929 25.6258C26.5898 25.6258 26.6733 20.2809 29.8929 20.2809ZM1.83155 17.4747H3.03422V18.8107H1.83155V17.4747ZM26.9533 11.9956H31.4973C31.9435 11.9956 32.3427 13.1529 32.6991 13.8667C33.0529 14.5742 33.3996 15.3076 33.7684 16.0045H26.9533V11.9956ZM1.83155 2.90935C1.83155 2.59646 2.05288 2.37424 2.36577 2.37424H22.2769C22.6875 2.37424 22.8111 2.76624 22.8111 3.17602V21.4836H12.5222C12.2555 20.3387 10.4911 18.8107 9.04755 18.8107C7.85644 18.8107 7.10711 18.8516 6.02622 19.6649C5.49644 20.0622 4.93377 20.7849 4.77111 21.4836C4.18888 21.4836 3.60933 21.4827 3.02711 21.4898C1.71866 21.5058 1.83155 21.3805 1.83155 20.2809C5.01822 20.2809 4.50444 20.6516 4.50444 16.6729C4.50444 15.7431 2.91688 16.0045 1.83155 16.0045V2.90935ZM25.484 11.4614V16.272C25.484 16.8134 25.628 17.4747 26.1516 17.4747H34.1693V20.9485C34.1693 21.3254 34.1115 21.1965 33.9018 21.3493C33.6369 20.2125 31.9631 18.8107 30.5613 18.8107C28.4724 18.8107 26.7044 19.6854 26.2849 21.4836H24.2813V9.18935H29.7596C30.5391 9.18935 30.8155 9.89513 30.9622 10.5254H25.8849C25.6902 10.8151 25.484 10.9707 25.484 11.4614Z" fill="#8CCDEE"/>
<path fill-rule="evenodd" clip-rule="evenodd" d="M10.1166 5.18052C10.0544 5.44985 9.61619 6.51741 10.9193 6.51741H19.0704C20.5211 6.51741 20.2882 5.04718 19.4713 5.04718C18.1184 5.04718 10.85 4.89607 10.1166 5.18052Z" fill="#8CCDEE"/>
<path fill-rule="evenodd" clip-rule="evenodd" d="M12.6562 8.52178C12.8091 8.80978 12.8891 9.18934 13.3247 9.18934H19.4714C20.2251 9.18934 20.5069 7.71912 19.2038 7.71912H13.458C13.0145 7.71912 12.8154 8.22045 12.6562 8.52178Z" fill="#8CCDEE"/>
<path fill-rule="evenodd" clip-rule="evenodd" d="M7.17578 23.0871C7.17578 24.5662 9.982 25.1725 9.982 22.8196C9.982 21.0987 7.17578 21.0418 7.17578 23.0871Z" fill="#8BCDEF"/>
<path fill-rule="evenodd" clip-rule="evenodd" d="M28.6914 22.9529C28.6914 24.6871 31.4976 25.0907 31.4976 22.8196C31.4976 21.0764 28.6914 21.1271 28.6914 22.9529Z" fill="#8BCDEF"/>
<path fill-rule="evenodd" clip-rule="evenodd" d="M7.17578 5.58132C7.17578 5.94221 7.23978 5.95021 7.31 6.24976C8.02911 6.59465 8.05934 6.50932 8.646 6.11554V5.31465C7.44956 4.68088 7.17578 5.51465 7.17578 5.58132Z" fill="#8BCDEF"/>
</svg>
