<svg width="38" height="32" viewBox="0 0 38 32" fill="none" xmlns="http://www.w3.org/2000/svg">
<path fill-rule="evenodd" clip-rule="evenodd" d="M11.8246 29.6556L11.8935 29.7267C11.8891 29.7223 11.8024 29.68 11.8246 29.6556ZM37.518 24.1734V25.7934C37.4113 26.5223 37.1513 27.3 36.6758 28.12C36.1713 28.9845 35.7158 29.1245 35.2024 29.8889C36.458 29.8889 36.9758 29.6111 37.518 30.3511C37.3802 30.8667 37.4646 31.0467 36.8224 31.0467H1.17798C0.535755 31.0467 0.6202 30.8667 0.482422 30.3511C1.07576 29.5423 1.7602 29.8889 3.95353 29.8889C-0.0842446 26.3778 2.56242 27.5934 1.44909 25.7C0.931311 24.82 0.482422 25.0689 0.482422 24.3334V23.7245C0.484644 19.9023 0.531311 21.9889 1.44909 20.42C2.09576 19.3134 1.26909 19.4289 2.10242 17.8511C1.78242 17.3756 1.40909 17.2511 1.40909 16.6934C1.40909 15.0911 3.95353 15.02 3.95353 13.9156V4.65781C3.95353 3.56448 2.56464 4.17337 2.56464 2.57337C2.56464 1.79337 2.97576 0.953369 3.72242 0.953369H19.2313C19.9713 0.953369 21.6202 2.80892 19.0002 4.19559C19.3024 4.82226 21.258 11.14 21.3158 11.8334C23.478 11.8334 25.0646 12.2956 26.8713 12.2956C26.8713 9.21337 26.3535 7.13115 28.2602 6.97337C28.2602 4.33781 27.6535 2.40226 30.3424 2.34226C30.318 3.42004 30.3135 3.49115 29.4158 3.73115V6.97337C30.8913 7.09559 31.2713 8.59559 30.3424 9.98226C29.4358 9.50226 29.4158 9.54226 29.4158 8.12892H28.2602V12.5267H29.4158C29.4691 11.9023 29.5246 11.8978 29.6469 11.3711C30.8669 11.3978 30.8046 11.3667 30.8046 12.76C33.3269 12.76 34.0158 12.9667 35.4358 13.9156C35.4358 14.9667 35.3046 19.44 35.4935 20.1089C35.5735 20.3956 37.1869 21.9111 37.518 24.1734ZM4.8802 29.6556L4.94909 29.7267C4.94464 29.7223 4.85798 29.68 4.8802 29.6556ZM25.4824 26.1845C25.6491 28.2089 26.7491 28.6711 27.5646 29.8889H12.9824C13.538 29.4045 14.7891 28.4156 15.0735 27.7956C16.0335 25.7089 11.9202 26.1845 25.4824 26.1845ZM26.4069 24.7956C26.4069 22.4223 28.8735 19.9356 31.2691 19.9356C37.8513 19.9356 38.1535 29.8889 31.2691 29.8889C28.6269 29.8889 26.4069 27.48 26.4069 24.7956ZM1.6402 23.6378C1.6402 20.7378 1.90909 22.7867 2.74687 20.5778C3.24464 19.2667 2.67353 19.1867 3.63353 18.2245C4.5802 17.28 4.57798 17.8134 5.81798 17.4C8.12242 16.6334 6.06687 16.2311 9.04687 16.2311C9.80687 16.2311 9.44242 16.4578 9.88464 16.7823C11.5202 17.9756 12.1758 17.0978 13.3024 18.2245C14.4469 19.3689 13.538 19.9889 14.7469 21.6423C15.5046 22.68 15.2958 21.0089 15.2958 23.6378C15.2958 24.6267 14.8602 23.6845 14.1913 25.5423C13.7224 26.8423 14.2291 26.9667 13.3024 27.8934C12.3758 28.82 12.3558 28.3223 11.1202 28.7223C10.8335 28.8134 10.2846 29.0511 10.0135 29.2356C9.97353 29.2623 9.92464 29.3089 9.88464 29.3378C9.83131 29.3778 9.68687 29.5089 9.63353 29.5489C9.02242 29.9845 10.4891 29.8889 7.88909 29.8889C7.3002 29.8889 7.3802 29.6445 7.01576 29.3734C5.03353 27.9178 4.87353 29.1356 3.63353 27.8934C2.45353 26.7156 3.47798 26.34 2.25798 24.64C1.96464 24.2311 1.6402 24.2556 1.6402 23.6378ZM21.5469 15.3045V12.9911C24.078 12.9911 32.0891 14.3311 34.278 14.38V16.6934C31.4958 16.6934 24.0024 16.98 21.778 16.4623C21.658 15.9445 21.5469 15.9311 21.5469 15.3045ZM2.79798 16.9267C3.38242 14.7334 11.0602 12.8867 14.7402 17.2511C16.058 18.8134 17.1491 20.6711 17.1491 23.4067C17.1491 24.2778 16.9958 23.8445 16.918 24.7956L16.4535 21.3245C13.7824 19.5334 16.6891 19.8 14.0891 17.2067C13.0446 16.1645 13.1758 16.4045 11.8558 16.3045C10.1558 16.1778 10.8691 15.0734 9.7402 15.0734C6.02242 15.0734 7.20242 14.9156 6.22909 15.7334L5.2202 16.2734C4.49353 16.4134 4.99131 16.1067 4.06909 16.3423C3.14909 16.5778 3.76687 16.6667 2.79798 16.9267ZM9.97353 4.19559H17.8424C17.9602 5.60226 19.7958 10.0378 19.9269 11.6023C18.6913 11.6023 17.4558 11.6045 16.2224 11.6023C14.5024 11.5956 13.6913 11.2378 12.9824 12.2956C13.2224 12.6556 13.2891 12.9911 13.9069 12.9911H20.158C20.158 14.5667 19.9113 17.8511 22.4735 17.8511H34.278V19.4711C29.6758 17.2645 25.2491 20.6556 25.2491 24.7956H18.3046C18.3046 20.9489 17.7158 17.6956 14.3758 15.3023C10.5491 12.56 8.39798 13.4311 5.34242 13.6845V12.9911L10.8602 12.9511C11.6424 12.7689 11.4846 12.7045 11.8246 12.0645C11.018 11.5245 11.5824 11.6023 9.97353 11.6023V4.19559ZM5.34242 4.19559H8.81575V11.6023H5.34242V4.19559ZM3.95353 2.11115H19.0002V2.8067H3.95353V2.11115Z" fill="#8BCDEE"/>
<path fill-rule="evenodd" clip-rule="evenodd" d="M8.58424 26.4156C3.73535 26.4156 4.3509 19.7022 8.35313 19.7022C12.8953 19.7022 12.7598 26.4156 8.58424 26.4156ZM3.95312 22.7133C3.95312 29.3578 12.982 28.9689 12.982 22.9444C12.982 17 3.95312 17.3422 3.95312 22.7133Z" fill="#8BCDEE"/>
<path fill-rule="evenodd" clip-rule="evenodd" d="M27.7949 24.7956C27.7949 27.9023 31.1149 29.4556 33.4616 27.9156C35.1905 26.7801 35.0127 24.7067 33.4083 26.2134C32.9505 26.6423 32.5438 27.3423 31.7305 27.3423C27.6771 27.3423 28.646 21.9045 31.826 22.6023C33.5149 22.9756 34.6371 25.8445 34.6816 23.7023C34.7416 20.8534 27.7949 20.1267 27.7949 24.7956Z" fill="#8BCDEF"/>
<path fill-rule="evenodd" clip-rule="evenodd" d="M8.81617 24.5645C5.8895 24.5645 6.90951 21.5556 8.12062 21.5556C11.0362 21.5556 9.97395 24.5645 8.81617 24.5645ZM5.57617 22.7134C5.57617 26.7379 10.8451 26.769 11.2162 23.3112C11.4762 20.9112 8.67839 19.4756 6.72728 20.8534C6.41617 21.0712 5.57617 22.3045 5.57617 22.7134Z" fill="#8BCDEE"/>
<path fill-rule="evenodd" clip-rule="evenodd" d="M32.1938 25.0267L31.5494 25.7712C29.4894 25.1845 31.6582 23.0156 32.1938 25.0267ZM29.416 24.7956C29.416 27.2667 33.3516 28.0312 33.3516 24.5645C33.3516 22.6001 29.416 22.3645 29.416 24.7956Z" fill="#8BCDEE"/>
<path fill-rule="evenodd" clip-rule="evenodd" d="M23.1664 21.0912C23.1664 23.549 22.9264 23.4756 23.8597 24.1023C24.7952 23.4756 24.5552 23.549 24.5552 21.0912C24.5552 20.4734 24.2219 20.4067 23.8597 20.1667C23.4997 20.4067 23.1664 20.4734 23.1664 21.0912Z" fill="#8BCDEF"/>
<path fill-rule="evenodd" clip-rule="evenodd" d="M21.3152 20.8601C21.3152 23.9601 21.0552 24.1023 22.2397 24.1023C22.5441 23.5623 22.8197 20.1667 22.0085 20.1667H21.5463C21.3863 20.449 21.3152 20.4134 21.3152 20.8601Z" fill="#8CCEEF"/>
<path fill-rule="evenodd" clip-rule="evenodd" d="M19.4616 20.8601C19.4616 23.9601 19.2016 24.1023 20.3883 24.1023C20.6905 23.5623 20.9683 20.1667 20.1572 20.1667H19.695C19.535 20.449 19.4616 20.4134 19.4616 20.8601Z" fill="#8BCEEE"/>
</svg>
