<svg width="38" height="38" viewBox="0 0 38 38" fill="none" xmlns="http://www.w3.org/2000/svg">
<path fill-rule="evenodd" clip-rule="evenodd" d="M26.4076 24.3244V21.3155H29.881V24.7866C29.2677 24.9511 28.5632 25.5866 28.0276 25.9444C27.7565 25.7622 27.3232 25.4555 27.0854 25.2666C26.7365 24.9888 26.4076 24.9333 26.4076 24.3244ZM19.6965 0.482178H34.9321C35.9943 0.531067 36.8254 0.606622 37.2876 0.713289C37.4054 1.2244 37.5143 1.2444 37.5188 1.84218V1.87107V7.10662C37.4721 8.98662 37.2343 7.97107 36.201 8.88662C35.761 9.27773 35.6654 9.87551 35.4276 10.4266C35.0054 11.4177 34.5365 12.7533 34.0477 13.6755C34.5721 13.8155 34.9721 13.8977 34.9721 14.6022C34.9721 17.6911 35.361 18.0733 33.121 18.0733C33.121 20.2755 33.5121 21.2644 31.2699 21.3155V25.4822C30.3099 25.7377 30.5188 26.1511 28.7232 27.1022V29.88C26.8832 30.3066 27.3343 29.1266 27.3343 27.1022C24.2143 25.0133 24.7876 25.3355 24.7876 21.3155C22.6165 21.2666 22.9365 19.7266 22.9365 18.0733C22.1765 18.0733 21.0832 18.1555 21.0832 16.4533C21.0832 13.9311 21.0965 14.8111 22.0099 13.4444C21.4854 12.3533 21.0476 11.0155 20.5654 9.79773C20.0299 8.43773 20.381 9.10662 19.3499 8.46662C18.0454 7.65996 18.5388 5.04662 18.5388 2.10218C18.5388 1.32218 18.9476 0.482178 19.6965 0.482178ZM22.4743 15.0644H33.5832V16.6844C28.1676 16.6844 27.1121 16.1244 27.5654 18.0733H31.7321V19.9266H24.3254V18.0733C25.6365 18.0733 26.1765 18.2555 26.1765 17.38C26.1765 16.3311 24.9899 16.6844 22.4743 16.6844V15.0644ZM32.6588 13.6755H23.6299C23.2632 12.9844 21.8454 9.61329 21.7788 8.81551H34.5099C34.1854 9.49107 33.9054 10.4177 33.5876 11.1333C33.3343 11.7066 32.7988 13.0733 32.6588 13.6755ZM19.9276 1.87107H36.1299V7.19551H19.9276V1.87107Z" fill="#8BCDEE"/>
<path fill-rule="evenodd" clip-rule="evenodd" d="M13.6758 32.8888C17.6491 33.2177 15.2602 33.2177 19.2313 32.8888C19.2313 34.1088 18.8602 35.0377 18.7691 36.1288H14.3713C14.0935 35.551 13.7002 33.7377 13.6758 32.8888ZM18.3046 37.5177H14.4313C13.3891 37.3843 12.9402 36.9199 12.6802 35.5043C12.4913 34.4888 12.3024 33.2555 12.0558 32.1932C11.6469 32.4666 11.3269 32.6332 10.9113 32.8999C7.56909 35.0288 8.16909 35.8243 5.05353 32.7155C1.69798 29.3643 3.64242 30.0355 5.80687 25.9443C1.82242 25.6132 0.735755 25.0421 0.482422 23.5555V19.6955C0.482422 17.5821 4.18242 17.1843 5.80687 17.1488C4.96242 15.551 3.2602 13.9577 3.2602 12.751C3.2602 11.7577 6.24909 8.35324 7.65798 8.35324C9.56687 8.35324 10.1824 10.231 12.0558 10.6666C13.3624 5.05546 12.1624 5.57546 17.3802 5.57546V6.73101C15.7913 6.86435 16.6469 6.96435 14.1402 6.96435C14.1402 8.31324 13.7046 8.95768 13.6758 10.2043C14.8935 9.9199 19.9269 9.45324 19.9269 10.8977C19.9269 11.991 18.6691 11.3621 15.5291 11.3621C11.0158 11.3621 6.26909 16.1066 6.26909 20.6199V22.7043C6.26909 28.4332 14.5958 35.0199 22.2024 30.0732C24.4046 28.6399 24.6113 27.1021 25.4824 27.1021C27.7158 27.1021 24.058 30.9066 22.7046 31.2688C22.9024 32.0132 24.5202 32.9643 25.2491 33.351C25.9558 32.8799 26.4046 32.2977 27.038 31.6621C27.7958 30.8977 28.2491 30.4866 28.9535 31.4999C28.7046 32.4355 27.9091 32.8777 27.278 33.5288C25.0669 35.8021 24.658 34.5866 21.0824 32.1932C20.058 34.331 20.9202 37.5177 18.3046 37.5177ZM4.59353 30.3977C5.09798 29.4932 6.04909 28.391 6.26909 27.5643C6.87131 27.9666 7.6002 29.0843 8.25798 29.7421C8.91576 30.3999 10.0335 31.1288 10.4358 31.731C9.45353 31.9932 8.80687 33.0443 7.65798 33.351L4.59353 30.3977ZM4.8802 20.3888L5.11131 24.3243C4.29576 24.2555 2.45576 23.911 1.87131 23.6288V19.231C2.96242 19.1399 3.89131 18.7688 5.11131 18.7688C5.05131 19.4932 4.8802 19.591 4.8802 20.3888ZM6.26909 15.5288C5.96242 14.3799 4.91131 13.731 4.64909 12.751L7.60242 9.68435C8.48464 9.96213 9.58687 10.911 10.4358 11.3621C9.9402 12.0355 9.37131 12.0399 8.17131 13.2643C7.50242 13.9488 6.87353 15.0843 6.26909 15.5288Z" fill="#8BCDEE"/>
<path fill-rule="evenodd" clip-rule="evenodd" d="M13.676 21.3156C13.676 18.2089 19.2316 17.6889 19.2316 21.3156C19.2316 23.9956 16.2716 25.2067 14.5316 23.4689C14.1004 23.04 13.676 22.0778 13.676 21.3156ZM12.2871 21.5467C12.2871 22.6822 12.9071 23.6844 13.4604 24.3089C15.7071 26.8467 20.6204 25.9022 20.6204 21.0822C20.6204 19.52 18.9027 17.38 16.4538 17.38C14.1471 17.38 12.2871 19.3022 12.2871 21.5467Z" fill="#8BCDEE"/>
<path fill-rule="evenodd" clip-rule="evenodd" d="M26.1757 4.4177H33.8135C34.9557 4.4177 34.9713 4.16436 34.9713 3.02881H25.018C24.8291 3.9177 24.858 4.4177 26.1757 4.4177Z" fill="#8BCEEF"/>
<path fill-rule="evenodd" clip-rule="evenodd" d="M7.88867 21.5466C7.88867 22.3555 8.202 22.4533 9.04645 22.4733C9.81756 20.8666 8.84867 18.6422 11.7687 16.1689C12.6664 15.4089 12.9487 15.8044 12.982 14.3711C11.5242 14.0622 10.202 15.4244 9.40645 16.5822C8.63756 17.7066 7.88867 19.7644 7.88867 21.5466Z" fill="#8BCDEF"/>
<path fill-rule="evenodd" clip-rule="evenodd" d="M21.082 3.49111C21.082 4.20222 21.762 4.41778 22.4731 4.41778C23.7887 4.41778 23.8176 3.91778 23.6287 3.02889C22.8931 3.02889 21.082 2.76 21.082 3.49111Z" fill="#8BCDEF"/>
<path fill-rule="evenodd" clip-rule="evenodd" d="M13.6758 13.6755C13.6758 14.2955 14.218 14.9422 15.0647 13.6755C14.1824 12.3555 13.6758 13.1222 13.6758 13.6755Z" fill="#8CCEEF"/>
</svg>
