<svg width="34" height="34" viewBox="0 0 34 34" fill="none" xmlns="http://www.w3.org/2000/svg">
<path fill-rule="evenodd" clip-rule="evenodd" d="M4.86376 27.1849C6.11442 27.1849 6.55176 28.2374 6.90109 28.7592C7.82998 28.6792 8.41931 28.4623 8.90642 29.0685C9.2202 29.4596 9.21576 29.7432 9.21576 30.2401C7.73398 30.2401 7.74376 30.1725 7.82642 31.1663C8.74998 31.3814 12.958 31.2587 14.2158 31.2587V32.3698H1.43798V31.2587H6.06731C6.35176 31.2587 6.43798 30.9876 6.43798 30.7032C6.43798 30.0232 4.99353 30.2401 4.3082 30.2401C3.4442 30.2401 2.5802 30.2401 1.7162 30.2401C1.75709 29.7432 1.92776 29.5494 2.33753 29.3805C3.38998 28.9476 2.40864 28.5458 3.68153 27.5769C3.94464 27.3761 4.4442 27.1849 4.86376 27.1849ZM9.58553 28.2036C10.142 27.8312 10.2095 27.6481 11.0673 27.6481C12.0184 27.6481 13.0113 28.5254 13.0113 29.4996V30.2401H10.2344C10.2344 29.1218 10.2229 29.1538 9.58553 28.2036ZM12.3633 23.0187C12.1606 22.7156 12.1215 22.8898 12.086 22.4632C12.3455 22.3938 12.5526 22.1903 12.7553 22.0214C12.9775 21.8356 13.1651 21.6987 13.382 21.5369L14.3251 20.8134C14.3731 20.7787 14.4451 20.7263 14.4851 20.6952L18.3944 17.6614C19.0122 17.1983 22.0255 14.7778 22.2709 14.7778C22.6602 14.7778 31.1384 21.6729 32.4558 22.5556C32.3464 22.7618 32.3011 22.8338 32.1775 23.0187C31.6975 22.7645 25.2842 17.7263 24.214 16.9085C21.7242 15.0063 22.8255 15.0445 19.7438 17.3441L16.0931 20.1743C15.4735 20.6374 12.8131 22.7805 12.3633 23.0187ZM4.86376 6.25961V3.2045H7.08598V4.59294C6.84687 4.65694 6.19265 5.20717 5.95353 5.4045C5.76064 5.5645 5.6282 5.66316 5.43176 5.80983C5.20864 5.97605 5.06553 6.1245 4.86376 6.25961ZM1.80864 10.6116L1.51531 10.2552C1.78909 9.85428 4.6362 7.73694 5.23531 7.27916C5.4762 7.09516 5.58553 6.98583 5.86465 6.79739L10.1909 3.43917C12.1126 1.87383 11.3411 2.05517 14.2815 4.24894L18.0904 7.19916C18.5438 7.53872 21.6611 9.88361 21.9002 10.2409L21.6229 10.6116C20.4806 10.0072 12.2931 3.16805 11.7126 3.14939C11.4042 3.13961 10.7153 3.75561 10.4478 3.97339L3.09131 9.67205C2.65753 9.9965 2.27976 10.3618 1.80864 10.6116ZM4.21576 1.63028H7.73398V2.18583H4.21576V1.63028ZM3.10464 1.81516C3.10464 2.47028 3.19442 3.0525 3.84509 3.2045V7.09339C3.1802 7.44539 2.64331 7.97694 2.04687 8.44272C0.706422 9.49072 -0.317578 9.6605 0.861089 11.0961C1.96953 12.4463 2.01398 11.6827 3.47531 10.7041V26.5369C2.81042 26.6916 2.30198 27.3956 2.06109 27.9938C1.7242 28.8312 1.55976 28.4045 1.11887 28.9956C0.633533 29.6463 0.805089 30.0818 0.553533 30.6463C0.314422 31.1814 0.419311 31.9316 0.419311 32.5547C0.419311 33.2792 0.986422 33.4809 1.7162 33.4809H31.5295C32.6478 33.4809 32.6122 32.3698 31.7144 32.3698H30.5109V23.1112C31.7482 23.9396 32.0664 24.9209 33.078 23.5485C33.6006 22.8401 34.0104 22.4232 33.1989 21.8125L29.7047 19.1032C28.7189 18.3725 23.0006 13.7592 22.6415 13.7592C21.0504 13.7592 21.4611 14.1405 19.9562 15.1485C19.9562 14.3903 20.158 13.2969 19.4006 13.2969C19.1775 13.2969 19.1286 13.4463 18.9375 13.5743V15.9814C18.1322 16.4072 17.1749 17.3005 16.3971 17.8854L11.2895 21.8516C10.6033 22.3716 10.9242 22.9085 11.4158 23.5032C12.438 24.7423 12.4024 24.3885 14.9171 22.4241C15.758 21.7672 16.5322 21.1396 17.3633 20.5183C18.8709 19.3921 20.8051 17.7041 22.2709 16.7218C22.5873 16.9343 22.8291 17.1654 23.1562 17.4107C25.1624 18.9201 27.0762 20.5494 29.1126 22.0098C29.286 22.1343 29.4931 22.1983 29.4931 22.4632V32.3698H25.6042L25.5118 31.1663C24.5482 30.7041 24.4931 31.5912 24.4931 32.3698H20.0486V24.9627H24.4931V28.8516C24.4931 29.6872 24.902 29.8845 25.5118 29.5921C25.7535 28.5503 25.6042 26.0694 25.6042 24.8703C25.6042 24.3503 25.198 23.9441 24.678 23.9441C23.8682 23.9441 19.7571 23.7725 19.2913 24.1129C19.1829 24.1912 18.9375 24.5281 18.9375 24.6854V32.3698H15.3269C15.3269 31.1903 15.5366 30.2401 14.03 30.2401C14.0522 29.2498 14.0531 28.6712 13.4095 27.8054C12.3633 26.3974 10.1669 26.2356 8.89931 27.4241C8.4682 27.8285 8.58109 27.6125 8.0842 27.5849C7.81398 27.5707 7.76953 27.6409 7.45665 27.6481C6.82909 26.7112 5.9242 26.1663 4.49309 26.1663V10.0561C4.49309 9.73161 5.97931 8.76005 6.23087 8.55294L11.7153 4.31561C13.1464 5.27383 16.4611 8.12628 17.974 9.16805C18.3518 9.4285 18.5793 9.63028 18.9375 9.87028C18.9375 10.4409 18.6309 11.9272 19.3491 12.0392C20.0575 12.1485 19.9562 11.1476 19.9562 10.7041C21.0006 11.4036 21.5438 12.4747 22.4833 11.1938C23.59 9.68361 23.166 9.82316 21.8202 8.74672L19.0024 6.5645C18.7606 6.36005 18.566 6.26583 18.31 6.05339L13.3562 2.21161C12.318 1.43739 11.7802 0.859609 10.7082 1.73428C10.3038 2.06405 8.44598 3.57605 8.10464 3.66761C8.10464 2.75117 8.84509 3.35116 8.84509 1.90761C8.84509 1.57516 8.76776 1.1325 8.62731 0.921832C8.49398 0.720943 8.12953 0.519165 7.82642 0.519165H4.21576C3.3882 0.519165 3.10464 0.987609 3.10464 1.81516Z" fill="#8BCEEF"/>
<path fill-rule="evenodd" clip-rule="evenodd" d="M12.2717 14.593H13.9384V16.537H12.2717V14.593ZM9.40148 14.8703C9.40148 14.657 9.46637 14.593 9.6797 14.593H11.1606V16.537H9.40148V14.8703ZM12.2717 11.9076H13.9384V13.5743H12.2717V11.9076ZM9.40148 11.9076H11.1606V13.5743H9.40148V11.9076ZM12.2717 8.85253H13.9384V10.7965H12.2717V8.85253ZM9.40148 9.12986C9.40148 8.91653 9.46637 8.85253 9.6797 8.85253H11.1606V10.7965H9.40148V9.12986ZM8.38281 8.7592V16.537C8.38281 17.2534 8.77837 17.6481 9.49392 17.6481H13.9384C14.5366 17.6481 15.0495 17.3014 15.0495 16.7219V8.7592C15.0495 8.53875 14.941 8.2872 14.8273 8.14853C14.7384 8.0392 14.4628 7.83386 14.309 7.83386H9.12415C8.84148 7.83386 8.38281 8.25964 8.38281 8.7592Z" fill="#8BCEEF"/>
<path fill-rule="evenodd" clip-rule="evenodd" d="M20.3265 27.4622C20.2127 27.9538 19.9665 29.4996 20.6971 29.4996C20.9469 29.4996 20.9523 29.4551 21.1603 29.4071C21.3247 28.7022 21.5691 26.9805 20.3265 27.4622Z" fill="#8CCEEF"/>
</svg>
