<svg width="38" height="28" viewBox="0 0 38 28" fill="none" xmlns="http://www.w3.org/2000/svg">
<path fill-rule="evenodd" clip-rule="evenodd" d="M16.6846 18.0511H21.3158V26.3844H16.6846V18.0511ZM2.79798 25.6889H12.2869V26.3844H2.79798V25.6889ZM9.50909 23.3755C9.94242 21.5133 12.2869 21.7267 12.2869 22.9111V24.5311H7.19576C7.54464 23.0333 7.76242 23.3755 9.50909 23.3755ZM6.03798 24.5311H3.95353C3.95353 23.1733 4.24242 22.4489 5.57576 22.4489H5.80687C7.0602 22.4489 6.06464 23.3489 6.03798 24.5311ZM6.26909 21.2911H4.64909V10.6444H10.2046C10.318 11.9978 10.7469 11.8 12.2869 11.8V21.06C10.9669 20.4267 9.99353 20.9578 9.11131 21.5955C7.17576 22.9933 7.49798 21.2911 6.26909 21.2911ZM26.1758 8.55999L33.8269 8.54665C35.158 8.52665 35.4046 8.27999 35.6669 9.25554C34.0691 9.25554 33.0335 9.18221 31.7313 9.48665V10.4133C32.4113 10.5711 32.438 10.6444 33.3513 10.6444V26.3844H25.4824V19.44C23.7402 19.4778 24.3246 19.8378 24.3246 26.3844H22.4735C22.4735 23.9333 22.7424 19.2778 22.2402 17.1244C20.5313 16.7267 17.4691 16.7267 15.7602 17.1244C15.258 19.2778 15.5291 23.9333 15.5291 26.3844H13.6758V11.5689C13.6758 10.9933 18.5558 5.18221 19.0002 4.85776L23.4535 10.1244C24.6513 11.44 24.3291 11.8289 24.3246 14.1155C24.3224 14.8844 24.2935 15.6933 24.3024 16.4511C24.318 17.64 24.2824 17.7933 25.2491 18.0511C25.7469 17.1667 25.4824 13.0622 25.4824 11.8C27.2424 11.8 27.6824 12.0244 27.7958 10.6444C29.418 10.6444 29.6624 10.9622 30.3424 9.94887C29.1491 8.16665 27.3691 10.3422 26.1758 8.55999ZM2.33353 9.25554C2.64242 8.09999 3.71576 8.55999 6.73131 8.55999C8.42909 8.55999 10.1269 8.55999 11.8246 8.55999C11.0758 9.67999 10.4313 9.25554 7.42687 9.25554C5.72909 9.25554 4.03131 9.25554 2.33353 9.25554ZM24.5558 6.70887L32.4335 6.69999C33.798 6.67776 34.238 6.38888 34.5091 7.40221L26.6269 7.41554C25.1424 7.4311 25.1602 7.61332 24.5558 6.70887ZM3.49131 7.40221C3.80242 6.23776 5.03576 6.70887 8.1202 6.70887C9.89576 6.70887 11.6691 6.70887 13.4446 6.70887C12.6869 7.84221 11.8891 7.40221 8.81575 7.40221C7.0402 7.40221 5.26687 7.40221 3.49131 7.40221ZM22.9358 4.62443L31.2802 4.61332C32.7646 4.59776 32.7469 4.41554 33.3513 5.31999L25.0069 5.3311C23.5224 5.34888 23.5402 5.52888 22.9358 4.62443ZM21.5469 3.00443L29.8846 2.99999C31.1246 2.98665 31.6691 2.74888 32.1935 3.46888L23.858 3.4711C22.6158 3.48665 22.0713 3.72221 21.5469 3.00443ZM12.0558 10.4133L19.0002 2.07999C19.4269 2.36443 20.3402 3.50443 20.7535 4.02888C22.2202 5.89554 24.7691 8.65554 25.9446 10.4133C24.7646 10.3133 23.6158 8.46221 22.4202 6.99332C21.9424 6.40887 19.6802 3.23554 19.0002 3.23554C18.2758 3.23554 16.1802 6.28221 15.6891 6.86888C14.4646 8.32221 13.1869 10.3178 12.0558 10.4133ZM10.6669 4.16221C11.2691 4.98221 12.9224 4.62443 15.0646 4.62443C14.3024 5.76443 13.2402 5.31999 10.2046 5.31999C8.35353 5.31999 6.5002 5.31999 4.64909 5.31999C5.24464 4.42887 5.24464 4.58665 6.72242 4.61554C7.1202 4.62221 7.77353 4.66887 8.14242 4.64665C9.32909 4.57332 8.7802 4.84221 9.27798 4.16221C8.98687 3.06887 8.85353 3.46888 5.80687 3.46888C6.39353 2.66443 8.96909 3.00443 10.898 3.00443C12.7513 3.00443 14.6024 3.00443 16.4535 3.00443C15.9091 3.74887 16.2135 3.49332 13.4446 3.46665C12.9713 3.46221 12.2313 3.41776 11.798 3.43999C10.7158 3.49999 10.9069 3.26221 10.6669 4.16221ZM17.8424 1.61554C15.5291 1.61554 13.2135 1.61554 10.898 1.61554C4.51576 1.61554 6.30242 0.264431 0.871311 8.97777C-0.366467 10.9622 2.26687 10.6444 3.49131 10.6444V21.7533C3.49131 22.2978 2.60242 22.92 2.56464 24.5311C1.44464 24.6244 1.43353 25.2533 1.40909 26.3844C0.409089 26.4667 0.504644 26.5155 0.482422 27.5422H37.518C37.4869 26.1378 37.6313 26.3844 34.5091 26.3844V10.6444C35.8891 10.6444 38.458 10.9644 37.0313 8.83554C36.4913 8.0311 36.1313 7.39776 35.5758 6.56888C35.0135 5.73554 34.6891 5.13776 34.1402 4.29999C31.8558 0.819986 33.1691 1.61554 25.7135 1.61554C19.7135 1.61554 21.1002 2.08443 19.2313 0.457764C18.338 0.666653 18.0735 0.748875 17.8424 1.61554Z" fill="#8BCDEE"/>
<path fill-rule="evenodd" clip-rule="evenodd" d="M8.81591 19.2089H7.88925V14.1156H9.50925V18.5134C9.50925 19.0467 9.34925 19.2089 8.81591 19.2089ZM6.50036 14.3467C6.50036 19.22 5.49369 21.2867 10.4359 20.1334C10.8892 18.1911 10.667 15.9067 10.667 13.8845C10.667 12.6289 9.04703 12.9578 7.42703 12.9578C6.71591 12.9578 6.50036 13.6356 6.50036 14.3467Z" fill="#8BCEEE"/>
<path fill-rule="evenodd" clip-rule="evenodd" d="M28.4915 18.5133V14.1155H30.1115V19.2088H29.1849C28.6515 19.2088 28.4915 19.0466 28.4915 18.5133ZM27.3338 13.8844C27.3338 15.9066 27.1115 18.1911 27.5649 20.1333C32.4315 21.2688 31.5004 19.1977 31.5004 14.3466C31.5004 12.5911 30.5493 12.9577 28.2604 12.9577C27.7182 12.9577 27.3338 13.3422 27.3338 13.8844Z" fill="#8BCDEE"/>
<path fill-rule="evenodd" clip-rule="evenodd" d="M17.842 10.6445C17.842 10.0178 18.4576 9.71782 18.9998 9.71782C19.542 9.71782 20.1576 10.0178 20.1576 10.6445V12.4956H17.842V10.6445ZM16.4531 11.8C16.4531 14.0912 16.7998 13.6534 20.6198 13.6534C21.6487 13.6534 21.3153 12.5734 21.3153 10.18C21.3153 8.56893 16.4531 6.86893 16.4531 11.8Z" fill="#8CCEEF"/>
<path fill-rule="evenodd" clip-rule="evenodd" d="M17.843 23.3755C17.9519 23.1822 18.7674 21.0599 17.1496 21.0599C16.963 21.4444 16.8163 21.7577 16.8874 22.4577C16.9763 23.3355 16.923 23.1599 17.843 23.3755Z" fill="#8BCEEE"/>
</svg>
