<svg width="38" height="38" viewBox="0 0 38 38" fill="none" xmlns="http://www.w3.org/2000/svg">
<path fill-rule="evenodd" clip-rule="evenodd" d="M23.1675 28.9533H28.7231V35.6667H23.1675V28.9533ZM11.5942 33.5822H13.6764V35.6667H11.5942V33.5822ZM8.12087 33.5822H10.2053V35.6667H8.12087V33.5822ZM4.64976 33.5822H6.73198V35.6667H4.64976V33.5822ZM11.5942 30.1111H13.6764V32.1933H11.5942V30.1111ZM8.12087 30.1111H10.2053V32.1933H8.12087V30.1111ZM4.64976 30.1111H6.73198V32.1933H4.64976V30.1111ZM11.5942 26.6378H13.6764V28.7222H11.5942V26.6378ZM8.12087 26.6378H10.2053V28.7222H8.12087V26.6378ZM4.64976 26.6378H6.73198V28.7222H4.64976V26.6378ZM25.7142 24.7867H26.1764C26.3453 25.4222 26.6809 25.7089 27.0675 26.2089C27.452 26.7067 27.6942 27.0645 28.0275 27.5645H23.8609C24.4364 26.7067 25.5431 25.4222 25.7142 24.7867ZM28.9542 25.9445V22.9356L35.6675 22.0089V35.6667H30.112V28.7222C30.112 27.2067 28.9542 27.4578 28.9542 25.9445ZM3.26087 35.6667H2.3342V24.3245H15.992V35.6667H15.0653V25.2489H3.26087V35.6667ZM2.3342 22.0089H15.992V22.9356H2.3342V22.0089ZM6.03865 18.5378H12.2875C13.8431 18.5378 14.2898 19.5911 14.8342 20.62H3.49198C4.03642 19.5911 4.48309 18.5378 6.03865 18.5378ZM15.2964 18.5378H22.9364V25.9445C22.9364 27.4578 21.7786 27.2067 21.7786 28.7222V35.6667H17.3809V20.62H15.992C15.972 19.7156 15.8475 19.5822 15.2964 18.5378ZM15.0653 16.2222H22.9364V17.1489H15.0653V16.2222ZM13.6764 17.38C12.952 17.32 12.8542 17.1489 12.0564 17.1489H5.80753V8.12001H15.992V14.8333H13.6764V17.38ZM24.0942 14.8333H23.1675V10.4356H31.0364V20.8511C31.0364 21.7889 29.132 21.7778 27.7964 21.7778V20.62H26.4075V22.0089H27.5653V24.5556C26.8875 24.0578 26.6231 23.2 25.9453 22.7045C25.2675 23.2 25.0031 24.0578 24.3253 24.5556V15.0645H25.4831V13.6756H24.0942V14.8333ZM24.3253 5.57557C25.1631 5.57557 29.392 4.88224 29.8809 4.6489V9.04668H24.3253V5.57557ZM8.12087 4.6489H13.6764V6.73112H8.12087V4.6489ZM9.27865 2.33335H12.5186V3.26001H9.27865V2.33335ZM7.88976 3.26001H6.73198V6.73112H4.41865V17.1489C4.41865 18.1911 3.66531 17.3733 2.44976 19.8089C2.04531 20.6178 2.4942 20.62 0.945312 20.62V37.0556H37.0564V20.62C35.272 20.62 34.4142 21.0822 32.4253 21.0822V9.04668H31.2698V3.26001H30.112V2.10224H28.7231V3.72224H27.7964V0.944458H26.4075C26.4075 1.55557 26.472 2.49557 26.4342 3.05557C26.3631 4.1289 26.3942 3.97335 25.4831 4.18668V2.10224H24.0942V4.41779C22.5653 4.45112 22.9364 4.31779 22.9364 9.04668H21.7786V14.8333H17.3809V6.73112H15.0653V3.26001H13.9075V0.944458H7.88976V3.26001Z" fill="#8BCDEE"/>
<path fill-rule="evenodd" clip-rule="evenodd" d="M24.0938 34.74H25.4826V29.88H24.0938V34.74Z" fill="#8BCDEE"/>
<path fill-rule="evenodd" clip-rule="evenodd" d="M26.4082 34.74H27.7971V29.88H26.4082V34.74Z" fill="#8BCDEE"/>
<path fill-rule="evenodd" clip-rule="evenodd" d="M6.73242 10.4355H8.12131V9.04663H6.73242V10.4355Z" fill="#8BCDEE"/>
<path fill-rule="evenodd" clip-rule="evenodd" d="M9.04688 10.4355H10.4358V9.04663H9.04688V10.4355Z" fill="#8BCDEE"/>
<path fill-rule="evenodd" clip-rule="evenodd" d="M11.3633 10.4355H12.7522V9.04663H11.3633V10.4355Z" fill="#8BCDEE"/>
<path fill-rule="evenodd" clip-rule="evenodd" d="M13.6758 10.4355H15.0647V9.04663H13.6758V10.4355Z" fill="#8BCDEE"/>
<path fill-rule="evenodd" clip-rule="evenodd" d="M6.73242 12.7511H8.12131V11.3622H6.73242V12.7511Z" fill="#8BCDEE"/>
<path fill-rule="evenodd" clip-rule="evenodd" d="M9.04688 12.7511H10.4358V11.3622H9.04688V12.7511Z" fill="#8BCDEE"/>
<path fill-rule="evenodd" clip-rule="evenodd" d="M11.3633 12.7511H12.7522V11.3622H11.3633V12.7511Z" fill="#8BCDEE"/>
<path fill-rule="evenodd" clip-rule="evenodd" d="M13.6758 12.7511H15.0647V11.3622H13.6758V12.7511Z" fill="#8BCDEE"/>
<path fill-rule="evenodd" clip-rule="evenodd" d="M6.73242 15.0644H8.12131V13.6755H6.73242V15.0644Z" fill="#8BCDEE"/>
<path fill-rule="evenodd" clip-rule="evenodd" d="M9.04688 15.0644H10.4358V13.6755H9.04688V15.0644Z" fill="#8BCDEE"/>
<path fill-rule="evenodd" clip-rule="evenodd" d="M11.3633 15.0644H12.7522V13.6755H11.3633V15.0644Z" fill="#8BCDEE"/>
<path fill-rule="evenodd" clip-rule="evenodd" d="M26.4082 15.0644H27.7971V13.6755H26.4082V15.0644Z" fill="#8BCDEE"/>
<path fill-rule="evenodd" clip-rule="evenodd" d="M28.7227 15.0644H30.1115V13.6755H28.7227V15.0644Z" fill="#8BCDEE"/>
<path fill-rule="evenodd" clip-rule="evenodd" d="M26.4082 17.38H27.7971V15.9911H26.4082V17.38Z" fill="#8BCDEE"/>
<path fill-rule="evenodd" clip-rule="evenodd" d="M28.7227 17.38H30.1115V15.9911H28.7227V17.38Z" fill="#8BCDEE"/>
<path fill-rule="evenodd" clip-rule="evenodd" d="M26.4082 19.6956H27.7971V18.3044H26.4082V19.6956Z" fill="#8BCDEE"/>
<path fill-rule="evenodd" clip-rule="evenodd" d="M28.7227 19.6956H30.1115V18.3044H28.7227V19.6956Z" fill="#8BCDEE"/>
<path fill-rule="evenodd" clip-rule="evenodd" d="M18.3047 20.8512H19.6958V19.4623H18.3047V20.8512Z" fill="#8BCDEE"/>
<path fill-rule="evenodd" clip-rule="evenodd" d="M20.6211 20.8512H22.01V19.4623H20.6211V20.8512Z" fill="#8BCDEE"/>
<path fill-rule="evenodd" clip-rule="evenodd" d="M18.3047 23.1667H19.6958V21.7778H18.3047V23.1667Z" fill="#8BCDEE"/>
<path fill-rule="evenodd" clip-rule="evenodd" d="M20.6211 23.1667H22.01V21.7778H20.6211V23.1667Z" fill="#8BCDEE"/>
<path fill-rule="evenodd" clip-rule="evenodd" d="M18.3047 25.4823H19.6958V24.0934H18.3047V25.4823Z" fill="#8BCDEE"/>
<path fill-rule="evenodd" clip-rule="evenodd" d="M20.6211 25.4823H22.01V24.0934H20.6211V25.4823Z" fill="#8BCDEE"/>
<path fill-rule="evenodd" clip-rule="evenodd" d="M18.3047 27.7956H19.6958V26.4067H18.3047V27.7956Z" fill="#8BCDEE"/>
<path fill-rule="evenodd" clip-rule="evenodd" d="M18.3047 30.1112H19.6958V28.7223H18.3047V30.1112Z" fill="#8BCDEE"/>
<path fill-rule="evenodd" clip-rule="evenodd" d="M24.0938 12.7511H25.4826V11.3622H24.0938V12.7511Z" fill="#8BCDEE"/>
<path fill-rule="evenodd" clip-rule="evenodd" d="M18.3047 32.4244H19.6958V31.0355H18.3047V32.4244Z" fill="#8BCDEE"/>
<path fill-rule="evenodd" clip-rule="evenodd" d="M18.3047 34.74H19.6958V33.3511H18.3047V34.74Z" fill="#8BCDEE"/>
<path fill-rule="evenodd" clip-rule="evenodd" d="M26.4082 12.7511H27.7971V11.3622H26.4082V12.7511Z" fill="#8BCDEE"/>
<path fill-rule="evenodd" clip-rule="evenodd" d="M28.7227 12.7511H30.1115V11.3622H28.7227V12.7511Z" fill="#8BCDEE"/>
<path fill-rule="evenodd" clip-rule="evenodd" d="M33.3516 30.1112H34.7405V28.7223H33.3516V30.1112Z" fill="#8BCDEE"/>
<path fill-rule="evenodd" clip-rule="evenodd" d="M31.0371 27.7956H32.426V26.4067H31.0371V27.7956Z" fill="#8BCDEE"/>
<path fill-rule="evenodd" clip-rule="evenodd" d="M31.0371 32.4244H32.426V31.0355H31.0371V32.4244Z" fill="#8BCDEE"/>
<path fill-rule="evenodd" clip-rule="evenodd" d="M33.3516 32.4244H34.7405V31.0355H33.3516V32.4244Z" fill="#8BCDEE"/>
<path fill-rule="evenodd" clip-rule="evenodd" d="M33.3516 27.7956H34.7405V26.4067H33.3516V27.7956Z" fill="#8BCDEE"/>
<path fill-rule="evenodd" clip-rule="evenodd" d="M33.3516 25.4823H34.7405V24.0934H33.3516V25.4823Z" fill="#8BCDEE"/>
<path fill-rule="evenodd" clip-rule="evenodd" d="M31.0371 25.4823H32.426V24.0934H31.0371V25.4823Z" fill="#8BCDEE"/>
<path fill-rule="evenodd" clip-rule="evenodd" d="M31.0371 34.74H32.426V33.3511H31.0371V34.74Z" fill="#8BCDEE"/>
<path fill-rule="evenodd" clip-rule="evenodd" d="M33.3516 34.74H34.7405V33.3511H33.3516V34.74Z" fill="#8BCDEE"/>
<path fill-rule="evenodd" clip-rule="evenodd" d="M31.0371 30.1112H32.426V28.7223H31.0371V30.1112Z" fill="#8BCDEE"/>
</svg>
