<svg width="38" height="38" viewBox="0 0 38 38" fill="none" xmlns="http://www.w3.org/2000/svg">
<path fill-rule="evenodd" clip-rule="evenodd" d="M7.42687 19.6955H8.35353V20.8511H7.42687V19.6955ZM0.482422 12.9866V12.5733C0.637977 12.1466 1.26242 11.6244 2.39131 10.4933C6.00464 6.87996 4.54687 9.43107 5.7202 8.91551C6.5202 8.56662 5.80687 8.93329 5.80687 8.11996C5.80687 6.71551 6.45131 6.91551 5.61353 6.84884C5.0402 6.8044 5.56909 7.09996 4.41798 7.19551L2.33798 5.10662C1.93131 4.69996 1.77576 4.59551 1.28687 4.07551C0.737977 3.49773 0.544644 3.47996 0.482422 3.43773V2.79773C0.482422 2.22884 2.22909 0.482178 2.79798 0.482178C3.52687 0.482178 6.74909 3.98218 7.19576 4.64884C6.99131 5.41107 6.27353 6.03773 7.42687 6.03773C10.1024 6.03773 8.4802 5.85107 8.68687 4.51107C8.78242 3.88218 12.138 0.482178 12.7513 0.482178C13.618 0.482178 15.1135 2.3244 15.3535 3.0844L11.1291 7.19551C10.318 6.97773 10.598 6.78218 10.1869 6.85329C9.78909 6.92218 9.7402 6.5444 9.7402 7.42662C9.7402 9.90662 9.90242 8.7044 11.3624 8.5844L14.4935 11.7022C15.5691 12.84 15.2958 11.8666 15.2958 12.7511C15.2958 13.4288 13.4869 14.9577 12.9824 15.2955C11.7758 14.9733 12.338 14.4622 11.1291 14.14C11.3935 14.6866 11.7113 17.6155 11.838 18.5244C12.4602 23.0222 13.6424 22.24 4.41798 22.24C3.55575 22.24 3.44687 21.6044 3.56242 20.7333C3.84242 18.6333 4.41798 16.0977 4.41798 14.14C3.43576 14.7955 3.23576 15.7111 2.36687 15.0311C2.03131 14.7688 2.39353 15.0822 2.01131 14.6933C1.14242 13.8066 0.622422 13.3666 0.482422 12.9866ZM10.1491 10.9533L10.9491 10.2533L13.7313 12.9266L12.9313 13.6266L10.1491 10.9533ZM2.85353 13.7311L2.15131 12.9311L4.82464 10.1488L5.52464 10.9488L2.85353 13.7311ZM8.58464 11.1288C9.9802 13.2155 9.42464 11.3177 10.0135 15.4888C10.2535 17.1933 10.6669 18.8977 10.6669 20.8511H9.7402C9.7402 17.8177 10.2535 18.3044 6.73131 18.3044C5.78687 18.3044 6.03798 19.0311 6.03798 20.8511H5.11131L5.70242 15.6555C6.37798 11.4088 5.74242 13.3 7.19576 11.1288C6.87576 9.93329 5.99131 9.87551 7.8602 9.82884C9.79131 9.78218 8.89131 9.97773 8.58464 11.1288ZM8.35353 7.65773C8.23353 8.74885 8.61798 8.08884 7.93798 8.44662C7.43798 8.70884 7.54909 8.73773 7.30464 8.23551C6.83131 7.2644 7.9402 7.45996 8.35353 7.65773ZM10.9535 5.63107L10.2535 4.83107L12.9269 2.04662L13.6269 2.84662L10.9535 5.63107ZM2.04687 2.85329L2.84687 2.15107L5.63131 4.8244L4.83131 5.5244L2.04687 2.85329Z" fill="#8BCDEF"/>
<path fill-rule="evenodd" clip-rule="evenodd" d="M6.73131 32.6578H7.19576V36.1289H6.73131V32.6578ZM7.94909 37.5178H3.02909C2.54242 35.4333 2.79798 32.3467 2.79798 29.88C2.3002 30.4511 2.07353 30.6333 1.87131 31.5C1.16687 31.4845 1.02687 31.3956 0.482422 31.2689C0.733533 30.1867 1.37576 29.1778 2.16242 28.5489L4.78687 26.7778C6.26242 25.9356 10.8313 26.4067 12.9824 26.4067V25.9445C12.2758 25.9289 12.138 25.84 11.5935 25.7133C11.5935 22.4778 11.1024 22.7045 13.9069 22.7045V22.0089C13.9069 21.1867 14.358 21.3156 15.2958 21.3156V22.7045H16.4535V21.3156H17.8424V22.7045H20.158C20.4958 24.1556 20.4958 24.2622 20.158 25.7133C19.6135 25.84 19.4735 25.9289 18.7691 25.9445L18.3046 37.5178H12.2869C11.8824 35.7778 12.0558 34.7356 12.0558 32.6578H8.58464C8.58464 36.1645 8.95131 37.2356 7.94909 37.5178ZM5.34242 31.9622V36.1289H4.18687C4.18687 29.4178 3.3602 27.7511 7.4202 27.7889C9.35131 27.8067 11.2824 27.7956 13.2135 27.7956C13.3602 29.5511 15.2602 30.7845 17.1491 29.88V36.1289H15.9913V31.9622H14.6024V36.1289H13.4446C13.4446 33.0933 13.8913 31.2689 12.7513 31.2689H6.03798C5.50464 31.2689 5.34242 31.4289 5.34242 31.9622ZM12.9824 24.0933L19.0002 24.5556C17.398 24.5556 17.5313 24.7911 17.3958 26.4222C17.178 29.0533 16.6824 28.9222 14.8335 28.4911C13.9158 24.5556 14.8869 24.5556 12.9824 24.5556V24.0933Z" fill="#8BCEEE"/>
<path fill-rule="evenodd" clip-rule="evenodd" d="M30.5733 18.0733C31.9667 18.8111 31.5533 18.5911 32.1933 19.9267C30.7267 19.5844 31.0978 19.2467 30.5733 18.0733ZM24.3244 19.9267C25.1244 18.26 24.2422 18.9733 25.9444 18.0733C25.6911 19.1578 25.4333 19.6667 24.3244 19.9267ZM34.2778 19.9267C34.5689 18.6733 34.6156 18.3733 35.8978 18.0733C35.2578 19.4089 35.6711 19.1889 34.2778 19.9267ZM20.62 18.0733C21.7289 18.3333 21.9889 18.8422 22.24 19.9267C21.0844 19.6178 21.0556 18.9822 20.62 18.0733ZM19 16.9178C19 18.7711 19.9778 21.2533 22.7044 21.3156C22.7044 24.1711 22.9067 23.5911 21.0822 24.5556C21.3556 25.0711 21.4689 25.2533 21.7778 25.7133C24.8622 24.08 25.1289 24.0933 28.4911 24.0933C32.0622 24.0933 34.62 26.3556 36.36 28.9533C36.82 28.6444 37.0022 28.5311 37.5178 28.26C37.1222 27.5111 36.5667 26.7378 35.9644 26.1089C35.4578 25.5844 34.5222 24.7444 33.8133 24.5556V21.3156C36.58 21.2533 37.5178 18.6311 37.5178 17.1489C37.5178 15.64 33.78 16.9267 33.3511 18.5378C32.4111 17.8467 32.9133 17.4245 31.3067 16.8756C30.5311 16.6111 28.7644 15.9933 28.8178 17.2911C28.8733 18.6333 29.8867 21.1044 32.4244 21.3156V23.6289C29.8022 22.3711 26.8467 22.5244 24.0933 23.1667V21.3156C26.7511 21.0933 27.6644 18.2222 27.7 17.2911C27.7444 16.0933 26.3222 16.5245 25.3889 16.82C23.5644 17.3978 24.1822 17.7933 23.1667 18.5378C22.6733 16.6911 19 15.9778 19 16.9178Z" fill="#8BCDEE"/>
<path fill-rule="evenodd" clip-rule="evenodd" d="M31.5004 31.9622H33.8138V33.8133H31.5004V31.9622ZM27.796 31.9622H30.1115V33.8133H27.796V31.9622ZM24.0938 31.9622H26.4071V33.8133H24.0938V31.9622ZM22.7049 30.5733H20.1582V31.9622H22.7049V33.8133H20.1582V35.2022H22.7049V37.5178H24.0938V35.2022H26.4071V37.5178H27.796V35.2022H30.1115V37.5178H31.5004V35.2022H33.8138V37.5178H35.2026V35.2022H37.5182V33.8133H35.2026V31.9622H37.5182V30.5733H35.2026V28.26H33.8138V30.5733H31.5004V28.26H30.1115V30.5733H27.796V28.26H26.4071V30.5733H24.0938V28.26H22.7049V30.5733Z" fill="#8BCDEE"/>
<path fill-rule="evenodd" clip-rule="evenodd" d="M27.1018 6.03778C27.1018 5.50667 27.1796 5.76889 27.3329 5.11111C28.8173 4.75556 27.7796 4.78445 29.184 5.11111C29.5396 6.59556 29.5107 5.56 29.184 6.96445C27.6996 7.31778 28.7373 7.29111 27.3329 6.96445C27.184 6.34222 27.1018 6.52667 27.1018 6.03778ZM25.7129 6.03778C25.7129 9.36667 30.804 9.36667 30.804 6.03778C30.804 2.75334 25.7129 2.64445 25.7129 6.03778Z" fill="#8BCDEF"/>
<path fill-rule="evenodd" clip-rule="evenodd" d="M23.8086 2.51326L25.0641 3.91104L26.2286 2.84882L24.8286 1.59326L23.8086 2.51326Z" fill="#8BCDEE"/>
<path fill-rule="evenodd" clip-rule="evenodd" d="M23.8164 9.46662L24.7364 10.4866L26.1342 9.23329L25.072 8.06885L23.8164 9.46662Z" fill="#8BCDEE"/>
<path fill-rule="evenodd" clip-rule="evenodd" d="M30.3848 2.8422L31.447 4.00665L32.7025 2.60887L31.7825 1.58887L30.3848 2.8422Z" fill="#8BCDEE"/>
<path fill-rule="evenodd" clip-rule="evenodd" d="M30.2891 9.22665L31.6891 10.48L32.7091 9.55998L31.4557 8.16443L30.2891 9.22665Z" fill="#8BCDEF"/>
<path fill-rule="evenodd" clip-rule="evenodd" d="M27.5645 2.33329H28.9533V0.482178H27.5645V2.33329Z" fill="#8BCDEE"/>
<path fill-rule="evenodd" clip-rule="evenodd" d="M27.5645 11.5933H28.9533V9.73999H27.5645V11.5933Z" fill="#8BCDEE"/>
<path fill-rule="evenodd" clip-rule="evenodd" d="M22.7051 6.73105H24.5562V5.34216H22.7051V6.73105Z" fill="#8BCEEE"/>
<path fill-rule="evenodd" clip-rule="evenodd" d="M31.9629 6.73105H33.814V5.34216H31.9629V6.73105Z" fill="#8BCEEE"/>
</svg>
