<svg width="38" height="36" viewBox="0 0 38 36" fill="none" xmlns="http://www.w3.org/2000/svg">
<path fill-rule="evenodd" clip-rule="evenodd" d="M6.03798 22.629C6.05798 23.5201 6.33798 24.4156 6.47131 25.2067L7.88909 33.2778C5.69576 33.4601 3.94687 34.4512 3.54687 33.4712L1.87798 23.9645C1.88464 22.8045 2.38909 23.1512 3.58242 22.9534C4.6602 22.7734 4.83576 22.629 6.03798 22.629ZM0.482422 23.2912V22.789C0.582422 21.9445 1.32909 22.0201 3.26242 21.7045C8.41798 20.8623 6.58464 21.1067 7.42687 22.8601C12.9469 19.1645 14.8513 21.4712 17.1491 21.4712C20.0913 21.4712 26.4846 19.1823 27.5646 22.1667L32.6824 18.4867C34.8846 16.8334 37.518 18.3534 37.518 19.389C37.518 20.1201 35.3224 21.9467 34.7624 22.4201L34.3824 22.7334C32.0002 24.7245 28.0246 29.5378 26.1113 30.6667C21.0891 33.6356 14.6802 30.7667 11.4091 31.4712C10.9291 31.5734 10.8735 31.6556 10.4846 31.9378C7.90464 33.8156 10.0002 33.2512 9.04687 34.2023C8.39576 34.5156 3.85131 35.3601 2.79798 35.3601C2.18242 34.0778 1.81131 30.8423 1.50687 29.0112C0.995755 25.9245 0.5602 24.2423 0.482422 23.2912ZM22.0091 30.7312L14.8358 30.2645C10.198 30.1467 12.078 29.4712 8.81575 31.6556C8.81575 30.0134 7.69798 26.0645 7.65798 24.249C10.0402 22.6534 10.2046 22.1667 13.6758 22.1667C17.6891 22.1667 13.1602 23.7201 23.0069 21.9956C24.9046 21.6623 26.6646 21.9134 27.1024 23.7867L20.5824 24.9045C19.6002 25.0934 19.3202 25.0467 19.2313 26.1023C20.0046 26.4734 26.0402 25.3512 27.4446 25.0534C29.1402 24.6956 28.6002 24.4201 28.4913 23.0912C30.1535 22.2134 32.5313 19.9978 33.5935 19.389C34.7069 18.749 34.6291 19.129 35.898 19.1578C35.6313 20.1534 27.6158 27.5445 26.4691 28.709C25.7313 29.4578 25.5424 29.6045 24.5602 30.0401C24.0758 30.2534 22.6713 30.7312 22.0091 30.7312Z" fill="#8BCDEE"/>
<path fill-rule="evenodd" clip-rule="evenodd" d="M22.2406 13.1378L22.114 13.6356L22.2406 13.1378ZM22.2406 13.1378C22.3051 12.38 24.1873 7.58668 24.5562 6.8889H27.334C27.1673 7.51335 26.6251 8.03557 26.2095 8.54224C25.5073 9.39557 22.9051 12.6933 22.2406 13.1378ZM19.6962 15.2222C19.0406 12.4089 17.3406 9.70224 16.6851 6.8889H23.1673C22.5806 8.11113 20.6029 14.5556 19.6962 15.2222ZM17.6117 13.3711L12.2873 6.8889H15.2962C15.6762 8.51557 17.5117 12.16 17.6117 13.3711ZM25.9451 2.72224C26.5251 3.1489 27.3251 4.79557 27.7962 5.50001H25.0184C25.2429 5.03113 25.8962 3.30001 25.9451 2.72224ZM19.6962 2.26001C20.6673 2.91113 22.0384 4.50446 22.7051 5.50001H16.9184C17.6051 4.47335 18.9006 3.44446 19.6962 2.26001ZM13.6762 2.72224C13.8917 3.64224 14.3562 4.44446 14.6029 5.50001H12.0562L13.6762 2.72224ZM21.5473 2.0289H25.0184C24.7117 2.6689 24.1629 3.97779 24.094 4.80668C23.0384 4.10001 22.254 3.08668 21.5473 2.0289ZM15.7606 4.80668C15.5451 3.88668 15.0806 3.08446 14.834 2.0289H18.3051C18.034 2.43557 16.1317 4.55779 15.7606 4.80668ZM10.2051 6.19557C10.2051 6.83335 18.954 17.3489 19.9273 18C20.8251 17.3978 28.894 7.32224 29.6473 6.19557L26.4073 0.640015H13.4451L10.2051 6.19557Z" fill="#8BCEEF"/>
</svg>
