<svg width="20" height="21" viewBox="0 0 20 21" fill="none" xmlns="http://www.w3.org/2000/svg">
    <path fill-rule="evenodd" clip-rule="evenodd"
          d="M18.577 14.5715V3.14289C18.577 2.53668 18.3362 1.9553 17.9076 1.52665C17.4789 1.09799 16.8975 0.857178 16.2913 0.857178H7.14848C6.54227 0.857178 5.96089 1.09799 5.53223 1.52665C5.10358 1.9553 4.86276 2.53668 4.86276 3.14289V14.5715C4.86276 15.1777 5.10358 15.7591 5.53223 16.1877C5.96089 16.6164 6.54227 16.8572 7.14848 16.8572H16.2913C16.8975 16.8572 17.4789 16.6164 17.9076 16.1877C18.3362 15.7591 18.577 15.1777 18.577 14.5715Z"
          stroke="currentColor" stroke-width="1.5" stroke-linecap="round" stroke-linejoin="round"/>
    <path d="M4.6399 3.64014L2.34961 4.47442C1.78015 4.68184 1.31638 5.10693 1.06027 5.65622C0.804164 6.20551 0.776692 6.83403 0.983897 7.40357L4.89247 18.143C4.99517 18.4251 5.15243 18.6842 5.35528 18.9055C5.55813 19.1268 5.8026 19.306 6.07471 19.4329C6.34682 19.5597 6.64125 19.6316 6.94119 19.6447C7.24112 19.6577 7.54068 19.6115 7.82275 19.5087L14.1862 16.9967M8.29133 6.57157H14.0056M8.29133 8.85728H15.1485M8.29133 11.143H11.7199"
          stroke="currentColor" stroke-width="1.5" stroke-linecap="round" stroke-linejoin="round"/>
</svg>
