<svg width="42" height="42" viewBox="0 0 42 42" fill="none" xmlns="http://www.w3.org/2000/svg">
    <circle cx="21" cy="21" r="21" fill="currentColor"/>
    <g clip-path="url(#clip0_155_1093)">
        <path d="M17.0667 11.0094C16.7343 10.2063 15.8578 9.77888 15.0203 10.0077L11.2209 11.0439C10.4697 11.2511 9.94727 11.9333 9.94727 12.7104C9.94727 23.3918 18.608 32.0525 29.2894 32.0525C30.0665 32.0525 30.7487 31.5301 30.9559 30.7789L31.9921 26.9795C32.2209 26.142 31.7935 25.2655 30.9904 24.9331L26.8457 23.2061C26.142 22.9125 25.326 23.1154 24.8467 23.7069L23.1025 25.8354C20.063 24.3977 17.6021 21.9368 16.1644 18.8973L18.2929 17.1574C18.8844 16.6738 19.0873 15.8621 18.7937 15.1584L17.0667 11.0137V11.0094Z" fill="white"/>
    </g>
    <defs>
        <clipPath id="clip0_155_1093">
            <rect width="22.1053" height="22.1053" fill="white" transform="translate(9.94727 9.94727)"/>
        </clipPath>
    </defs>
</svg>
