<svg width="20" height="20" viewBox="0 0 20 20" fill="none" xmlns="http://www.w3.org/2000/svg">
    <circle cx="10" cy="10" r="10" fill="#E4F6FF"/>
    <g clip-path="url(#clip0_140_271)">
        <path d="M15.8375 14.7316L9.40854 8.87861L9.70779 8.57861C9.94377 8.34165 10.0851 8.02667 10.1053 7.69286C10.1171 7.68786 10.1287 7.6821 10.1398 7.67561L11.3465 6.92111C11.4253 6.82504 11.4661 6.70338 11.4612 6.57922C11.4562 6.45506 11.4058 6.33706 11.3195 6.24761L9.22029 4.14311C9.13117 4.05682 9.01339 4.00636 8.88944 4.00138C8.76549 3.9964 8.64404 4.03724 8.54829 4.11611L7.79529 5.32661L7.77879 5.36111C7.45629 5.38136 7.13979 5.51411 6.89529 5.75936L5.75379 6.90461C5.50854 7.14986 5.37654 7.46711 5.35629 7.79036C5.34442 7.79535 5.3329 7.80111 5.32179 7.80761L4.11504 8.56211C4.03622 8.65817 3.99543 8.77984 4.00041 8.90399C4.00538 9.02815 4.05578 9.14616 4.14204 9.23561L6.24129 11.3401C6.33041 11.4264 6.44818 11.4769 6.57213 11.4818C6.69608 11.4868 6.81753 11.446 6.91329 11.3671L7.66629 10.1566L7.68354 10.1221C8.00604 10.1019 8.32254 9.96911 8.56704 9.72386L8.89854 9.39161L14.7358 15.8386C14.9053 16.0254 15.1655 16.0554 15.3155 15.9054L15.9058 15.3136C16.055 15.1636 16.025 14.9019 15.839 14.7324L15.8375 14.7316Z" fill="#8CCEEF"/>
    </g>
    <defs>
        <clipPath id="clip0_140_271">
            <rect width="12" height="12" fill="white" transform="translate(4 4)"/>
        </clipPath>
    </defs>
</svg>